<svg width="90" height="90" viewBox="0 0 90 90" fill="none" xmlns="http://www.w3.org/2000/svg">
<circle cx="45.2777" cy="44.6218" r="44.0546" fill="#F0C3FF" stroke="black"/>
<path d="M50.6992 59.562C50.6992 66.8529 39.8563 66.8529 39.8563 59.562" stroke="black"/>
<path d="M35.8766 40.7097C35.8766 47.3752 31.643 52.5644 26.6553 52.5644C21.6676 52.5644 17.4341 47.3752 17.4341 40.7097C17.4341 34.0442 21.6676 28.855 26.6553 28.855C31.643 28.855 35.8766 34.0442 35.8766 40.7097Z" fill="#F0C3FF" stroke="black"/>
<path d="M73.266 40.7097C73.266 47.3752 69.0324 52.5644 64.0447 52.5644C59.057 52.5644 54.8235 47.3752 54.8235 40.7097C54.8235 34.0442 59.057 28.855 64.0447 28.855C69.0324 28.855 73.266 34.0442 73.266 40.7097Z" fill="#F0C3FF" stroke="black"/>
</svg>
