<svg width="333" height="382" viewBox="0 0 333 382" fill="none" xmlns="http://www.w3.org/2000/svg">
<path d="M0.753156 260.063L37.3307 102.779H264.759L301.336 260.063H0.753156Z" fill="white" stroke="black"/>
<mask id="path-2-inside-1" fill="white">
<path fill-rule="evenodd" clip-rule="evenodd" d="M291.454 381.115C291.455 380.874 291.455 380.632 291.455 380.389C291.455 287.751 228.71 212.652 151.311 212.652C73.9113 212.652 11.1666 287.751 11.1666 380.389C11.1666 380.632 11.167 380.874 11.1679 381.115H291.454Z"/>
</mask>
<path fill-rule="evenodd" clip-rule="evenodd" d="M291.454 381.115C291.455 380.874 291.455 380.632 291.455 380.389C291.455 287.751 228.71 212.652 151.311 212.652C73.9113 212.652 11.1666 287.751 11.1666 380.389C11.1666 380.632 11.167 380.874 11.1679 381.115H291.454Z" fill="white"/>
<path d="M291.454 381.115V382.115H292.45L292.454 381.119L291.454 381.115ZM11.1679 381.115L10.1679 381.119L10.1714 382.115H11.1679V381.115ZM292.454 381.119C292.455 380.876 292.455 380.633 292.455 380.389H290.455C290.455 380.63 290.455 380.871 290.454 381.112L292.454 381.119ZM292.455 380.389C292.455 287.374 229.423 211.652 151.311 211.652V213.652C227.997 213.652 290.455 288.127 290.455 380.389H292.455ZM151.311 211.652C73.1982 211.652 10.1666 287.374 10.1666 380.389H12.1666C12.1666 288.127 74.6244 213.652 151.311 213.652V211.652ZM10.1666 380.389C10.1666 380.633 10.167 380.876 10.1679 381.119L12.1678 381.112C12.167 380.871 12.1666 380.63 12.1666 380.389H10.1666ZM11.1679 382.115H291.454V380.115H11.1679V382.115Z" fill="black" mask="url(#path-2-inside-1)"/>
<mask id="path-4-inside-2" fill="white">
<path fill-rule="evenodd" clip-rule="evenodd" d="M285.398 381.11C285.399 380.879 285.399 380.647 285.399 380.416C285.399 291.78 225.366 219.926 151.311 219.926C77.2557 219.926 17.2222 291.78 17.2222 380.416C17.2222 380.647 17.2226 380.879 17.2234 381.11H285.398Z"/>
</mask>
<path fill-rule="evenodd" clip-rule="evenodd" d="M285.398 381.11C285.399 380.879 285.399 380.647 285.399 380.416C285.399 291.78 225.366 219.926 151.311 219.926C77.2557 219.926 17.2222 291.78 17.2222 380.416C17.2222 380.647 17.2226 380.879 17.2234 381.11H285.398Z" fill="black"/>
<path d="M285.398 381.11V382.11H286.395L286.398 381.114L285.398 381.11ZM17.2234 381.11L16.2234 381.114L16.227 382.11H17.2234V381.11ZM286.398 381.114C286.399 380.881 286.399 380.648 286.399 380.416H284.399C284.399 380.646 284.399 380.877 284.398 381.107L286.398 381.114ZM286.399 380.416C286.399 291.403 226.079 218.926 151.311 218.926V220.926C224.653 220.926 284.399 292.156 284.399 380.416H286.399ZM151.311 218.926C76.5426 218.926 16.2222 291.403 16.2222 380.416H18.2222C18.2222 292.156 77.9688 220.926 151.311 220.926V218.926ZM16.2222 380.416C16.2222 380.649 16.2226 380.881 16.2234 381.114L18.2234 381.107C18.2226 380.877 18.2222 380.646 18.2222 380.416H16.2222ZM17.2234 382.11H285.398V380.11H17.2234V382.11Z" fill="black" mask="url(#path-4-inside-2)"/>
<circle cx="151.045" cy="123.445" r="113.611" fill="white" stroke="black"/>
<path d="M151.045 181.421C151.045 199.366 177.732 199.366 177.732 181.421" stroke="black"/>
<path d="M150.125 181.421C150.125 199.366 123.437 199.366 123.437 181.421" stroke="black"/>
<path d="M128.459 123.445C128.459 133.271 125.803 142.144 121.535 148.546C117.265 154.951 111.42 158.835 105.032 158.835C98.6442 158.835 92.7999 154.951 88.5296 148.546C84.2617 142.144 81.6057 133.271 81.6057 123.445C81.6057 113.619 84.2617 104.746 88.5296 98.3445C92.7999 91.9391 98.6442 88.0553 105.032 88.0553C111.42 88.0553 117.265 91.9391 121.535 98.3445C125.803 104.746 128.459 113.619 128.459 123.445Z" fill="white" stroke="black"/>
<path d="M220.484 123.445C220.484 133.271 217.828 142.144 213.56 148.546C209.29 154.951 203.445 158.835 197.057 158.835C190.669 158.835 184.825 154.951 180.555 148.546C176.287 142.144 173.631 133.271 173.631 123.445C173.631 113.619 176.287 104.746 180.555 98.3445C184.825 91.9391 190.669 88.0553 197.057 88.0553C203.445 88.0553 209.29 91.9391 213.56 98.3445C217.828 104.746 220.484 113.619 220.484 123.445Z" fill="white" stroke="black"/>
<mask id="path-11-inside-3" fill="white">
<path fill-rule="evenodd" clip-rule="evenodd" d="M267.711 93.0768H33.4582C43.8219 40.1679 92.3204 0.131378 150.585 0.131378C208.849 0.131378 257.347 40.1679 267.711 93.0768Z"/>
</mask>
<path fill-rule="evenodd" clip-rule="evenodd" d="M267.711 93.0768H33.4582C43.8219 40.1679 92.3204 0.131378 150.585 0.131378C208.849 0.131378 257.347 40.1679 267.711 93.0768Z" fill="white"/>
<path d="M33.4582 93.0768L32.4768 92.8845L32.2433 94.0768H33.4582V93.0768ZM267.711 93.0768V94.0768H268.926L268.692 92.8845L267.711 93.0768ZM33.4582 94.0768H267.711V92.0768H33.4582V94.0768ZM34.4395 93.269C44.7073 40.8498 92.7774 1.13138 150.585 1.13138V-0.868622C91.8634 -0.868622 42.9364 39.4859 32.4768 92.8845L34.4395 93.269ZM150.585 1.13138C208.392 1.13138 256.462 40.8498 266.73 93.269L268.692 92.8845C258.233 39.4859 209.306 -0.868622 150.585 -0.868622V1.13138Z" fill="black" mask="url(#path-11-inside-3)"/>
<rect x="36.9336" y="93.997" width="228.222" height="19.3253" fill="white"/>
<path d="M33.7526 103.62V85.2749L331.834 73.3516V103.62H33.7526Z" fill="white" stroke="black"/>
<circle cx="153.345" cy="46.6041" r="20.2057" fill="white" stroke="white"/>
<line x1="155.224" y1="33.2189" x2="156.144" y2="44.2619" stroke="white"/>
<line x1="154.677" y1="33.5751" x2="162.959" y2="32.7628" stroke="white"/>
<line x1="155.597" y1="39.0966" x2="163.88" y2="38.2843" stroke="white"/>
<line x1="155.597" y1="44.6181" x2="163.88" y2="43.8058" stroke="white"/>
<line y1="-0.5" x2="12.7751" y2="-0.5" transform="matrix(0.0720346 0.997402 -0.995409 0.0957124 140.922 34.3223)" stroke="white"/>
<line y1="-0.5" x2="12.7751" y2="-0.5" transform="matrix(0.0720346 0.997402 -0.995409 0.0957124 149.204 33.2604)" stroke="white"/>
<line x1="141.787" y1="40.1255" x2="150.069" y2="39.2052" stroke="white"/>
<line x1="142.196" y1="48.5511" x2="147.717" y2="54.0727" stroke="white"/>
<line x1="151.479" y1="47.3123" x2="147.798" y2="53.754" stroke="white"/>
<line x1="148.709" y1="60.0184" x2="147.789" y2="53.5767" stroke="white"/>
<line x1="156.088" y1="58.8804" x2="159.769" y2="46.9172" stroke="white"/>
<line x1="159.731" y1="46.7701" x2="167.093" y2="56.8929" stroke="white"/>
<line x1="157.349" y1="53.0252" x2="163.791" y2="51.1847" stroke="white"/>
<circle cx="151.345" cy="122.895" r="108.061" fill="black" stroke="black"/>
<path d="M231.044 67.8938C231.044 76.2437 226.148 83.8569 218.123 89.4038C210.1 94.9492 198.989 98.3952 186.693 98.3952C174.396 98.3952 163.286 94.9492 155.263 89.4038C147.238 83.8569 142.342 76.2437 142.342 67.8938C142.342 59.5438 147.238 51.9306 155.263 46.3838C163.286 40.8383 174.396 37.3924 186.693 37.3924C198.989 37.3924 210.1 40.8383 218.123 46.3838C226.148 51.9306 231.044 59.5438 231.044 67.8938Z" fill="white" stroke="black"/>
<path d="M245.635 122.041C245.635 127.875 242.214 133.211 236.575 137.109C230.937 141.006 223.121 143.432 214.464 143.432C205.807 143.432 197.992 141.006 192.354 137.109C186.714 133.211 183.293 127.875 183.293 122.041C183.293 116.206 186.714 110.871 192.354 106.972C197.992 103.076 205.807 100.649 214.464 100.649C223.121 100.649 230.937 103.076 236.575 106.972C242.214 110.871 245.635 116.206 245.635 122.041Z" fill="white" stroke="black"/>
<path d="M144.894 178.612C144.894 184.446 141.473 189.782 135.833 193.68C130.196 197.577 122.38 200.004 113.723 200.004C105.066 200.004 97.2503 197.577 91.6126 193.68C85.9729 189.782 82.5521 184.446 82.5521 178.612C82.5521 172.778 85.9729 167.442 91.6126 163.544C97.2503 159.647 105.066 157.221 113.723 157.221C122.38 157.221 130.196 159.647 135.833 163.544C141.473 167.442 144.894 172.778 144.894 178.612Z" fill="white" stroke="black"/>
<path d="M136.919 70.2038C136.919 76.7809 133.063 82.7891 126.719 87.1741C120.377 91.5578 111.588 94.2851 101.857 94.2851C92.1251 94.2851 83.3366 91.5578 76.9946 87.1741C70.6506 82.7891 66.7943 76.7809 66.7943 70.2038C66.7943 63.6267 70.6506 57.6185 76.9946 53.2335C83.3366 48.8498 92.1251 46.1224 101.857 46.1224C111.588 46.1224 120.377 48.8498 126.719 53.2335C133.063 57.6185 136.919 63.6267 136.919 70.2038Z" fill="white" stroke="black"/>
<path d="M229.555 173.136C229.555 180.561 225.201 187.337 218.053 192.278C210.907 197.217 201.008 200.288 190.05 200.288C179.091 200.288 169.192 197.217 162.046 192.278C154.898 187.337 150.545 180.561 150.545 173.136C150.545 165.711 154.898 158.935 162.046 153.995C169.192 149.055 179.091 145.984 190.05 145.984C201.008 145.984 210.907 149.055 218.053 153.995C225.201 158.935 229.555 165.711 229.555 173.136Z" fill="white" stroke="black"/>
<path d="M140.894 126.298C140.894 133.648 135.87 140.39 127.557 145.322C119.255 150.248 107.753 153.311 95.0224 153.311C82.2913 153.311 70.7898 150.248 62.4879 145.322C54.1752 140.39 49.1509 133.648 49.1509 126.298C49.1509 118.948 54.1752 112.206 62.4879 107.273C70.7898 102.348 82.2913 99.2852 95.0224 99.2852C107.753 99.2852 119.255 102.348 127.557 107.273C135.87 112.206 140.894 118.948 140.894 126.298Z" fill="white" stroke="black"/>
<path d="M155.98 63.7808C154.994 63.7613 154.222 63.3975 153.666 62.6895C153.109 61.9815 152.875 61.0757 152.962 59.9722L152.999 59.6573C153.082 58.8711 153.314 58.1534 153.695 57.5039C154.081 56.8545 154.549 56.3662 155.101 56.0391C155.653 55.7071 156.249 55.5484 156.888 55.563C157.704 55.5826 158.343 55.8535 158.807 56.376C159.271 56.8985 159.525 57.6065 159.569 58.5C159.583 58.8174 159.574 59.1348 159.54 59.4522L159.459 60.0601H154.281C154.193 60.7779 154.31 61.3882 154.632 61.8911C154.959 62.3941 155.445 62.6553 156.09 62.6748C156.871 62.6944 157.594 62.3428 158.258 61.6201L159.02 62.2647C158.688 62.7432 158.258 63.1192 157.73 63.3926C157.208 63.6612 156.625 63.7906 155.98 63.7808ZM156.822 56.669C156.275 56.6543 155.797 56.8399 155.387 57.2256C154.981 57.6114 154.659 58.1851 154.42 58.9468L158.272 58.9541L158.302 58.8369C158.38 58.2217 158.28 57.7115 158.001 57.3062C157.728 56.896 157.335 56.6836 156.822 56.669ZM163.736 58.5952L165.89 55.7095H167.516L164.337 59.6939L166.271 63.6343H164.828L163.517 60.6753L161.283 63.6343H159.664L162.938 59.562L161.063 55.7095H162.513L163.736 58.5952ZM169.061 63.6343H167.743L169.12 55.7095H170.438L169.061 63.6343ZM170.152 52.8164C170.377 52.8067 170.562 52.875 170.709 53.0215C170.86 53.1631 170.936 53.3511 170.936 53.5855C170.931 53.815 170.855 54.003 170.709 54.1494C170.567 54.2959 170.382 54.3741 170.152 54.3838C169.923 54.3936 169.735 54.3277 169.588 54.1861C169.442 54.0445 169.371 53.8589 169.376 53.6294C169.381 53.3999 169.454 53.2095 169.596 53.0581C169.737 52.9068 169.923 52.8262 170.152 52.8164ZM176.136 61.4883C176.209 60.9414 175.909 60.5557 175.235 60.3311L173.858 59.9283C172.696 59.5279 172.135 58.8638 172.174 57.9361C172.208 57.2378 172.525 56.6665 173.126 56.2222C173.731 55.773 174.442 55.5533 175.257 55.563C176.058 55.5728 176.708 55.8072 177.206 56.2661C177.708 56.7202 177.95 57.3135 177.931 58.0459L176.612 58.0386C176.622 57.6431 176.498 57.3208 176.239 57.0718C175.98 56.8228 175.636 56.6934 175.206 56.6836C174.747 56.6739 174.352 56.7862 174.02 57.0205C173.712 57.2403 173.534 57.5284 173.485 57.8848C173.421 58.3438 173.702 58.6783 174.327 58.8882L174.994 59.0713C175.902 59.3057 176.546 59.6109 176.927 59.9868C177.308 60.3628 177.484 60.8291 177.455 61.3858C177.425 61.8789 177.264 62.3086 176.971 62.6748C176.678 63.041 176.288 63.3218 175.799 63.5171C175.311 63.7076 174.791 63.7954 174.239 63.7808C173.399 63.771 172.706 63.5269 172.159 63.0484C171.612 62.565 171.349 61.9449 171.368 61.188L172.694 61.1953C172.694 61.6397 172.835 61.9961 173.119 62.2647C173.402 62.5332 173.79 62.6675 174.283 62.6675C174.767 62.6773 175.184 62.5772 175.536 62.3672C175.887 62.1524 176.087 61.8594 176.136 61.4883ZM182.303 53.7906L181.966 55.7095H183.409L183.226 56.7569H181.791L180.963 61.6861C180.948 61.813 180.946 61.9302 180.956 62.0376C180.99 62.4185 181.197 62.6089 181.578 62.6089C181.739 62.6089 181.954 62.5845 182.223 62.5357L182.12 63.6416C181.803 63.7295 181.48 63.7735 181.153 63.7735C180.626 63.7637 180.23 63.5708 179.967 63.1949C179.703 62.814 179.601 62.3037 179.659 61.6641L180.465 56.7569H179.066L179.249 55.7095H180.648L180.985 53.7906H182.303ZM187.064 63.7808C186.078 63.7613 185.306 63.3975 184.75 62.6895C184.193 61.9815 183.958 61.0757 184.046 59.9722L184.083 59.6573C184.166 58.8711 184.398 58.1534 184.779 57.5039C185.165 56.8545 185.633 56.3662 186.185 56.0391C186.737 55.7071 187.333 55.5484 187.972 55.563C188.788 55.5826 189.427 55.8535 189.891 56.376C190.355 56.8985 190.609 57.6065 190.653 58.5C190.667 58.8174 190.658 59.1348 190.624 59.4522L190.543 60.0601H185.365C185.277 60.7779 185.394 61.3882 185.716 61.8911C186.043 62.3941 186.529 62.6553 187.174 62.6748C187.955 62.6944 188.678 62.3428 189.342 61.6201L190.104 62.2647C189.771 62.7432 189.342 63.1192 188.814 63.3926C188.292 63.6612 187.708 63.7906 187.064 63.7808ZM187.906 56.669C187.359 56.6543 186.881 56.8399 186.471 57.2256C186.065 57.6114 185.743 58.1851 185.504 58.9468L189.356 58.9541L189.386 58.8369C189.464 58.2217 189.364 57.7115 189.085 57.3062C188.812 56.896 188.419 56.6836 187.906 56.669ZM194.044 55.7022L193.854 56.7056C194.566 55.9243 195.377 55.5435 196.285 55.563C197.032 55.5826 197.584 55.8413 197.94 56.3394C198.297 56.8374 198.429 57.5381 198.336 58.4414L197.472 63.6343H196.146L197.018 58.4195C197.047 58.1802 197.049 57.958 197.025 57.753C196.942 57.0694 196.539 56.7202 195.816 56.7056C195.021 56.6909 194.322 57.1158 193.722 57.98L192.74 63.6343H191.415L192.792 55.7095L194.044 55.7022ZM203.016 53.7906L202.679 55.7095H204.122L203.939 56.7569H202.503L201.676 61.6861C201.661 61.813 201.659 61.9302 201.668 62.0376C201.703 62.4185 201.91 62.6089 202.291 62.6089C202.452 62.6089 202.667 62.5845 202.936 62.5357L202.833 63.6416C202.516 63.7295 202.193 63.7735 201.866 63.7735C201.339 63.7637 200.943 63.5708 200.68 63.1949C200.416 62.814 200.313 62.3037 200.372 61.6641L201.178 56.7569H199.779L199.962 55.7095H201.361L201.698 53.7906H203.016ZM205.785 63.6343H204.466L205.843 55.7095H207.162L205.785 63.6343ZM206.876 52.8164C207.101 52.8067 207.286 52.875 207.433 53.0215C207.584 53.1631 207.66 53.3511 207.66 53.5855C207.655 53.815 207.579 54.003 207.433 54.1494C207.291 54.2959 207.105 54.3741 206.876 54.3838C206.646 54.3936 206.458 54.3277 206.312 54.1861C206.166 54.0445 206.095 53.8589 206.1 53.6294C206.104 53.3999 206.178 53.2095 206.319 53.0581C206.461 52.9068 206.646 52.8262 206.876 52.8164ZM212.801 63.6343C212.767 63.4927 212.75 63.3535 212.75 63.2168L212.772 62.7993C212.044 63.4732 211.273 63.8003 210.458 63.7808C209.759 63.771 209.19 63.5513 208.751 63.1216C208.316 62.687 208.119 62.1451 208.158 61.4956C208.207 60.6558 208.573 60.0015 209.256 59.5327C209.945 59.0591 210.848 58.8223 211.966 58.8223L213.351 58.8296L213.438 58.1997C213.487 57.7261 213.395 57.3526 213.16 57.0791C212.931 56.8008 212.584 56.6568 212.12 56.647C211.666 56.6372 211.263 56.7495 210.912 56.9839C210.565 57.2134 210.353 57.5186 210.274 57.8994L208.941 57.9068C208.985 57.4429 209.166 57.0327 209.483 56.6763C209.801 56.315 210.208 56.0367 210.707 55.8413C211.205 55.6411 211.72 55.5459 212.252 55.5557C213.077 55.5752 213.719 55.8267 214.178 56.3101C214.637 56.7886 214.83 57.4258 214.757 58.2217L214.112 62.1475L214.076 62.7115C214.066 62.98 214.095 63.2461 214.164 63.5098L214.149 63.6343H212.801ZM210.721 62.6089C211.146 62.6187 211.546 62.5186 211.922 62.3086C212.303 62.0938 212.63 61.7984 212.904 61.4224L213.189 59.7891L212.186 59.7818C211.351 59.7818 210.711 59.9136 210.267 60.1773C209.823 60.4409 209.571 60.8145 209.513 61.2979C209.469 61.669 209.554 61.979 209.769 62.2281C209.989 62.4722 210.306 62.5992 210.721 62.6089ZM217.386 63.6343H216.068L218.016 52.3843H219.342L217.386 63.6343ZM157.965 73.5557C158.858 73.5752 159.54 73.8951 160.008 74.5152L160.25 73.7095H161.473L159.569 84.6812H158.25L158.968 80.9019C158.333 81.5074 157.596 81.8003 156.756 81.7808C156.014 81.771 155.421 81.4903 154.977 80.9385C154.532 80.3867 154.293 79.6421 154.259 78.7046C154.229 78.0992 154.3 77.4619 154.471 76.793C154.642 76.1192 154.896 75.5332 155.233 75.0352C155.575 74.5323 155.978 74.1563 156.441 73.9073C156.905 73.6582 157.413 73.541 157.965 73.5557ZM155.621 77.8111L155.584 78.4263C155.57 79.1343 155.697 79.6861 155.965 80.0816C156.239 80.4722 156.629 80.6724 157.137 80.6822C157.884 80.7017 158.546 80.3452 159.122 79.6128L159.811 75.7163C159.488 75.0376 158.961 74.6885 158.229 74.669C157.56 74.6543 156.996 74.9107 156.537 75.438C156.078 75.9654 155.772 76.7564 155.621 77.8111ZM167.289 80.8506C166.668 81.4903 165.88 81.8003 164.923 81.7808C164.166 81.7613 163.604 81.4903 163.238 80.9678C162.877 80.4453 162.743 79.7325 162.835 78.8291L163.685 73.7095H165.011L164.154 78.8511C164.129 79.0659 164.125 79.2759 164.139 79.481C164.164 79.8326 164.269 80.1084 164.454 80.3086C164.64 80.5088 164.898 80.6162 165.23 80.6309C166.178 80.6602 166.91 80.2769 167.428 79.481L168.424 73.7095H169.75L168.373 81.6343H167.12L167.289 80.8506ZM173.785 81.7808C172.799 81.7613 172.027 81.3975 171.471 80.6895C170.914 79.9815 170.68 79.0757 170.768 77.9722L170.804 77.6573C170.887 76.8711 171.119 76.1534 171.5 75.5039C171.886 74.8545 172.354 74.3662 172.906 74.0391C173.458 73.7071 174.054 73.5484 174.693 73.563C175.509 73.5826 176.148 73.8535 176.612 74.376C177.076 74.8985 177.33 75.6065 177.374 76.5C177.389 76.8174 177.379 77.1348 177.345 77.4522L177.264 78.0601H172.086C171.998 78.7779 172.115 79.3882 172.438 79.8911C172.765 80.3941 173.25 80.6553 173.895 80.6748C174.676 80.6944 175.399 80.3428 176.063 79.6201L176.825 80.2647C176.493 80.7432 176.063 81.1192 175.536 81.3926C175.013 81.6612 174.43 81.7906 173.785 81.7808ZM174.627 74.669C174.081 74.6543 173.602 74.8399 173.192 75.2256C172.787 75.6114 172.464 76.1851 172.225 76.9468L176.078 76.9541L176.107 76.8369C176.185 76.2217 176.085 75.7115 175.807 75.3062C175.533 74.896 175.14 74.6836 174.627 74.669ZM183.043 79.4883C183.116 78.9414 182.816 78.5557 182.142 78.3311L180.765 77.9283C179.603 77.5279 179.042 76.8638 179.081 75.9361C179.115 75.2378 179.432 74.6665 180.033 74.2222C180.638 73.773 181.349 73.5533 182.164 73.563C182.965 73.5728 183.614 73.8072 184.112 74.2661C184.615 74.7202 184.857 75.3135 184.837 76.0459L183.519 76.0386C183.529 75.6431 183.404 75.3208 183.146 75.0718C182.887 74.8228 182.542 74.6934 182.113 74.6836C181.654 74.6739 181.258 74.7862 180.926 75.0205C180.619 75.2403 180.44 75.5284 180.392 75.8848C180.328 76.3438 180.609 76.6783 181.234 76.8882L181.9 77.0713C182.809 77.3057 183.453 77.6109 183.834 77.9868C184.215 78.3628 184.391 78.8291 184.361 79.3858C184.332 79.8789 184.171 80.3086 183.878 80.6748C183.585 81.041 183.194 81.3218 182.706 81.5171C182.218 81.7076 181.698 81.7954 181.146 81.7808C180.306 81.771 179.613 81.5269 179.066 81.0484C178.519 80.565 178.255 79.9449 178.275 79.188L179.601 79.1953C179.601 79.6397 179.742 79.9961 180.025 80.2647C180.309 80.5332 180.697 80.6675 181.19 80.6675C181.673 80.6773 182.091 80.5772 182.442 80.3672C182.794 80.1524 182.994 79.8594 183.043 79.4883ZM189.21 71.7906L188.873 73.7095H190.316L190.133 74.7569H188.697L187.87 79.6861C187.855 79.813 187.853 79.9302 187.862 80.0376C187.896 80.4185 188.104 80.6089 188.485 80.6089C188.646 80.6089 188.861 80.5845 189.129 80.5357L189.027 81.6416C188.709 81.7295 188.387 81.7735 188.06 81.7735C187.533 81.7637 187.137 81.5708 186.874 81.1949C186.61 80.814 186.507 80.3037 186.566 79.6641L187.372 74.7569H185.973L186.156 73.7095H187.555L187.892 71.7906H189.21ZM191.979 81.6343H190.66L192.037 73.7095H193.355L191.979 81.6343ZM193.07 70.8164C193.294 70.8067 193.48 70.875 193.626 71.0215C193.778 71.1631 193.854 71.3511 193.854 71.5855C193.849 71.815 193.773 72.003 193.626 72.1494C193.485 72.2959 193.299 72.3741 193.07 72.3838C192.84 72.3936 192.652 72.3277 192.506 72.1861C192.359 72.0445 192.289 71.8589 192.293 71.6294C192.298 71.3999 192.372 71.2095 192.513 71.0581C192.655 70.9068 192.84 70.8262 193.07 70.8164ZM198.548 73.563C199.212 73.5728 199.781 73.7534 200.255 74.105C200.729 74.4566 201.078 74.9424 201.302 75.5625C201.532 76.1778 201.61 76.8516 201.537 77.584L201.522 77.7451C201.429 78.5166 201.2 79.2149 200.833 79.8399C200.467 80.46 199.994 80.9434 199.413 81.2901C198.832 81.6367 198.194 81.8003 197.501 81.7808C196.842 81.771 196.273 81.5904 195.794 81.2388C195.321 80.8872 194.974 80.4087 194.754 79.8033C194.535 79.1978 194.457 78.5313 194.52 77.8037C194.593 76.9834 194.815 76.2461 195.187 75.5918C195.558 74.9375 196.034 74.4322 196.615 74.0757C197.201 73.7144 197.845 73.5435 198.548 73.563ZM195.853 77.8111C195.819 78.1187 195.819 78.4385 195.853 78.7705C195.902 79.3467 196.073 79.8057 196.366 80.1475C196.664 80.4893 197.059 80.6675 197.552 80.6822C197.992 80.6968 198.397 80.5894 198.768 80.3599C199.139 80.1255 199.452 79.774 199.706 79.3052C199.959 78.8365 200.123 78.3164 200.196 77.7451C200.235 77.2959 200.243 76.9175 200.218 76.6099C200.16 76.0191 199.981 75.5528 199.684 75.211C199.386 74.8692 198.99 74.6885 198.497 74.669C197.813 74.6543 197.232 74.9229 196.754 75.4746C196.275 76.0264 195.98 76.7491 195.868 77.6426L195.853 77.8111ZM205.155 73.7022L204.964 74.7056C205.677 73.9243 206.488 73.5435 207.396 73.563C208.143 73.5826 208.695 73.8413 209.051 74.3394C209.408 74.8374 209.54 75.5381 209.447 76.4414L208.583 81.6343H207.257L208.128 76.4195C208.158 76.1802 208.16 75.958 208.136 75.753C208.053 75.0694 207.65 74.7202 206.927 74.7056C206.131 74.6909 205.433 75.1158 204.833 75.98L203.851 81.6343H202.525L203.902 73.7095L205.155 73.7022ZM215.533 79.4883C215.606 78.9414 215.306 78.5557 214.632 78.3311L213.255 77.9283C212.093 77.5279 211.532 76.8638 211.571 75.9361C211.605 75.2378 211.922 74.6665 212.523 74.2222C213.128 73.773 213.839 73.5533 214.654 73.563C215.455 73.5728 216.104 73.8072 216.603 74.2661C217.105 74.7202 217.347 75.3135 217.328 76.0459L216.009 76.0386C216.019 75.6431 215.895 75.3208 215.636 75.0718C215.377 74.8228 215.033 74.6934 214.603 74.6836C214.144 74.6739 213.749 74.7862 213.417 75.0205C213.109 75.2403 212.931 75.5284 212.882 75.8848C212.818 76.3438 213.099 76.6783 213.724 76.8882L214.391 77.0713C215.299 77.3057 215.943 77.6109 216.324 77.9868C216.705 78.3628 216.881 78.8291 216.852 79.3858C216.822 79.8789 216.661 80.3086 216.368 80.6748C216.075 81.041 215.685 81.3218 215.196 81.5171C214.708 81.7076 214.188 81.7954 213.636 81.7808C212.796 81.771 212.103 81.5269 211.556 81.0484C211.009 80.565 210.746 79.9449 210.765 79.188L212.091 79.1953C212.091 79.6397 212.232 79.9961 212.516 80.2647C212.799 80.5332 213.187 80.6675 213.68 80.6675C214.164 80.6773 214.581 80.5772 214.933 80.3672C215.284 80.1524 215.484 79.8594 215.533 79.4883Z" fill="black"/>
<path d="M201.084 117.051L199.582 125.921C199.485 126.668 199.233 127.237 198.828 127.627C198.428 128.018 197.903 128.209 197.253 128.199C196.995 128.189 196.704 128.14 196.382 128.052L196.499 126.968C196.68 127.012 196.882 127.039 197.107 127.049C197.737 127.049 198.115 126.673 198.242 125.921L199.758 117.051H201.084ZM199.985 114.971C199.99 114.742 200.061 114.551 200.198 114.4C200.339 114.249 200.527 114.168 200.762 114.158C200.986 114.148 201.172 114.219 201.318 114.371C201.47 114.517 201.545 114.703 201.545 114.927C201.54 115.157 201.465 115.345 201.318 115.491C201.172 115.638 200.984 115.716 200.754 115.726C200.535 115.735 200.351 115.667 200.205 115.521C200.058 115.374 199.985 115.191 199.985 114.971ZM206.284 116.905C206.948 116.915 207.517 117.095 207.991 117.447C208.464 117.798 208.813 118.284 209.038 118.904C209.267 119.52 209.346 120.193 209.272 120.926L209.258 121.087C209.165 121.858 208.935 122.557 208.569 123.182C208.203 123.802 207.729 124.285 207.148 124.632C206.567 124.979 205.93 125.142 205.237 125.123C204.578 125.113 204.009 124.932 203.53 124.581C203.057 124.229 202.71 123.751 202.49 123.145C202.27 122.54 202.192 121.873 202.256 121.146C202.329 120.325 202.551 119.588 202.922 118.934C203.293 118.279 203.769 117.774 204.35 117.418C204.936 117.056 205.581 116.885 206.284 116.905ZM203.589 121.153C203.555 121.46 203.555 121.78 203.589 122.112C203.638 122.689 203.808 123.147 204.101 123.489C204.399 123.831 204.795 124.009 205.288 124.024C205.727 124.039 206.133 123.931 206.504 123.702C206.875 123.467 207.187 123.116 207.441 122.647C207.695 122.178 207.859 121.658 207.932 121.087C207.971 120.638 207.978 120.259 207.954 119.952C207.895 119.361 207.717 118.895 207.419 118.553C207.121 118.211 206.726 118.03 206.233 118.011C205.549 117.996 204.968 118.265 204.49 118.816C204.011 119.368 203.716 120.091 203.603 120.984L203.589 121.153ZM213.103 121.321L212.063 122.251L211.594 124.976H210.268L212.224 113.726H213.55L212.378 120.45L213.191 119.629L216.003 117.051H217.725L214.084 120.428L216.589 124.976H215.139L213.103 121.321ZM220.998 125.123C220.012 125.103 219.241 124.739 218.684 124.031C218.127 123.323 217.893 122.418 217.981 121.314L218.017 120.999C218.1 120.213 218.332 119.495 218.713 118.846C219.099 118.196 219.568 117.708 220.12 117.381C220.671 117.049 221.267 116.89 221.907 116.905C222.722 116.924 223.362 117.195 223.826 117.718C224.289 118.24 224.543 118.948 224.587 119.842C224.602 120.159 224.592 120.477 224.558 120.794L224.477 121.402H219.299C219.211 122.12 219.329 122.73 219.651 123.233C219.978 123.736 220.464 123.997 221.108 124.017C221.89 124.036 222.612 123.685 223.276 122.962L224.038 123.606C223.706 124.085 223.276 124.461 222.749 124.734C222.226 125.003 221.643 125.132 220.998 125.123ZM221.841 118.011C221.294 117.996 220.815 118.182 220.405 118.567C220 118.953 219.678 119.527 219.438 120.289L223.291 120.296L223.32 120.179C223.398 119.564 223.298 119.053 223.02 118.648C222.746 118.238 222.353 118.025 221.841 118.011ZM230.256 122.83C230.329 122.283 230.029 121.897 229.355 121.673L227.978 121.27C226.816 120.87 226.255 120.206 226.294 119.278C226.328 118.58 226.645 118.008 227.246 117.564C227.851 117.115 228.562 116.895 229.377 116.905C230.178 116.915 230.828 117.149 231.326 117.608C231.829 118.062 232.07 118.655 232.051 119.388L230.732 119.38C230.742 118.985 230.618 118.663 230.359 118.414C230.1 118.165 229.756 118.035 229.326 118.025C228.867 118.016 228.472 118.128 228.14 118.362C227.832 118.582 227.654 118.87 227.605 119.227C227.541 119.686 227.822 120.02 228.447 120.23L229.114 120.413C230.022 120.647 230.666 120.953 231.047 121.329C231.428 121.705 231.604 122.171 231.575 122.728C231.545 123.221 231.384 123.65 231.091 124.017C230.798 124.383 230.408 124.664 229.919 124.859C229.431 125.049 228.911 125.137 228.359 125.123C227.519 125.113 226.826 124.869 226.279 124.39C225.732 123.907 225.469 123.287 225.488 122.53L226.814 122.537C226.814 122.981 226.955 123.338 227.239 123.606C227.522 123.875 227.91 124.009 228.403 124.009C228.887 124.019 229.304 123.919 229.656 123.709C230.007 123.494 230.207 123.201 230.256 122.83Z" fill="black"/>
<path d="M98.6287 177.629C98.5604 178.425 98.2869 179.089 97.8084 179.621C97.3348 180.149 96.7562 180.407 96.0726 180.398C95.4574 180.383 94.8494 180.102 94.2489 179.555L93.8094 179.131C93.4578 178.803 93.1209 178.64 92.7987 178.64C92.1346 178.625 91.6952 179.026 91.4803 179.841L91.4217 180.112L90.2791 180.134C90.3573 179.343 90.6331 178.694 91.1068 178.186C91.5853 177.673 92.1688 177.426 92.8573 177.446C93.4383 177.461 93.9925 177.695 94.5199 178.149L95.1717 178.757C95.5037 179.055 95.8236 179.204 96.1312 179.204C96.4974 179.204 96.8075 179.069 97.0614 178.801C97.3202 178.532 97.4935 178.149 97.5814 177.651L98.6287 177.629ZM108.238 183.327C108.204 183.186 108.187 183.047 108.187 182.91L108.209 182.492C107.481 183.166 106.71 183.493 105.894 183.474C105.196 183.464 104.627 183.244 104.188 182.815C103.753 182.38 103.556 181.838 103.595 181.189C103.643 180.349 104.01 179.694 104.693 179.226C105.382 178.752 106.285 178.515 107.403 178.515L108.787 178.523L108.875 177.893C108.924 177.419 108.831 177.046 108.597 176.772C108.368 176.494 108.021 176.35 107.557 176.34C107.103 176.33 106.7 176.443 106.348 176.677C106.002 176.906 105.789 177.212 105.711 177.592L104.378 177.6C104.422 177.136 104.603 176.726 104.92 176.369C105.238 176.008 105.645 175.73 106.143 175.534C106.641 175.334 107.157 175.239 107.689 175.249C108.514 175.268 109.156 175.52 109.615 176.003C110.074 176.482 110.267 177.119 110.194 177.915L109.549 181.84L109.513 182.404C109.503 182.673 109.532 182.939 109.6 183.203L109.586 183.327H108.238ZM106.158 182.302C106.583 182.312 106.983 182.212 107.359 182.002C107.74 181.787 108.067 181.491 108.341 181.115L108.626 179.482L107.623 179.475C106.788 179.475 106.148 179.607 105.704 179.87C105.26 180.134 105.008 180.507 104.95 180.991C104.906 181.362 104.991 181.672 105.206 181.921C105.426 182.165 105.743 182.292 106.158 182.302ZM116.317 176.611L115.694 176.545C114.845 176.545 114.176 176.928 113.687 177.695L112.713 183.327H111.388L112.764 175.402L114.046 175.395L113.848 176.318C114.41 175.581 115.072 175.222 115.833 175.241C115.994 175.241 116.204 175.278 116.463 175.351L116.317 176.611ZM120.25 173.484L119.913 175.402H121.356L121.173 176.45H119.737L118.91 181.379C118.895 181.506 118.892 181.623 118.902 181.731C118.936 182.111 119.144 182.302 119.525 182.302C119.686 182.302 119.901 182.277 120.169 182.229L120.067 183.335C119.749 183.423 119.427 183.466 119.1 183.466C118.573 183.457 118.177 183.264 117.913 182.888C117.65 182.507 117.547 181.997 117.606 181.357L118.411 176.45H117.013L117.196 175.402H118.595L118.931 173.484H120.25ZM134.151 177.629C134.083 178.425 133.809 179.089 133.331 179.621C132.857 180.149 132.279 180.407 131.595 180.398C130.98 180.383 130.372 180.102 129.771 179.555L129.332 179.131C128.98 178.803 128.643 178.64 128.321 178.64C127.657 178.625 127.218 179.026 127.003 179.841L126.944 180.112L125.802 180.134C125.88 179.343 126.156 178.694 126.629 178.186C127.108 177.673 127.691 177.426 128.38 177.446C128.961 177.461 129.515 177.695 130.042 178.149L130.694 178.757C131.026 179.055 131.346 179.204 131.654 179.204C132.02 179.204 132.33 179.069 132.584 178.801C132.843 178.532 133.016 178.149 133.104 177.651L134.151 177.629Z" fill="black"/>
<path d="M91.9875 63.8772H90.6692L92.0461 55.9524H93.3645L91.9875 63.8772ZM93.0788 53.0593C93.3034 53.0495 93.489 53.1179 93.6355 53.2644C93.7868 53.406 93.8625 53.594 93.8625 53.8283C93.8576 54.0578 93.782 54.2458 93.6355 54.3923C93.4939 54.5388 93.3083 54.6169 93.0788 54.6267C92.8493 54.6364 92.6613 54.5705 92.5149 54.4289C92.3684 54.2873 92.2976 54.1018 92.3025 53.8723C92.3073 53.6428 92.3806 53.4524 92.5222 53.301C92.6638 53.1496 92.8493 53.0691 93.0788 53.0593ZM95.6643 56.216L94.9319 55.674C95.508 54.9563 95.8547 54.2605 95.9719 53.5866L96.1404 52.6272H97.4441L97.3049 53.5134C97.1291 54.612 96.5822 55.5129 95.6643 56.216ZM99.612 55.945L99.4436 56.8313C100.108 56.1281 100.911 55.7863 101.853 55.8059C102.356 55.8156 102.781 55.9304 103.128 56.1501C103.479 56.3698 103.721 56.6799 103.853 57.0803C104.595 56.2112 105.471 55.7863 106.482 55.8059C107.273 55.8254 107.857 56.0915 108.233 56.6042C108.609 57.1169 108.748 57.8054 108.65 58.6696L107.779 63.8772H106.46L107.324 58.655C107.354 58.4011 107.354 58.1692 107.324 57.9592C107.232 57.2951 106.797 56.9558 106.021 56.9411C105.537 56.9314 105.098 57.0827 104.702 57.3952C104.312 57.7029 104.06 58.1081 103.948 58.6111L103.047 63.8772H101.714L102.593 58.6623C102.656 58.1203 102.573 57.7029 102.344 57.4099C102.119 57.1169 101.768 56.9655 101.289 56.9558C100.464 56.9362 99.8073 57.3122 99.3191 58.0837L98.3156 63.8772H96.99L98.3669 55.9524L99.612 55.945ZM82.195 74.9192C82.8884 74.1623 83.6867 73.7937 84.5901 73.8132C85.3322 73.823 85.8816 74.0793 86.238 74.5822C86.5993 75.0803 86.7336 75.781 86.6408 76.6843L85.7766 81.8772H84.4509L85.3225 76.6623C85.3518 76.4231 85.3542 76.2009 85.3298 75.9958C85.2468 75.3122 84.844 74.9631 84.1213 74.9485C83.3108 74.9289 82.6125 75.3537 82.0266 76.2229L81.0451 81.8772H79.7195L81.675 70.6272H83.0007L82.195 74.9192ZM92.8371 81.0935C92.217 81.7331 91.4284 82.0432 90.4714 82.0237C89.7146 82.0041 89.153 81.7331 88.7868 81.2107C88.4255 80.6882 88.2912 79.9753 88.384 79.072L89.2336 73.9524H90.5593L89.7024 79.094C89.6779 79.3088 89.6731 79.5188 89.6877 79.7238C89.7121 80.0754 89.8171 80.3513 90.0027 80.5515C90.1882 80.7517 90.447 80.8591 90.779 80.8737C91.7263 80.903 92.4587 80.5197 92.9763 79.7238L93.9724 73.9524H95.2981L93.9211 81.8772H92.6687L92.8371 81.0935ZM98.5354 73.945L98.3449 74.9485C99.0578 74.1672 99.8684 73.7863 100.777 73.8059C101.524 73.8254 102.075 74.0842 102.432 74.5822C102.788 75.0803 102.92 75.781 102.827 76.6843L101.963 81.8772H100.637L101.509 76.6623C101.538 76.4231 101.541 76.2009 101.516 75.9958C101.433 75.3122 101.03 74.9631 100.308 74.9485C99.5119 74.9338 98.8137 75.3586 98.2131 76.2229L97.2317 81.8772H95.906L97.2829 73.9524L98.5354 73.945ZM104.395 77.9001C104.512 77.0359 104.744 76.2863 105.091 75.6516C105.442 75.0119 105.867 74.5407 106.365 74.238C106.868 73.9304 107.417 73.7839 108.013 73.7986C108.931 73.8181 109.624 74.1648 110.093 74.8386L110.357 73.9524H111.572L110.254 81.7087C110.113 82.7195 109.702 83.5276 109.024 84.133C108.345 84.7434 107.508 85.0339 106.511 85.0046C105.974 84.9948 105.459 84.8679 104.966 84.6237C104.478 84.3796 104.092 84.0451 103.809 83.6203L104.563 82.8073C105.042 83.5154 105.674 83.8791 106.46 83.8987C107.09 83.9182 107.622 83.7424 108.057 83.3713C108.496 83.0002 108.787 82.4729 108.928 81.7893L109.075 81.0862C108.43 81.7307 107.676 82.0432 106.812 82.0237C106.319 82.009 105.889 81.8772 105.523 81.6281C105.161 81.3742 104.881 81.0105 104.68 80.5368C104.48 80.0583 104.37 79.5261 104.351 78.9402C104.341 78.6521 104.356 78.3054 104.395 77.9001ZM105.676 78.6545C105.662 79.3528 105.781 79.8947 106.035 80.2805C106.294 80.6613 106.682 80.8615 107.2 80.8811C107.991 80.9006 108.672 80.5124 109.243 79.7165L109.866 76.0764C109.573 75.3537 109.043 74.9778 108.277 74.9485C107.559 74.9289 106.968 75.2219 106.504 75.8274C106.045 76.4328 105.774 77.2507 105.691 78.281L105.676 78.6545ZM117.183 75.1609L116.56 75.0949C115.711 75.0949 115.042 75.4782 114.553 76.2448L113.579 81.8772H112.254L113.631 73.9524L114.912 73.945L114.715 74.8679C115.276 74.1306 115.938 73.7717 116.699 73.7912C116.861 73.7912 117.071 73.8279 117.329 73.9011L117.183 75.1609ZM120.222 79.8777L123.042 73.9524H124.507L119.805 83.1955C119.151 84.4797 118.311 85.1145 117.285 85.0998C117.105 85.0949 116.839 85.051 116.487 84.968L116.604 83.8694L116.948 83.906C117.368 83.9255 117.73 83.8303 118.032 83.6203C118.34 83.4153 118.611 83.0808 118.845 82.6169L119.322 81.7087L117.952 73.9524H119.336L120.222 79.8777Z" fill="black"/>
<path d="M169.66 167.466C169.733 166.919 169.433 166.534 168.759 166.309L167.382 165.906C166.22 165.506 165.659 164.842 165.698 163.914C165.732 163.216 166.049 162.644 166.65 162.2C167.255 161.751 167.966 161.531 168.781 161.541C169.582 161.551 170.231 161.785 170.729 162.244C171.232 162.698 171.474 163.291 171.455 164.024L170.136 164.016C170.146 163.621 170.021 163.299 169.763 163.05C169.504 162.801 169.16 162.671 168.73 162.661C168.271 162.652 167.875 162.764 167.543 162.998C167.236 163.218 167.058 163.506 167.009 163.863C166.945 164.322 167.226 164.656 167.851 164.866L168.518 165.049C169.426 165.284 170.07 165.589 170.451 165.965C170.832 166.341 171.008 166.807 170.978 167.364C170.949 167.857 170.788 168.286 170.495 168.653C170.202 169.019 169.811 169.3 169.323 169.495C168.835 169.685 168.315 169.773 167.763 169.759C166.923 169.749 166.23 169.505 165.683 169.026C165.136 168.543 164.873 167.923 164.892 167.166L166.218 167.173C166.218 167.618 166.359 167.974 166.643 168.243C166.926 168.511 167.314 168.645 167.807 168.645C168.29 168.655 168.708 168.555 169.06 168.345C169.411 168.13 169.611 167.837 169.66 167.466ZM176.728 161.541C177.392 161.551 177.961 161.731 178.435 162.083C178.908 162.434 179.257 162.92 179.482 163.54C179.711 164.156 179.79 164.829 179.716 165.562L179.702 165.723C179.609 166.494 179.379 167.193 179.013 167.818C178.647 168.438 178.173 168.921 177.592 169.268C177.011 169.615 176.374 169.778 175.681 169.759C175.021 169.749 174.453 169.568 173.974 169.217C173.5 168.865 173.154 168.387 172.934 167.781C172.714 167.176 172.636 166.509 172.7 165.782C172.773 164.961 172.995 164.224 173.366 163.57C173.737 162.915 174.213 162.41 174.794 162.054C175.38 161.692 176.025 161.521 176.728 161.541ZM174.033 165.789C173.999 166.097 173.999 166.416 174.033 166.748C174.082 167.325 174.252 167.784 174.545 168.125C174.843 168.467 175.239 168.645 175.732 168.66C176.171 168.675 176.577 168.567 176.948 168.338C177.319 168.103 177.631 167.752 177.885 167.283C178.139 166.814 178.303 166.294 178.376 165.723C178.415 165.274 178.422 164.895 178.398 164.588C178.339 163.997 178.161 163.531 177.863 163.189C177.565 162.847 177.17 162.666 176.677 162.647C175.993 162.632 175.412 162.901 174.934 163.452C174.455 164.004 174.16 164.727 174.047 165.62L174.033 165.789ZM184.052 168.66C184.526 168.67 184.953 168.533 185.334 168.25C185.715 167.962 185.964 167.586 186.081 167.122L187.333 167.115C187.26 167.613 187.06 168.067 186.733 168.477C186.411 168.887 186.003 169.207 185.51 169.436C185.017 169.666 184.511 169.773 183.994 169.759C183.334 169.749 182.775 169.578 182.316 169.246C181.862 168.909 181.528 168.443 181.313 167.847C181.098 167.246 181.025 166.573 181.093 165.826L181.13 165.459C181.223 164.698 181.445 164.016 181.796 163.416C182.148 162.815 182.607 162.349 183.173 162.017C183.74 161.68 184.365 161.521 185.048 161.541C185.878 161.56 186.542 161.839 187.04 162.376C187.539 162.913 187.788 163.594 187.788 164.419L186.55 164.412C186.54 163.894 186.396 163.477 186.118 163.16C185.839 162.837 185.463 162.666 184.99 162.647C184.301 162.632 183.728 162.889 183.269 163.416C182.814 163.943 182.531 164.681 182.419 165.628L182.397 165.818C182.368 166.131 182.363 166.453 182.382 166.785C182.416 167.356 182.578 167.808 182.866 168.14C183.154 168.472 183.549 168.645 184.052 168.66ZM189.831 169.612H188.513L189.89 161.687H191.208L189.831 169.612ZM190.922 158.794C191.147 158.785 191.332 158.853 191.479 158.999C191.63 159.141 191.706 159.329 191.706 159.563C191.701 159.793 191.625 159.981 191.479 160.127C191.337 160.274 191.152 160.352 190.922 160.362C190.693 160.371 190.505 160.306 190.358 160.164C190.212 160.022 190.141 159.837 190.146 159.607C190.151 159.378 190.224 159.187 190.366 159.036C190.507 158.885 190.693 158.804 190.922 158.794ZM195.427 169.759C194.44 169.739 193.669 169.375 193.112 168.667C192.556 167.959 192.321 167.054 192.409 165.95L192.446 165.635C192.529 164.849 192.761 164.131 193.142 163.482C193.527 162.832 193.996 162.344 194.548 162.017C195.1 161.685 195.695 161.526 196.335 161.541C197.15 161.56 197.79 161.831 198.254 162.354C198.718 162.876 198.972 163.584 199.016 164.478C199.03 164.795 199.02 165.113 198.986 165.43L198.906 166.038H193.728C193.64 166.756 193.757 167.366 194.079 167.869C194.406 168.372 194.892 168.633 195.537 168.653C196.318 168.672 197.04 168.321 197.705 167.598L198.466 168.243C198.134 168.721 197.705 169.097 197.177 169.37C196.655 169.639 196.071 169.768 195.427 169.759ZM196.269 162.647C195.722 162.632 195.244 162.818 194.833 163.203C194.428 163.589 194.106 164.163 193.867 164.925L197.719 164.932L197.749 164.815C197.827 164.2 197.727 163.689 197.448 163.284C197.175 162.874 196.782 162.661 196.269 162.647ZM203.278 159.768L202.941 161.687H204.384L204.201 162.735H202.766L201.938 167.664C201.923 167.791 201.921 167.908 201.931 168.015C201.965 168.396 202.172 168.587 202.553 168.587C202.714 168.587 202.929 168.562 203.198 168.514L203.095 169.619C202.778 169.707 202.456 169.751 202.128 169.751C201.601 169.742 201.206 169.549 200.942 169.173C200.678 168.792 200.576 168.282 200.634 167.642L201.44 162.735H200.041L200.224 161.687H201.623L201.96 159.768H203.278ZM209.46 169.612C209.426 169.471 209.409 169.331 209.409 169.195L209.431 168.777C208.703 169.451 207.932 169.778 207.116 169.759C206.418 169.749 205.849 169.529 205.41 169.099C204.975 168.665 204.777 168.123 204.816 167.473C204.865 166.634 205.231 165.979 205.915 165.511C206.603 165.037 207.507 164.8 208.625 164.8L210.009 164.807L210.097 164.178C210.146 163.704 210.053 163.33 209.819 163.057C209.589 162.779 209.243 162.635 208.779 162.625C208.325 162.615 207.922 162.727 207.57 162.962C207.224 163.191 207.011 163.496 206.933 163.877L205.6 163.885C205.644 163.421 205.825 163.011 206.142 162.654C206.459 162.293 206.867 162.014 207.365 161.819C207.863 161.619 208.378 161.524 208.911 161.534C209.736 161.553 210.378 161.805 210.837 162.288C211.296 162.766 211.489 163.404 211.415 164.2L210.771 168.125L210.734 168.689C210.725 168.958 210.754 169.224 210.822 169.488L210.808 169.612H209.46ZM207.38 168.587C207.805 168.597 208.205 168.496 208.581 168.286C208.962 168.072 209.289 167.776 209.562 167.4L209.848 165.767L208.845 165.76C208.01 165.76 207.37 165.891 206.926 166.155C206.481 166.419 206.23 166.792 206.171 167.276C206.127 167.647 206.213 167.957 206.428 168.206C206.647 168.45 206.965 168.577 207.38 168.587ZM214.045 169.612H212.727L214.675 158.362H216L214.045 169.612ZM170.817 187.612H169.499L170.876 179.687H172.194L170.817 187.612ZM171.909 176.794C172.133 176.785 172.319 176.853 172.465 176.999C172.617 177.141 172.692 177.329 172.692 177.563C172.687 177.793 172.612 177.981 172.465 178.127C172.324 178.274 172.138 178.352 171.909 178.362C171.679 178.371 171.491 178.306 171.345 178.164C171.198 178.022 171.127 177.837 171.132 177.607C171.137 177.378 171.21 177.187 171.352 177.036C171.494 176.885 171.679 176.804 171.909 176.794ZM177.893 185.466C177.966 184.919 177.665 184.534 176.992 184.309L175.615 183.906C174.453 183.506 173.891 182.842 173.93 181.914C173.964 181.216 174.282 180.644 174.882 180.2C175.488 179.751 176.198 179.531 177.014 179.541C177.814 179.551 178.464 179.785 178.962 180.244C179.465 180.698 179.707 181.291 179.687 182.024L178.369 182.016C178.378 181.621 178.254 181.299 177.995 181.05C177.736 180.801 177.392 180.671 176.962 180.661C176.503 180.652 176.108 180.764 175.776 180.998C175.468 181.218 175.29 181.506 175.241 181.863C175.178 182.322 175.458 182.656 176.083 182.866L176.75 183.049C177.658 183.284 178.303 183.589 178.684 183.965C179.064 184.341 179.24 184.807 179.211 185.364C179.182 185.857 179.02 186.286 178.728 186.653C178.435 187.019 178.044 187.3 177.556 187.495C177.067 187.685 176.547 187.773 175.996 187.759C175.156 187.749 174.462 187.505 173.915 187.026C173.369 186.543 173.105 185.923 173.124 185.166L174.45 185.173C174.45 185.618 174.592 185.974 174.875 186.243C175.158 186.511 175.546 186.645 176.04 186.645C176.523 186.655 176.94 186.555 177.292 186.345C177.644 186.13 177.844 185.837 177.893 185.466ZM185.466 185.466C185.539 184.919 185.239 184.534 184.565 184.309L183.188 183.906C182.026 183.506 181.464 182.842 181.503 181.914C181.538 181.216 181.855 180.644 182.456 180.2C183.061 179.751 183.771 179.531 184.587 179.541C185.388 179.551 186.037 179.785 186.535 180.244C187.038 180.698 187.28 181.291 187.26 182.024L185.942 182.016C185.952 181.621 185.827 181.299 185.568 181.05C185.31 180.801 184.965 180.671 184.536 180.661C184.077 180.652 183.681 180.764 183.349 180.998C183.041 181.218 182.863 181.506 182.814 181.863C182.751 182.322 183.032 182.656 183.657 182.866L184.323 183.049C185.231 183.284 185.876 183.589 186.257 183.965C186.638 184.341 186.813 184.807 186.784 185.364C186.755 185.857 186.594 186.286 186.301 186.653C186.008 187.019 185.617 187.3 185.129 187.495C184.641 187.685 184.121 187.773 183.569 187.759C182.729 187.749 182.036 187.505 181.489 187.026C180.942 186.543 180.678 185.923 180.698 185.166L182.023 185.173C182.023 185.618 182.165 185.974 182.448 186.243C182.731 186.511 183.12 186.645 183.613 186.645C184.096 186.655 184.514 186.555 184.865 186.345C185.217 186.13 185.417 185.837 185.466 185.466ZM193.164 186.828C192.543 187.468 191.755 187.778 190.798 187.759C190.041 187.739 189.479 187.468 189.113 186.946C188.752 186.423 188.618 185.71 188.71 184.807L189.56 179.687H190.886L190.029 184.829C190.004 185.044 189.999 185.254 190.014 185.459C190.039 185.81 190.144 186.086 190.329 186.286C190.515 186.487 190.773 186.594 191.105 186.609C192.053 186.638 192.785 186.255 193.303 185.459L194.299 179.687H195.624L194.248 187.612H192.995L193.164 186.828ZM199.66 187.759C198.674 187.739 197.902 187.375 197.346 186.667C196.789 185.959 196.555 185.054 196.643 183.95L196.679 183.635C196.762 182.849 196.994 182.131 197.375 181.482C197.761 180.832 198.229 180.344 198.781 180.017C199.333 179.685 199.929 179.526 200.568 179.541C201.384 179.56 202.023 179.831 202.487 180.354C202.951 180.876 203.205 181.584 203.249 182.478C203.264 182.795 203.254 183.113 203.22 183.43L203.139 184.038H197.961C197.873 184.756 197.99 185.366 198.312 185.869C198.64 186.372 199.125 186.633 199.77 186.653C200.551 186.672 201.274 186.321 201.938 185.598L202.7 186.243C202.368 186.721 201.938 187.097 201.411 187.37C200.888 187.639 200.305 187.768 199.66 187.759ZM200.502 180.647C199.956 180.632 199.477 180.818 199.067 181.203C198.662 181.589 198.339 182.163 198.1 182.925L201.953 182.932L201.982 182.815C202.06 182.2 201.96 181.689 201.682 181.284C201.408 180.874 201.015 180.661 200.502 180.647ZM208.918 185.466C208.991 184.919 208.691 184.534 208.017 184.309L206.64 183.906C205.478 183.506 204.916 182.842 204.956 181.914C204.99 181.216 205.307 180.644 205.908 180.2C206.513 179.751 207.224 179.531 208.039 179.541C208.84 179.551 209.489 179.785 209.987 180.244C210.49 180.698 210.732 181.291 210.712 182.024L209.394 182.016C209.404 181.621 209.279 181.299 209.02 181.05C208.762 180.801 208.417 180.671 207.988 180.661C207.529 180.652 207.133 180.764 206.801 180.998C206.494 181.218 206.315 181.506 206.267 181.863C206.203 182.322 206.484 182.656 207.109 182.866L207.775 183.049C208.684 183.284 209.328 183.589 209.709 183.965C210.09 184.341 210.266 184.807 210.236 185.364C210.207 185.857 210.046 186.286 209.753 186.653C209.46 187.019 209.069 187.3 208.581 187.495C208.093 187.685 207.573 187.773 207.021 187.759C206.181 187.749 205.488 187.505 204.941 187.026C204.394 186.543 204.13 185.923 204.15 185.166L205.476 185.173C205.476 185.618 205.617 185.974 205.9 186.243C206.184 186.511 206.572 186.645 207.065 186.645C207.548 186.655 207.966 186.555 208.317 186.345C208.669 186.13 208.869 185.837 208.918 185.466Z" fill="black"/>
<path d="M70.6159 119.37C71.0895 119.38 71.5168 119.243 71.8976 118.96C72.2785 118.672 72.5275 118.296 72.6447 117.832L73.8972 117.825C73.8239 118.323 73.6237 118.777 73.2966 119.187C72.9743 119.597 72.5666 119.917 72.0734 120.147C71.5803 120.376 71.0749 120.483 70.5573 120.469C69.8981 120.459 69.3391 120.288 68.8801 119.956C68.426 119.619 68.0915 119.153 67.8766 118.557C67.6618 117.957 67.5886 117.283 67.6569 116.536L67.6935 116.169C67.7863 115.408 68.0085 114.727 68.36 114.126C68.7116 113.525 69.1706 113.059 69.737 112.727C70.3034 112.39 70.9284 112.231 71.612 112.251C72.4421 112.271 73.1061 112.549 73.6042 113.086C74.1022 113.623 74.3513 114.304 74.3513 115.129L73.1135 115.122C73.1037 114.605 72.9597 114.187 72.6813 113.87C72.403 113.547 72.027 113.376 71.5534 113.357C70.8649 113.342 70.2912 113.599 69.8322 114.126C69.3781 114.653 69.0949 115.391 68.9826 116.338L68.9606 116.528C68.9313 116.841 68.9265 117.163 68.946 117.495C68.9802 118.066 69.1413 118.518 69.4294 118.85C69.7175 119.182 70.113 119.355 70.6159 119.37ZM79.361 112.251C80.0251 112.261 80.5939 112.441 81.0676 112.793C81.5412 113.145 81.8903 113.63 82.1149 114.251C82.3444 114.866 82.4225 115.54 82.3493 116.272L82.3347 116.433C82.2419 117.205 82.0124 117.903 81.6462 118.528C81.28 119.148 80.8063 119.631 80.2253 119.978C79.6442 120.325 79.007 120.488 78.3137 120.469C77.6545 120.459 77.0856 120.278 76.6071 119.927C76.1335 119.575 75.7868 119.097 75.5671 118.491C75.3474 117.886 75.2692 117.219 75.3327 116.492C75.4059 115.671 75.6281 114.934 75.9992 114.28C76.3703 113.626 76.8464 113.12 77.4274 112.764C78.0134 112.402 78.6579 112.231 79.361 112.251ZM76.6657 116.499C76.6315 116.807 76.6315 117.126 76.6657 117.459C76.7145 118.035 76.8854 118.494 77.1784 118.835C77.4763 119.177 77.8718 119.355 78.3649 119.37C78.8044 119.385 79.2097 119.277 79.5807 119.048C79.9518 118.814 80.2643 118.462 80.5182 117.993C80.7722 117.524 80.9357 117.004 81.009 116.433C81.048 115.984 81.0554 115.605 81.0309 115.298C80.9724 114.707 80.7941 114.241 80.4963 113.899C80.1984 113.557 79.8029 113.376 79.3098 113.357C78.6262 113.342 78.0451 113.611 77.5666 114.163C77.0881 114.714 76.7927 115.437 76.6804 116.331L76.6657 116.499ZM83.7189 116.345C83.8166 115.54 84.0388 114.812 84.3854 114.163C84.7321 113.513 85.1594 113.027 85.6672 112.705C86.175 112.383 86.7341 112.229 87.3444 112.244C88.2282 112.263 88.9069 112.585 89.3806 113.21L90.1423 109.072H91.468L89.5197 120.322H88.3112L88.4504 119.473C87.8254 120.156 87.0539 120.488 86.1359 120.469C85.4035 120.449 84.82 120.164 84.3854 119.612C83.9509 119.055 83.7165 118.311 83.6823 117.378C83.6677 117.09 83.6799 116.746 83.7189 116.345ZM84.9933 117.107C84.9787 117.805 85.1032 118.347 85.3669 118.733C85.6306 119.119 86.0163 119.316 86.5241 119.326C87.2907 119.36 87.9719 118.975 88.5676 118.169L89.1974 114.507C88.9045 113.784 88.3723 113.413 87.6008 113.394C87.0783 113.379 86.6169 113.538 86.2165 113.87C85.821 114.197 85.5182 114.658 85.3083 115.254C85.1032 115.845 84.9982 116.462 84.9933 117.107ZM93.05 120.322H91.7316L93.1086 112.397H94.4269L93.05 120.322ZM94.1413 109.504C94.3659 109.495 94.5515 109.563 94.6979 109.71C94.8493 109.851 94.925 110.039 94.925 110.273C94.9201 110.503 94.8444 110.691 94.6979 110.837C94.5563 110.984 94.3708 111.062 94.1413 111.072C93.9118 111.082 93.7238 111.016 93.5773 110.874C93.4308 110.732 93.36 110.547 93.3649 110.317C93.3698 110.088 93.4431 109.897 93.5847 109.746C93.7263 109.595 93.9118 109.514 94.1413 109.504ZM97.8474 112.39L97.6569 113.394C98.3698 112.612 99.1804 112.231 100.089 112.251C100.836 112.271 101.387 112.529 101.744 113.027C102.1 113.525 102.232 114.226 102.139 115.129L101.275 120.322H99.9494L100.821 115.107C100.85 114.868 100.853 114.646 100.828 114.441C100.745 113.757 100.342 113.408 99.6198 113.394C98.8239 113.379 98.1257 113.804 97.5251 114.668L96.5436 120.322H95.218L96.5949 112.397L97.8474 112.39ZM103.707 116.345C103.824 115.481 104.056 114.731 104.403 114.097C104.754 113.457 105.179 112.986 105.677 112.683C106.18 112.376 106.729 112.229 107.325 112.244C108.243 112.263 108.936 112.61 109.405 113.284L109.669 112.397H110.884L109.566 120.154C109.424 121.165 109.014 121.973 108.336 122.578C107.657 123.189 106.82 123.479 105.823 123.45C105.286 123.44 104.771 123.313 104.278 123.069C103.79 122.825 103.404 122.49 103.121 122.065L103.875 121.252C104.354 121.96 104.986 122.324 105.772 122.344C106.402 122.363 106.934 122.188 107.369 121.816C107.808 121.445 108.099 120.918 108.24 120.234L108.387 119.531C107.742 120.176 106.988 120.488 106.124 120.469C105.631 120.454 105.201 120.322 104.835 120.073C104.473 119.819 104.193 119.456 103.992 118.982C103.792 118.503 103.682 117.971 103.663 117.385C103.653 117.097 103.668 116.751 103.707 116.345ZM104.988 117.1C104.974 117.798 105.093 118.34 105.347 118.726C105.606 119.106 105.994 119.307 106.512 119.326C107.303 119.346 107.984 118.958 108.555 118.162L109.178 114.522C108.885 113.799 108.355 113.423 107.589 113.394C106.871 113.374 106.28 113.667 105.816 114.272C105.357 114.878 105.086 115.696 105.003 116.726L104.988 117.1ZM115.389 121.238H114.188L120.516 109.658H121.71L115.389 121.238ZM59.5563 138.469C58.57 138.449 57.7985 138.085 57.2419 137.377C56.6852 136.669 56.4509 135.764 56.5388 134.66L56.5754 134.345C56.6584 133.559 56.8903 132.841 57.2712 132.192C57.6569 131.543 58.1257 131.054 58.6774 130.727C59.2292 130.395 59.8249 130.236 60.4645 130.251C61.28 130.271 61.9196 130.542 62.3835 131.064C62.8474 131.586 63.1013 132.294 63.1452 133.188C63.1599 133.505 63.1501 133.823 63.1159 134.14L63.0353 134.748H57.8571C57.7692 135.466 57.8864 136.076 58.2087 136.579C58.5358 137.082 59.0217 137.343 59.6662 137.363C60.4474 137.382 61.1701 137.031 61.8342 136.308L62.5959 136.953C62.2639 137.431 61.8342 137.807 61.3068 138.081C60.7844 138.349 60.2009 138.479 59.5563 138.469ZM60.3986 131.357C59.8517 131.342 59.3732 131.528 58.9631 131.914C58.5578 132.299 58.2355 132.873 57.9963 133.635L61.8488 133.642L61.8781 133.525C61.9562 132.91 61.8561 132.399 61.5778 131.994C61.3044 131.584 60.9113 131.372 60.3986 131.357ZM66.5363 130.39L66.3459 131.394C67.0588 130.612 67.8693 130.231 68.7775 130.251C69.5246 130.271 70.0764 130.529 70.4328 131.027C70.7892 131.525 70.9211 132.226 70.8283 133.129L69.9641 138.322H68.6384L69.5099 133.107C69.5392 132.868 69.5417 132.646 69.5173 132.441C69.4343 131.757 69.0314 131.408 68.3088 131.394C67.5129 131.379 66.8146 131.804 66.2141 132.668L65.2326 138.322H63.9069L65.2839 130.397L66.5363 130.39ZM72.3957 134.345C72.5129 133.481 72.7448 132.731 73.0915 132.097C73.4431 131.457 73.8679 130.986 74.3659 130.683C74.8688 130.376 75.4182 130.229 76.0139 130.244C76.9318 130.263 77.6252 130.61 78.0939 131.284L78.3576 130.397H79.5734L78.2551 138.154C78.1135 139.165 77.7033 139.973 77.0246 140.578C76.3459 141.189 75.5085 141.479 74.5124 141.45C73.9753 141.44 73.4601 141.313 72.967 141.069C72.4787 140.825 72.093 140.49 71.8098 140.065L72.5641 139.252C73.0427 139.96 73.675 140.324 74.4611 140.344C75.091 140.363 75.6232 140.188 76.0578 139.816C76.4973 139.445 76.7878 138.918 76.9294 138.234L77.0759 137.531C76.4313 138.176 75.6769 138.488 74.8127 138.469C74.3195 138.454 73.8898 138.322 73.5236 138.073C73.1623 137.819 72.8815 137.456 72.6813 136.982C72.4811 136.503 72.3713 135.971 72.3517 135.385C72.342 135.097 72.3566 134.751 72.3957 134.345ZM73.6774 135.1C73.6628 135.798 73.7824 136.34 74.0363 136.726C74.2951 137.106 74.6833 137.307 75.2009 137.326C75.9919 137.346 76.673 136.958 77.2443 136.162L77.8669 132.522C77.5739 131.799 77.0441 131.423 76.2775 131.394C75.5598 131.374 74.9689 131.667 74.5051 132.272C74.0461 132.878 73.7751 133.696 73.6921 134.726L73.6774 135.1ZM81.6901 138.322H80.3718L81.7487 130.397H83.0671L81.6901 138.322ZM82.7814 127.504C83.006 127.495 83.1916 127.563 83.3381 127.71C83.4894 127.851 83.5651 128.039 83.5651 128.273C83.5602 128.503 83.4846 128.691 83.3381 128.837C83.1965 128.984 83.0109 129.062 82.7814 129.072C82.5519 129.082 82.364 129.016 82.2175 128.874C82.071 128.732 82.0002 128.547 82.0051 128.317C82.0099 128.088 82.0832 127.897 82.2248 127.746C82.3664 127.595 82.5519 127.514 82.7814 127.504ZM86.4875 130.39L86.2971 131.394C87.0099 130.612 87.8205 130.231 88.7287 130.251C89.4758 130.271 90.0275 130.529 90.384 131.027C90.7404 131.525 90.8723 132.226 90.7795 133.129L89.9152 138.322H88.5895L89.4611 133.107C89.4904 132.868 89.4929 132.646 89.4684 132.441C89.3854 131.757 88.9826 131.408 88.2599 131.394C87.4641 131.379 86.7658 131.804 86.1652 132.668L85.1838 138.322H83.8581L85.235 130.397L86.4875 130.39ZM95.3864 138.469C94.4001 138.449 93.6286 138.085 93.072 137.377C92.5153 136.669 92.2809 135.764 92.3688 134.66L92.4055 134.345C92.4885 133.559 92.7204 132.841 93.1013 132.192C93.487 131.543 93.9557 131.054 94.5075 130.727C95.0593 130.395 95.655 130.236 96.2946 130.251C97.11 130.271 97.7497 130.542 98.2136 131.064C98.6774 131.586 98.9313 132.294 98.9753 133.188C98.9899 133.505 98.9802 133.823 98.946 134.14L98.8654 134.748H93.6872C93.5993 135.466 93.7165 136.076 94.0388 136.579C94.3659 137.082 94.8517 137.343 95.4963 137.363C96.2775 137.382 97.0002 137.031 97.6642 136.308L98.426 136.953C98.0939 137.431 97.6642 137.807 97.1369 138.081C96.6144 138.349 96.0309 138.479 95.3864 138.469ZM96.2287 131.357C95.6818 131.342 95.2033 131.528 94.7932 131.914C94.3879 132.299 94.0656 132.873 93.8264 133.635L97.6789 133.642L97.7082 133.525C97.7863 132.91 97.6862 132.399 97.4079 131.994C97.1345 131.584 96.7414 131.372 96.2287 131.357ZM103.165 138.469C102.178 138.449 101.407 138.085 100.85 137.377C100.294 136.669 100.059 135.764 100.147 134.66L100.184 134.345C100.267 133.559 100.499 132.841 100.88 132.192C101.265 131.543 101.734 131.054 102.286 130.727C102.838 130.395 103.433 130.236 104.073 130.251C104.888 130.271 105.528 130.542 105.992 131.064C106.456 131.586 106.71 132.294 106.754 133.188C106.768 133.505 106.758 133.823 106.724 134.14L106.644 134.748H101.466C101.378 135.466 101.495 136.076 101.817 136.579C102.144 137.082 102.63 137.343 103.275 137.363C104.056 137.382 104.779 137.031 105.443 136.308L106.204 136.953C105.872 137.431 105.443 137.807 104.915 138.081C104.393 138.349 103.809 138.479 103.165 138.469ZM104.007 131.357C103.46 131.342 102.982 131.528 102.571 131.914C102.166 132.299 101.844 132.873 101.605 133.635L105.457 133.642L105.487 133.525C105.565 132.91 105.465 132.399 105.186 131.994C104.913 131.584 104.52 131.372 104.007 131.357ZM112.445 131.606L111.822 131.54C110.972 131.54 110.303 131.923 109.815 132.69L108.841 138.322H107.515L108.892 130.397L110.174 130.39L109.976 131.313C110.538 130.576 111.199 130.217 111.961 130.236C112.122 130.236 112.332 130.273 112.591 130.346L112.445 131.606ZM113.946 138.322H112.628L114.005 130.397H115.323L113.946 138.322ZM115.037 127.504C115.262 127.495 115.447 127.563 115.594 127.71C115.745 127.851 115.821 128.039 115.821 128.273C115.816 128.503 115.74 128.691 115.594 128.837C115.452 128.984 115.267 129.062 115.037 129.072C114.808 129.082 114.62 129.016 114.473 128.874C114.327 128.732 114.256 128.547 114.261 128.317C114.266 128.088 114.339 127.897 114.481 127.746C114.622 127.595 114.808 127.514 115.037 127.504ZM118.743 130.39L118.553 131.394C119.266 130.612 120.076 130.231 120.985 130.251C121.732 130.271 122.283 130.529 122.64 131.027C122.996 131.525 123.128 132.226 123.035 133.129L122.171 138.322H120.845L121.717 133.107C121.746 132.868 121.749 132.646 121.724 132.441C121.641 131.757 121.238 131.408 120.516 131.394C119.72 131.379 119.022 131.804 118.421 132.668L117.44 138.322H116.114L117.491 130.397L118.743 130.39ZM124.603 134.345C124.72 133.481 124.952 132.731 125.299 132.097C125.65 131.457 126.075 130.986 126.573 130.683C127.076 130.376 127.625 130.229 128.221 130.244C129.139 130.263 129.832 130.61 130.301 131.284L130.565 130.397H131.78L130.462 138.154C130.32 139.165 129.91 139.973 129.232 140.578C128.553 141.189 127.716 141.479 126.719 141.45C126.182 141.44 125.667 141.313 125.174 141.069C124.686 140.825 124.3 140.49 124.017 140.065L124.771 139.252C125.25 139.96 125.882 140.324 126.668 140.344C127.298 140.363 127.83 140.188 128.265 139.816C128.704 139.445 128.995 138.918 129.136 138.234L129.283 137.531C128.638 138.176 127.884 138.488 127.02 138.469C126.527 138.454 126.097 138.322 125.731 138.073C125.369 137.819 125.089 137.456 124.888 136.982C124.688 136.503 124.578 135.971 124.559 135.385C124.549 135.097 124.564 134.751 124.603 134.345ZM125.884 135.1C125.87 135.798 125.989 136.34 126.243 136.726C126.502 137.106 126.89 137.307 127.408 137.326C128.199 137.346 128.88 136.958 129.451 136.162L130.074 132.522C129.781 131.799 129.251 131.423 128.485 131.394C127.767 131.374 127.176 131.667 126.712 132.272C126.253 132.878 125.982 133.696 125.899 134.726L125.884 135.1Z" fill="black"/>
<g clip-path="url(#clip0)">
<path d="M238.74 276.52C229.642 269.314 216.112 270.611 207.761 278.619L204.491 281.751L201.22 278.619C192.886 270.611 179.34 269.314 170.242 276.52C159.816 284.79 159.268 299.634 168.598 308.598L200.722 339.427C202.798 341.417 206.168 341.417 208.243 339.427L240.367 308.598C249.714 299.634 249.166 284.79 238.74 276.52V276.52Z" fill="#F0C3FF"/>
<path d="M196.669 293.475C196.742 292.928 196.442 292.542 195.768 292.317L194.391 291.915C193.229 291.514 192.667 290.85 192.706 289.922C192.74 289.224 193.058 288.653 193.658 288.209C194.264 287.759 194.974 287.54 195.79 287.549C196.591 287.559 197.24 287.793 197.738 288.252C198.241 288.707 198.483 289.3 198.463 290.032L197.145 290.025C197.155 289.629 197.03 289.307 196.771 289.058C196.512 288.809 196.168 288.68 195.738 288.67C195.28 288.66 194.884 288.772 194.552 289.007C194.244 289.227 194.066 289.515 194.017 289.871C193.954 290.33 194.235 290.665 194.86 290.875L195.526 291.058C196.434 291.292 197.079 291.597 197.46 291.973C197.841 292.349 198.016 292.815 197.987 293.372C197.958 293.865 197.797 294.295 197.504 294.661C197.211 295.027 196.82 295.308 196.332 295.503C195.843 295.694 195.323 295.782 194.772 295.767C193.932 295.757 193.238 295.513 192.692 295.035C192.145 294.551 191.881 293.931 191.901 293.174L193.226 293.182C193.226 293.626 193.368 293.982 193.651 294.251C193.934 294.52 194.322 294.654 194.816 294.654C195.299 294.664 195.717 294.563 196.068 294.354C196.42 294.139 196.62 293.846 196.669 293.475ZM203.737 287.549C204.401 287.559 204.969 287.74 205.443 288.091C205.917 288.443 206.266 288.929 206.49 289.549C206.72 290.164 206.798 290.838 206.725 291.57L206.71 291.731C206.617 292.503 206.388 293.201 206.022 293.826C205.655 294.446 205.182 294.93 204.601 295.276C204.02 295.623 203.383 295.787 202.689 295.767C202.03 295.757 201.461 295.577 200.983 295.225C200.509 294.874 200.162 294.395 199.943 293.79C199.723 293.184 199.645 292.518 199.708 291.79C199.781 290.97 200.004 290.232 200.375 289.578C200.746 288.924 201.222 288.418 201.803 288.062C202.389 287.701 203.033 287.53 203.737 287.549ZM201.041 291.797C201.007 292.105 201.007 292.425 201.041 292.757C201.09 293.333 201.261 293.792 201.554 294.134C201.852 294.476 202.247 294.654 202.74 294.668C203.18 294.683 203.585 294.576 203.956 294.346C204.327 294.112 204.64 293.76 204.894 293.292C205.148 292.823 205.311 292.303 205.384 291.731C205.424 291.282 205.431 290.904 205.406 290.596C205.348 290.005 205.17 289.539 204.872 289.197C204.574 288.855 204.178 288.675 203.685 288.655C203.002 288.641 202.421 288.909 201.942 289.461C201.464 290.013 201.168 290.735 201.056 291.629L201.041 291.797ZM208.358 295.621L209.559 288.743H208.336L208.519 287.696H209.735L209.867 286.758C209.994 285.962 210.301 285.34 210.79 284.891C211.302 284.422 211.957 284.192 212.753 284.202C213.002 284.202 213.317 284.244 213.697 284.327L213.536 285.433C213.302 285.384 213.065 285.355 212.826 285.345C212.367 285.345 211.993 285.489 211.705 285.777C211.422 286.06 211.246 286.438 211.178 286.912L211.061 287.696H212.701L212.518 288.743H210.878L209.684 295.621H208.358ZM216.342 285.777L216.005 287.696H217.447L217.264 288.743H215.829L215.001 293.672C214.987 293.799 214.984 293.917 214.994 294.024C215.028 294.405 215.236 294.595 215.616 294.595C215.778 294.595 215.992 294.571 216.261 294.522L216.158 295.628C215.841 295.716 215.519 295.76 215.192 295.76C214.664 295.75 214.269 295.557 214.005 295.181C213.741 294.8 213.639 294.29 213.697 293.65L214.503 288.743H213.104L213.287 287.696H214.686L215.023 285.777H216.342ZM179.545 313.621L180.746 306.743H179.523L179.706 305.696H180.922L181.053 304.758C181.18 303.962 181.488 303.34 181.976 302.891C182.489 302.422 183.143 302.192 183.939 302.202C184.188 302.202 184.503 302.244 184.884 302.327L184.723 303.433C184.488 303.384 184.252 303.355 184.012 303.345C183.553 303.345 183.18 303.489 182.892 303.777C182.609 304.06 182.433 304.438 182.364 304.912L182.247 305.696H183.888L183.705 306.743H182.064L180.87 313.621H179.545ZM187.279 313.767C186.293 313.748 185.521 313.384 184.965 312.676C184.408 311.968 184.174 311.062 184.261 309.959L184.298 309.644C184.381 308.857 184.613 308.14 184.994 307.49C185.38 306.841 185.848 306.353 186.4 306.025C186.952 305.693 187.548 305.535 188.187 305.549C189.003 305.569 189.642 305.84 190.106 306.362C190.57 306.885 190.824 307.593 190.868 308.486C190.883 308.804 190.873 309.121 190.839 309.438L190.758 310.046H185.58C185.492 310.764 185.609 311.375 185.931 311.877C186.259 312.38 186.744 312.642 187.389 312.661C188.17 312.681 188.893 312.329 189.557 311.606L190.319 312.251C189.987 312.73 189.557 313.105 189.03 313.379C188.507 313.647 187.924 313.777 187.279 313.767ZM188.121 306.655C187.574 306.641 187.096 306.826 186.686 307.212C186.28 307.598 185.958 308.171 185.719 308.933L189.571 308.94L189.601 308.823C189.679 308.208 189.579 307.698 189.3 307.292C189.027 306.882 188.634 306.67 188.121 306.655ZM195.057 313.767C194.071 313.748 193.3 313.384 192.743 312.676C192.186 311.968 191.952 311.062 192.04 309.959L192.076 309.644C192.159 308.857 192.391 308.14 192.772 307.49C193.158 306.841 193.627 306.353 194.178 306.025C194.73 305.693 195.326 305.535 195.966 305.549C196.781 305.569 197.421 305.84 197.884 306.362C198.348 306.885 198.602 307.593 198.646 308.486C198.661 308.804 198.651 309.121 198.617 309.438L198.536 310.046H193.358C193.27 310.764 193.387 311.375 193.71 311.877C194.037 312.38 194.523 312.642 195.167 312.661C195.948 312.681 196.671 312.329 197.335 311.606L198.097 312.251C197.765 312.73 197.335 313.105 196.808 313.379C196.285 313.647 195.702 313.777 195.057 313.767ZM195.9 306.655C195.353 306.641 194.874 306.826 194.464 307.212C194.059 307.598 193.737 308.171 193.497 308.933L197.35 308.94L197.379 308.823C197.457 308.208 197.357 307.698 197.079 307.292C196.805 306.882 196.412 306.67 195.9 306.655ZM200.843 313.621H199.525L201.473 302.371H202.799L200.843 313.621ZM204.447 313.621H203.129L204.506 305.696H205.824L204.447 313.621ZM205.538 302.803C205.763 302.793 205.948 302.861 206.095 303.008C206.246 303.149 206.322 303.337 206.322 303.572C206.317 303.801 206.241 303.989 206.095 304.136C205.953 304.282 205.768 304.36 205.538 304.37C205.309 304.38 205.121 304.314 204.974 304.172C204.828 304.031 204.757 303.845 204.762 303.616C204.767 303.386 204.84 303.196 204.982 303.044C205.123 302.893 205.309 302.813 205.538 302.803ZM209.244 305.688L209.054 306.692C209.767 305.911 210.577 305.53 211.486 305.549C212.233 305.569 212.784 305.828 213.141 306.326C213.497 306.824 213.629 307.524 213.536 308.428L212.672 313.621H211.346L212.218 308.406C212.247 308.167 212.25 307.944 212.225 307.739C212.142 307.056 211.739 306.707 211.017 306.692C210.221 306.677 209.523 307.102 208.922 307.966L207.941 313.621H206.615L207.992 305.696L209.244 305.688ZM215.104 309.644C215.221 308.779 215.453 308.03 215.8 307.395C216.151 306.755 216.576 306.284 217.074 305.981C217.577 305.674 218.126 305.527 218.722 305.542C219.64 305.562 220.333 305.908 220.802 306.582L221.066 305.696H222.281L220.963 313.452C220.821 314.463 220.411 315.271 219.733 315.876C219.054 316.487 218.217 316.777 217.22 316.748C216.683 316.738 216.168 316.611 215.675 316.367C215.187 316.123 214.801 315.789 214.518 315.364L215.272 314.551C215.751 315.259 216.383 315.623 217.169 315.642C217.799 315.662 218.331 315.486 218.766 315.115C219.205 314.744 219.496 314.216 219.637 313.533L219.784 312.83C219.139 313.474 218.385 313.787 217.521 313.767C217.028 313.752 216.598 313.621 216.232 313.372C215.87 313.118 215.59 312.754 215.389 312.28C215.189 311.802 215.079 311.27 215.06 310.684C215.05 310.396 215.065 310.049 215.104 309.644ZM216.385 310.398C216.371 311.096 216.49 311.638 216.744 312.024C217.003 312.405 217.391 312.605 217.909 312.625C218.7 312.644 219.381 312.256 219.952 311.46L220.575 307.82C220.282 307.097 219.752 306.721 218.986 306.692C218.268 306.672 217.677 306.965 217.213 307.571C216.754 308.176 216.483 308.994 216.4 310.024L216.385 310.398ZM227.87 311.475C227.943 310.928 227.643 310.542 226.969 310.317L225.592 309.915C224.43 309.514 223.868 308.85 223.907 307.922C223.942 307.224 224.259 306.653 224.86 306.209C225.465 305.759 226.175 305.54 226.991 305.549C227.792 305.559 228.441 305.793 228.939 306.252C229.442 306.707 229.684 307.3 229.664 308.032L228.346 308.025C228.356 307.629 228.231 307.307 227.972 307.058C227.714 306.809 227.369 306.68 226.94 306.67C226.481 306.66 226.085 306.772 225.753 307.007C225.446 307.227 225.267 307.515 225.218 307.871C225.155 308.33 225.436 308.665 226.061 308.875L226.727 309.058C227.635 309.292 228.28 309.597 228.661 309.973C229.042 310.349 229.217 310.815 229.188 311.372C229.159 311.865 228.998 312.295 228.705 312.661C228.412 313.027 228.021 313.308 227.533 313.503C227.045 313.694 226.525 313.782 225.973 313.767C225.133 313.757 224.44 313.513 223.893 313.035C223.346 312.551 223.082 311.931 223.102 311.174L224.427 311.182C224.427 311.626 224.569 311.982 224.852 312.251C225.135 312.52 225.524 312.654 226.017 312.654C226.5 312.664 226.918 312.563 227.269 312.354C227.621 312.139 227.821 311.846 227.87 311.475Z" fill="black"/>
</g>
<path d="M79.4045 306.33C79.3068 307.141 79.0847 307.871 78.738 308.52C78.3913 309.17 77.9714 309.651 77.4782 309.963C76.9851 310.276 76.4382 310.425 75.8376 310.41C74.8806 310.39 74.1701 310.032 73.7062 309.333L73.4352 310.256H72.2121L74.1677 299.006H75.4934L74.695 303.21C75.3298 302.507 76.1013 302.165 77.0095 302.185C77.7712 302.204 78.3644 302.485 78.7893 303.027C79.2141 303.569 79.4387 304.316 79.4631 305.268C79.468 305.581 79.4533 305.884 79.4191 306.177L79.4045 306.33ZM78.1447 305.561C78.1594 304.848 78.0397 304.304 77.7858 303.928C77.5319 303.547 77.1437 303.347 76.6213 303.327C75.7961 303.308 75.0978 303.723 74.5266 304.573L73.9333 308.022C74.2263 308.828 74.7756 309.241 75.5812 309.26C76.0988 309.28 76.5505 309.126 76.9362 308.799C77.3269 308.471 77.6223 308.015 77.8225 307.429C78.0227 306.838 78.1301 306.216 78.1447 305.561ZM84.861 302.185C85.5251 302.195 86.0939 302.375 86.5676 302.727C87.0412 303.078 87.3903 303.564 87.6149 304.184C87.8444 304.8 87.9226 305.473 87.8493 306.206L87.8347 306.367C87.7419 307.138 87.5124 307.837 87.1462 308.462C86.78 309.082 86.3063 309.565 85.7253 309.912C85.1442 310.259 84.507 310.422 83.8137 310.403C83.1545 310.393 82.5856 310.212 82.1071 309.861C81.6335 309.509 81.2868 309.031 81.0671 308.425C80.8474 307.82 80.7692 307.153 80.8327 306.426C80.906 305.605 81.1281 304.868 81.4992 304.214C81.8703 303.559 82.3464 303.054 82.9274 302.698C83.5134 302.336 84.1579 302.165 84.861 302.185ZM82.1657 306.433C82.1315 306.741 82.1315 307.06 82.1657 307.392C82.2145 307.969 82.3854 308.428 82.6784 308.769C82.9763 309.111 83.3718 309.289 83.8649 309.304C84.3044 309.319 84.7097 309.211 85.0808 308.982C85.4519 308.747 85.7644 308.396 86.0183 307.927C86.2722 307.458 86.4357 306.938 86.509 306.367C86.548 305.918 86.5554 305.539 86.531 305.232C86.4724 304.641 86.2941 304.175 85.9963 303.833C85.6984 303.491 85.3029 303.31 84.8098 303.291C84.1262 303.276 83.5451 303.545 83.0666 304.096C82.5881 304.648 82.2927 305.371 82.1804 306.264L82.1657 306.433ZM91.4675 302.324L91.277 303.327C91.9899 302.546 92.8005 302.165 93.7087 302.185C94.4558 302.204 95.0075 302.463 95.364 302.961C95.7204 303.459 95.8522 304.16 95.7595 305.063L94.8952 310.256H93.5695L94.4411 305.041C94.4704 304.802 94.4728 304.58 94.4484 304.375C94.3654 303.691 93.9626 303.342 93.2399 303.327C92.444 303.313 91.7458 303.738 91.1452 304.602L90.1638 310.256H88.8381L90.215 302.331L91.4675 302.324ZM100.366 310.403C99.3801 310.383 98.6086 310.019 98.0519 309.311C97.4953 308.603 97.2609 307.698 97.3488 306.594L97.3854 306.279C97.4685 305.493 97.7004 304.775 98.0812 304.126C98.467 303.476 98.9357 302.988 99.4875 302.661C100.039 302.329 100.635 302.17 101.275 302.185C102.09 302.204 102.73 302.475 103.194 302.998C103.657 303.52 103.911 304.228 103.955 305.122C103.97 305.439 103.96 305.757 103.926 306.074L103.845 306.682H98.6672C98.5793 307.4 98.6965 308.01 99.0187 308.513C99.3459 309.016 99.8317 309.277 100.476 309.297C101.258 309.316 101.98 308.965 102.644 308.242L103.406 308.887C103.074 309.365 102.644 309.741 102.117 310.014C101.594 310.283 101.011 310.412 100.366 310.403ZM101.209 303.291C100.662 303.276 100.183 303.462 99.7731 303.847C99.3679 304.233 99.0456 304.807 98.8063 305.569L102.659 305.576L102.688 305.459C102.766 304.844 102.666 304.333 102.388 303.928C102.114 303.518 101.721 303.305 101.209 303.291ZM109.624 308.11C109.697 307.563 109.397 307.178 108.723 306.953L107.346 306.55C106.184 306.15 105.623 305.486 105.662 304.558C105.696 303.86 106.013 303.288 106.614 302.844C107.219 302.395 107.93 302.175 108.745 302.185C109.546 302.195 110.196 302.429 110.694 302.888C111.196 303.342 111.438 303.935 111.419 304.668L110.1 304.66C110.11 304.265 109.986 303.943 109.727 303.694C109.468 303.445 109.124 303.315 108.694 303.305C108.235 303.296 107.84 303.408 107.508 303.642C107.2 303.862 107.022 304.15 106.973 304.507C106.909 304.966 107.19 305.3 107.815 305.51L108.482 305.693C109.39 305.928 110.034 306.233 110.415 306.609C110.796 306.985 110.972 307.451 110.943 308.008C110.913 308.501 110.752 308.93 110.459 309.297C110.166 309.663 109.776 309.944 109.287 310.139C108.799 310.329 108.279 310.417 107.727 310.403C106.887 310.393 106.194 310.149 105.647 309.67C105.1 309.187 104.837 308.567 104.856 307.81L106.182 307.817C106.182 308.262 106.323 308.618 106.607 308.887C106.89 309.155 107.278 309.289 107.771 309.289C108.255 309.299 108.672 309.199 109.024 308.989C109.375 308.774 109.575 308.481 109.624 308.11Z" fill="white"/>
<path d="M137.124 361.715C137.198 361.168 136.897 360.783 136.224 360.558L134.847 360.155C133.684 359.755 133.123 359.091 133.162 358.163C133.196 357.465 133.514 356.893 134.114 356.449C134.72 356 135.43 355.78 136.245 355.79C137.046 355.8 137.696 356.034 138.194 356.493C138.697 356.947 138.938 357.54 138.919 358.273L137.6 358.265C137.61 357.87 137.486 357.548 137.227 357.299C136.968 357.05 136.624 356.92 136.194 356.91C135.735 356.901 135.34 357.013 135.008 357.247C134.7 357.467 134.522 357.755 134.473 358.112C134.41 358.571 134.69 358.905 135.315 359.115L135.982 359.298C136.89 359.533 137.535 359.838 137.915 360.214C138.296 360.59 138.472 361.056 138.443 361.613C138.413 362.106 138.252 362.535 137.959 362.902C137.666 363.268 137.276 363.549 136.787 363.744C136.299 363.934 135.779 364.022 135.227 364.008C134.388 363.998 133.694 363.754 133.147 363.275C132.6 362.792 132.337 362.172 132.356 361.415L133.682 361.422C133.682 361.867 133.824 362.223 134.107 362.492C134.39 362.76 134.778 362.894 135.271 362.894C135.755 362.904 136.172 362.804 136.524 362.594C136.875 362.379 137.076 362.086 137.124 361.715ZM142.42 355.929L142.229 356.932C142.942 356.151 143.753 355.77 144.661 355.79C145.408 355.809 145.96 356.068 146.316 356.566C146.673 357.064 146.805 357.765 146.712 358.668L145.848 363.861H144.522L145.393 358.646C145.423 358.407 145.425 358.185 145.401 357.98C145.318 357.296 144.915 356.947 144.192 356.932C143.396 356.918 142.698 357.343 142.098 358.207L141.116 363.861H139.79L141.167 355.936L142.42 355.929ZM152.74 363.861C152.705 363.72 152.688 363.58 152.688 363.444L152.71 363.026C151.983 363.7 151.211 364.027 150.396 364.008C149.698 363.998 149.129 363.778 148.689 363.348C148.255 362.914 148.057 362.372 148.096 361.722C148.145 360.883 148.511 360.228 149.195 359.76C149.883 359.286 150.787 359.049 151.905 359.049L153.289 359.056L153.377 358.427C153.426 357.953 153.333 357.579 153.099 357.306C152.869 357.028 152.522 356.884 152.058 356.874C151.604 356.864 151.202 356.976 150.85 357.211C150.503 357.44 150.291 357.745 150.213 358.126L148.88 358.134C148.924 357.67 149.104 357.26 149.422 356.903C149.739 356.542 150.147 356.263 150.645 356.068C151.143 355.868 151.658 355.773 152.19 355.783C153.016 355.802 153.658 356.054 154.117 356.537C154.576 357.015 154.768 357.653 154.695 358.449L154.051 362.374L154.014 362.938C154.004 363.207 154.034 363.473 154.102 363.737L154.087 363.861H152.74ZM150.66 362.836C151.084 362.846 151.485 362.745 151.861 362.535C152.242 362.321 152.569 362.025 152.842 361.649L153.128 360.016L152.124 360.009C151.289 360.009 150.65 360.14 150.205 360.404C149.761 360.668 149.51 361.041 149.451 361.525C149.407 361.896 149.493 362.206 149.707 362.455C149.927 362.699 150.245 362.826 150.66 362.836ZM159.236 362.909C159.71 362.919 160.137 362.782 160.518 362.499C160.899 362.211 161.148 361.835 161.265 361.371L162.517 361.364C162.444 361.862 162.244 362.316 161.917 362.726C161.595 363.136 161.187 363.456 160.694 363.685C160.201 363.915 159.695 364.022 159.178 364.008C158.518 363.998 157.959 363.827 157.5 363.495C157.046 363.158 156.712 362.692 156.497 362.096C156.282 361.495 156.209 360.822 156.277 360.075L156.314 359.708C156.407 358.947 156.629 358.265 156.98 357.665C157.332 357.064 157.791 356.598 158.357 356.266C158.924 355.929 159.549 355.77 160.232 355.79C161.062 355.809 161.726 356.088 162.224 356.625C162.723 357.162 162.972 357.843 162.972 358.668L161.734 358.661C161.724 358.143 161.58 357.726 161.302 357.409C161.023 357.086 160.647 356.915 160.174 356.896C159.485 356.881 158.912 357.138 158.453 357.665C157.998 358.192 157.715 358.93 157.603 359.877L157.581 360.067C157.552 360.38 157.547 360.702 157.566 361.034C157.6 361.605 157.762 362.057 158.05 362.389C158.338 362.721 158.733 362.894 159.236 362.909ZM166.421 360.206L165.381 361.137L164.912 363.861H163.587L165.542 352.611H166.868L165.696 359.335L166.509 358.514L169.322 355.936H171.043L167.403 359.313L169.908 363.861H168.457L166.421 360.206ZM175.943 361.715C176.016 361.168 175.716 360.783 175.042 360.558L173.665 360.155C172.503 359.755 171.941 359.091 171.98 358.163C172.015 357.465 172.332 356.893 172.933 356.449C173.538 356 174.248 355.78 175.064 355.79C175.865 355.8 176.514 356.034 177.012 356.493C177.515 356.947 177.757 357.54 177.737 358.273L176.419 358.265C176.429 357.87 176.304 357.548 176.045 357.299C175.787 357.05 175.442 356.92 175.013 356.91C174.554 356.901 174.158 357.013 173.826 357.247C173.518 357.467 173.34 357.755 173.291 358.112C173.228 358.571 173.509 358.905 174.134 359.115L174.8 359.298C175.708 359.533 176.353 359.838 176.734 360.214C177.115 360.59 177.29 361.056 177.261 361.613C177.232 362.106 177.071 362.535 176.778 362.902C176.485 363.268 176.094 363.549 175.606 363.744C175.118 363.934 174.598 364.022 174.046 364.008C173.206 363.998 172.513 363.754 171.966 363.275C171.419 362.792 171.155 362.172 171.175 361.415L172.5 361.422C172.5 361.867 172.642 362.223 172.925 362.492C173.208 362.76 173.597 362.894 174.09 362.894C174.573 362.904 174.991 362.804 175.342 362.594C175.694 362.379 175.894 362.086 175.943 361.715Z" fill="white"/>
<defs>
<clipPath id="clip0">
<rect width="85" height="79" fill="white" transform="translate(161.991 266.861)"/>
</clipPath>
</defs>
</svg>
