<svg width="333" height="384" viewBox="0 0 333 384" fill="none" xmlns="http://www.w3.org/2000/svg">
<g clip-path="url(#clip0)">
<path d="M0.835004 260.677L37.4125 103.394H264.841L301.418 260.677H0.835004Z" fill="white" stroke="black"/>
<mask id="path-2-inside-1" fill="white">
<path fill-rule="evenodd" clip-rule="evenodd" d="M291.536 381.73C291.536 381.488 291.537 381.246 291.537 381.004C291.537 288.365 228.792 213.267 151.393 213.267C73.9931 213.267 11.2484 288.365 11.2484 381.004C11.2484 381.246 11.2488 381.488 11.2497 381.73H291.536Z"/>
</mask>
<path fill-rule="evenodd" clip-rule="evenodd" d="M291.536 381.73C291.536 381.488 291.537 381.246 291.537 381.004C291.537 288.365 228.792 213.267 151.393 213.267C73.9931 213.267 11.2484 288.365 11.2484 381.004C11.2484 381.246 11.2488 381.488 11.2497 381.73H291.536Z" fill="white"/>
<path d="M291.536 381.73V382.73H292.532L292.536 381.734L291.536 381.73ZM11.2497 381.73L10.2497 381.734L10.2532 382.73H11.2497V381.73ZM292.536 381.734C292.536 381.49 292.537 381.247 292.537 381.004H290.537C290.537 381.245 290.536 381.486 290.536 381.727L292.536 381.734ZM292.537 381.004C292.537 287.989 229.505 212.267 151.393 212.267V214.267C228.079 214.267 290.537 288.742 290.537 381.004H292.537ZM151.393 212.267C73.28 212.267 10.2484 287.989 10.2484 381.004H12.2484C12.2484 288.742 74.7062 214.267 151.393 214.267V212.267ZM10.2484 381.004C10.2484 381.247 10.2488 381.491 10.2497 381.734L12.2497 381.727C12.2488 381.486 12.2484 381.245 12.2484 381.004H10.2484ZM11.2497 382.73H291.536V380.73H11.2497V382.73Z" fill="black" mask="url(#path-2-inside-1)"/>
<mask id="path-4-inside-2" fill="white">
<path fill-rule="evenodd" clip-rule="evenodd" d="M285.48 381.725C285.481 381.493 285.481 381.262 285.481 381.03C285.481 292.394 225.448 220.541 151.393 220.541C77.3376 220.541 17.3041 292.394 17.3041 381.03C17.3041 381.262 17.3045 381.493 17.3053 381.725H285.48Z"/>
</mask>
<path fill-rule="evenodd" clip-rule="evenodd" d="M285.48 381.725C285.481 381.493 285.481 381.262 285.481 381.03C285.481 292.394 225.448 220.541 151.393 220.541C77.3376 220.541 17.3041 292.394 17.3041 381.03C17.3041 381.262 17.3045 381.493 17.3053 381.725H285.48Z" fill="black"/>
<path d="M285.48 381.725V382.725H286.476L286.48 381.729L285.48 381.725ZM17.3053 381.725L16.3053 381.728L16.3088 382.725H17.3053V381.725ZM286.48 381.729C286.481 381.496 286.481 381.263 286.481 381.03H284.481C284.481 381.261 284.481 381.491 284.48 381.721L286.48 381.729ZM286.481 381.03C286.481 292.018 226.161 219.541 151.393 219.541V221.541C224.735 221.541 284.481 292.771 284.481 381.03H286.481ZM151.393 219.541C76.6245 219.541 16.3041 292.018 16.3041 381.03H18.3041C18.3041 292.771 78.0506 221.541 151.393 221.541V219.541ZM16.3041 381.03C16.3041 381.263 16.3045 381.496 16.3053 381.728L18.3053 381.721C18.3045 381.491 18.3041 381.261 18.3041 381.03H16.3041ZM17.3053 382.725H285.48V380.725H17.3053V382.725Z" fill="black" mask="url(#path-4-inside-2)"/>
<circle cx="151.127" cy="124.06" r="113.611" fill="white" stroke="black"/>
<path d="M151.127 182.036C151.127 199.98 177.814 199.98 177.814 182.036" stroke="black"/>
<path d="M150.206 182.036C150.206 199.98 123.519 199.98 123.519 182.036" stroke="black"/>
<path d="M128.541 124.06C128.541 133.885 125.885 142.758 121.617 149.16C117.346 155.566 111.502 159.449 105.114 159.449C98.7261 159.449 92.8817 155.566 88.6114 149.16C84.3435 142.758 81.6875 133.885 81.6875 124.06C81.6875 114.234 84.3435 105.361 88.6114 98.9591C92.8817 92.5537 98.7261 88.6699 105.114 88.6699C111.502 88.6699 117.346 92.5537 121.617 98.9591C125.885 105.361 128.541 114.234 128.541 124.06Z" fill="white" stroke="black"/>
<path d="M220.566 124.06C220.566 133.885 217.91 142.758 213.642 149.16C209.372 155.566 203.527 159.449 197.139 159.449C190.751 159.449 184.907 155.566 180.637 149.16C176.369 142.758 173.713 133.885 173.713 124.06C173.713 114.234 176.369 105.361 180.637 98.9591C184.907 92.5537 190.751 88.6699 197.139 88.6699C203.527 88.6699 209.372 92.5537 213.642 98.9591C217.91 105.361 220.566 114.234 220.566 124.06Z" fill="white" stroke="black"/>
<mask id="path-11-inside-3" fill="white">
<path fill-rule="evenodd" clip-rule="evenodd" d="M267.793 93.6914H33.54C43.9037 40.7825 92.4022 0.745972 150.666 0.745972C208.931 0.745972 257.429 40.7825 267.793 93.6914Z"/>
</mask>
<path fill-rule="evenodd" clip-rule="evenodd" d="M267.793 93.6914H33.54C43.9037 40.7825 92.4022 0.745972 150.666 0.745972C208.931 0.745972 257.429 40.7825 267.793 93.6914Z" fill="white"/>
<path d="M33.54 93.6914L32.5587 93.4991L32.3251 94.6914H33.54V93.6914ZM267.793 93.6914V94.6914H269.008L268.774 93.4991L267.793 93.6914ZM33.54 94.6914H267.793V92.6914H33.54V94.6914ZM34.5214 93.8836C44.7891 41.4644 92.8592 1.74597 150.666 1.74597V-0.254028C91.9452 -0.254028 43.0183 40.1005 32.5587 93.4991L34.5214 93.8836ZM150.666 1.74597C208.474 1.74597 256.544 41.4644 266.812 93.8836L268.774 93.4991C258.315 40.1005 209.388 -0.254028 150.666 -0.254028V1.74597Z" fill="black" mask="url(#path-11-inside-3)"/>
<rect x="37.0154" y="94.6116" width="228.222" height="19.3253" fill="white"/>
<path d="M24.0929 85.9091L278.482 85.9091V104.234H24.0929V85.9091Z" fill="white" stroke="black"/>
<circle cx="153.427" cy="47.2187" r="20.2057" fill="white" stroke="white"/>
<line x1="155.306" y1="33.8335" x2="156.226" y2="44.8765" stroke="white"/>
<line x1="154.759" y1="34.1897" x2="163.041" y2="33.3774" stroke="white"/>
<line x1="155.679" y1="39.7112" x2="163.961" y2="38.8989" stroke="white"/>
<line x1="155.679" y1="45.2327" x2="163.961" y2="44.4204" stroke="white"/>
<line y1="-0.5" x2="12.7751" y2="-0.5" transform="matrix(0.0720346 0.997402 -0.995409 0.0957124 141.004 34.9368)" stroke="white"/>
<line y1="-0.5" x2="12.7751" y2="-0.5" transform="matrix(0.0720346 0.997402 -0.995409 0.0957124 149.286 33.875)" stroke="white"/>
<line x1="141.869" y1="40.7401" x2="150.151" y2="39.8198" stroke="white"/>
<line x1="142.278" y1="49.1657" x2="147.799" y2="54.6872" stroke="white"/>
<line x1="151.561" y1="47.9268" x2="147.88" y2="54.3686" stroke="white"/>
<line x1="148.791" y1="60.633" x2="147.871" y2="54.1913" stroke="white"/>
<line x1="156.17" y1="59.495" x2="159.851" y2="47.5317" stroke="white"/>
<line x1="159.813" y1="47.3847" x2="167.175" y2="57.5075" stroke="white"/>
<line x1="157.431" y1="53.6398" x2="163.873" y2="51.7993" stroke="white"/>
<circle cx="151.427" cy="123.51" r="108.061" fill="black" stroke="black"/>
<path d="M212.905 86.9098C212.905 97.6959 205.971 107.534 194.604 114.702C183.244 121.865 167.519 126.311 150.124 126.311C132.729 126.311 117.005 121.865 105.645 114.702C94.2783 107.534 87.3436 97.6959 87.3436 86.9098C87.3436 76.1238 94.2783 66.2852 105.645 59.1181C117.005 51.955 132.729 47.5082 150.124 47.5082C167.519 47.5082 183.244 51.955 194.604 59.1181C205.971 66.2852 212.905 76.1238 212.905 86.9098Z" fill="white" stroke="black"/>
<g clip-path="url(#clip1)">
<path d="M238.822 277.135C229.724 269.929 216.194 271.225 207.843 279.233L204.573 282.365L201.302 279.233C192.968 271.225 179.421 269.929 170.324 277.135C159.898 285.405 159.35 300.248 168.68 309.213L200.804 340.042C202.879 342.032 206.25 342.032 208.325 340.042L240.449 309.213C249.795 300.248 249.248 285.405 238.822 277.135V277.135Z" fill="#F0C3FF"/>
<path d="M193.191 294.089C193.264 293.542 192.964 293.157 192.29 292.932L190.913 292.529C189.751 292.129 189.189 291.465 189.229 290.537C189.263 289.839 189.58 289.267 190.181 288.823C190.786 288.374 191.497 288.154 192.312 288.164C193.113 288.174 193.762 288.408 194.26 288.867C194.763 289.321 195.005 289.914 194.985 290.647L193.667 290.639C193.677 290.244 193.552 289.922 193.293 289.673C193.035 289.424 192.69 289.294 192.261 289.284C191.802 289.275 191.406 289.387 191.074 289.621C190.767 289.841 190.588 290.129 190.54 290.486C190.476 290.945 190.757 291.279 191.382 291.489L192.048 291.672C192.957 291.907 193.601 292.212 193.982 292.588C194.363 292.964 194.539 293.43 194.509 293.987C194.48 294.48 194.319 294.909 194.026 295.276C193.733 295.642 193.342 295.923 192.854 296.118C192.366 296.308 191.846 296.396 191.294 296.382C190.454 296.372 189.761 296.128 189.214 295.649C188.667 295.166 188.403 294.546 188.423 293.789L189.749 293.796C189.749 294.241 189.89 294.597 190.173 294.866C190.457 295.134 190.845 295.268 191.338 295.268C191.821 295.278 192.239 295.178 192.59 294.968C192.942 294.753 193.142 294.46 193.191 294.089ZM200.259 288.164C200.923 288.174 201.492 288.354 201.965 288.706C202.439 289.057 202.788 289.543 203.013 290.163C203.242 290.779 203.32 291.452 203.247 292.185L203.232 292.346C203.14 293.117 202.91 293.816 202.544 294.441C202.178 295.061 201.704 295.544 201.123 295.891C200.542 296.238 199.905 296.401 199.211 296.382C198.552 296.372 197.983 296.191 197.505 295.84C197.031 295.488 196.685 295.01 196.465 294.404C196.245 293.799 196.167 293.132 196.23 292.405C196.304 291.584 196.526 290.847 196.897 290.193C197.268 289.538 197.744 289.033 198.325 288.677C198.911 288.315 199.556 288.144 200.259 288.164ZM197.563 292.412C197.529 292.72 197.529 293.039 197.563 293.371C197.612 293.948 197.783 294.407 198.076 294.748C198.374 295.09 198.77 295.268 199.263 295.283C199.702 295.298 200.107 295.19 200.479 294.961C200.85 294.726 201.162 294.375 201.416 293.906C201.67 293.437 201.834 292.917 201.907 292.346C201.946 291.897 201.953 291.518 201.929 291.211C201.87 290.62 201.692 290.154 201.394 289.812C201.096 289.47 200.701 289.289 200.208 289.27C199.524 289.255 198.943 289.524 198.464 290.076C197.986 290.627 197.69 291.35 197.578 292.243L197.563 292.412ZM209.165 289.519L208.543 289.453C207.693 289.453 207.024 289.836 206.536 290.603L205.562 296.235H204.236L205.613 288.31L206.895 288.303L206.697 289.226C207.258 288.489 207.92 288.13 208.682 288.149C208.843 288.149 209.053 288.186 209.312 288.259L209.165 289.519ZM214.16 289.519L213.538 289.453C212.688 289.453 212.019 289.836 211.531 290.603L210.557 296.235H209.231L210.608 288.31L211.89 288.303L211.692 289.226C212.253 288.489 212.915 288.13 213.677 288.149C213.838 288.149 214.048 288.186 214.307 288.259L214.16 289.519ZM217.2 294.236L220.02 288.31H221.484L216.782 297.554C216.128 298.838 215.288 299.472 214.263 299.458C214.082 299.453 213.816 299.409 213.464 299.326L213.582 298.227L213.926 298.264C214.346 298.284 214.707 298.188 215.01 297.978C215.317 297.773 215.588 297.439 215.823 296.975L216.299 296.067L214.929 288.31H216.313L217.2 294.236ZM179.626 314.235L180.828 307.358H179.605L179.788 306.31H181.003L181.135 305.373C181.262 304.577 181.57 303.954 182.058 303.505C182.571 303.036 183.225 302.807 184.021 302.817C184.27 302.817 184.585 302.858 184.966 302.941L184.805 304.047C184.57 303.998 184.334 303.969 184.094 303.959C183.635 303.959 183.262 304.103 182.974 304.391C182.69 304.675 182.515 305.053 182.446 305.527L182.329 306.31H183.97L183.787 307.358H182.146L180.952 314.235H179.626ZM187.361 314.382C186.375 314.362 185.603 313.998 185.046 313.29C184.49 312.582 184.255 311.677 184.343 310.573L184.38 310.258C184.463 309.472 184.695 308.754 185.076 308.105C185.461 307.455 185.93 306.967 186.482 306.64C187.034 306.308 187.629 306.149 188.269 306.164C189.084 306.183 189.724 306.454 190.188 306.977C190.652 307.499 190.906 308.207 190.95 309.101C190.964 309.418 190.955 309.736 190.92 310.053L190.84 310.661H185.662C185.574 311.379 185.691 311.989 186.013 312.492C186.34 312.995 186.826 313.256 187.471 313.276C188.252 313.295 188.975 312.944 189.639 312.221L190.4 312.866C190.068 313.344 189.639 313.72 189.111 313.993C188.589 314.262 188.005 314.391 187.361 314.382ZM188.203 307.27C187.656 307.255 187.178 307.441 186.768 307.826C186.362 308.212 186.04 308.786 185.801 309.548L189.653 309.555L189.683 309.438C189.761 308.823 189.661 308.312 189.382 307.907C189.109 307.497 188.716 307.284 188.203 307.27ZM195.139 314.382C194.153 314.362 193.381 313.998 192.825 313.29C192.268 312.582 192.034 311.677 192.122 310.573L192.158 310.258C192.241 309.472 192.473 308.754 192.854 308.105C193.24 307.455 193.709 306.967 194.26 306.64C194.812 306.308 195.408 306.149 196.047 306.164C196.863 306.183 197.502 306.454 197.966 306.977C198.43 307.499 198.684 308.207 198.728 309.101C198.743 309.418 198.733 309.736 198.699 310.053L198.618 310.661H193.44C193.352 311.379 193.469 311.989 193.792 312.492C194.119 312.995 194.605 313.256 195.249 313.276C196.03 313.295 196.753 312.944 197.417 312.221L198.179 312.866C197.847 313.344 197.417 313.72 196.89 313.993C196.367 314.262 195.784 314.391 195.139 314.382ZM195.981 307.27C195.435 307.255 194.956 307.441 194.546 307.826C194.141 308.212 193.818 308.786 193.579 309.548L197.432 309.555L197.461 309.438C197.539 308.823 197.439 308.312 197.161 307.907C196.887 307.497 196.494 307.284 195.981 307.27ZM200.925 314.235H199.607L201.555 302.985H202.881L200.925 314.235ZM204.529 314.235H203.21L204.587 306.31H205.906L204.529 314.235ZM205.62 303.417C205.845 303.408 206.03 303.476 206.177 303.622C206.328 303.764 206.404 303.952 206.404 304.186C206.399 304.416 206.323 304.604 206.177 304.75C206.035 304.897 205.85 304.975 205.62 304.985C205.391 304.994 205.203 304.929 205.056 304.787C204.91 304.645 204.839 304.46 204.844 304.23C204.849 304.001 204.922 303.81 205.063 303.659C205.205 303.508 205.391 303.427 205.62 303.417ZM209.326 306.303L209.136 307.306C209.849 306.525 210.659 306.144 211.567 306.164C212.314 306.183 212.866 306.442 213.223 306.94C213.579 307.438 213.711 308.139 213.618 309.042L212.754 314.235H211.428L212.3 309.02C212.329 308.781 212.332 308.559 212.307 308.354C212.224 307.67 211.821 307.321 211.099 307.306C210.303 307.292 209.605 307.717 209.004 308.581L208.022 314.235H206.697L208.074 306.31L209.326 306.303ZM215.186 310.258C215.303 309.394 215.535 308.644 215.881 308.01C216.233 307.37 216.658 306.899 217.156 306.596C217.659 306.288 218.208 306.142 218.804 306.157C219.722 306.176 220.415 306.523 220.884 307.197L221.147 306.31H222.363L221.045 314.067C220.903 315.077 220.493 315.886 219.814 316.491C219.136 317.101 218.298 317.392 217.302 317.363C216.765 317.353 216.25 317.226 215.757 316.982C215.269 316.738 214.883 316.403 214.6 315.978L215.354 315.165C215.833 315.873 216.465 316.237 217.251 316.257C217.881 316.276 218.413 316.1 218.848 315.729C219.287 315.358 219.578 314.831 219.719 314.147L219.866 313.444C219.221 314.089 218.467 314.401 217.603 314.382C217.109 314.367 216.68 314.235 216.313 313.986C215.952 313.732 215.671 313.368 215.471 312.895C215.271 312.416 215.161 311.884 215.142 311.298C215.132 311.01 215.147 310.663 215.186 310.258ZM216.467 311.013C216.453 311.711 216.572 312.253 216.826 312.638C217.085 313.019 217.473 313.22 217.991 313.239C218.782 313.259 219.463 312.87 220.034 312.075L220.657 308.434C220.364 307.712 219.834 307.336 219.067 307.306C218.35 307.287 217.759 307.58 217.295 308.185C216.836 308.791 216.565 309.609 216.482 310.639L216.467 311.013ZM227.952 312.089C228.025 311.542 227.725 311.157 227.051 310.932L225.674 310.529C224.512 310.129 223.95 309.465 223.989 308.537C224.023 307.839 224.341 307.267 224.941 306.823C225.547 306.374 226.257 306.154 227.073 306.164C227.874 306.174 228.523 306.408 229.021 306.867C229.524 307.321 229.766 307.914 229.746 308.647L228.428 308.639C228.438 308.244 228.313 307.922 228.054 307.673C227.795 307.424 227.451 307.294 227.022 307.284C226.563 307.275 226.167 307.387 225.835 307.621C225.527 307.841 225.349 308.129 225.3 308.486C225.237 308.945 225.518 309.279 226.143 309.489L226.809 309.672C227.717 309.907 228.362 310.212 228.743 310.588C229.124 310.964 229.299 311.43 229.27 311.987C229.241 312.48 229.08 312.909 228.787 313.276C228.494 313.642 228.103 313.923 227.615 314.118C227.126 314.308 226.606 314.396 226.055 314.382C225.215 314.372 224.522 314.128 223.975 313.649C223.428 313.166 223.164 312.546 223.184 311.789L224.509 311.796C224.509 312.241 224.651 312.597 224.934 312.866C225.217 313.134 225.605 313.268 226.099 313.268C226.582 313.278 227 313.178 227.351 312.968C227.703 312.753 227.903 312.46 227.952 312.089Z" fill="black"/>
</g>
<path d="M79.4863 306.945C79.3887 307.755 79.1665 308.485 78.8198 309.135C78.4732 309.784 78.0532 310.265 77.5601 310.578C77.0669 310.89 76.52 311.039 75.9194 311.025C74.9624 311.005 74.252 310.646 73.7881 309.948L73.5171 310.871H72.294L74.2495 299.621H75.5752L74.7769 303.825C75.4116 303.122 76.1831 302.78 77.0913 302.799C77.853 302.819 78.4463 303.1 78.8711 303.642C79.2959 304.184 79.5205 304.931 79.5449 305.883C79.5498 306.195 79.5352 306.498 79.501 306.791L79.4863 306.945ZM78.2266 306.176C78.2412 305.463 78.1216 304.919 77.8677 304.543C77.6138 304.162 77.2256 303.962 76.7031 303.942C75.8779 303.922 75.1797 304.338 74.6084 305.187L74.0151 308.637C74.3081 309.443 74.8574 309.855 75.6631 309.875C76.1807 309.894 76.6323 309.74 77.0181 309.413C77.4087 309.086 77.7041 308.63 77.9043 308.044C78.1045 307.453 78.2119 306.83 78.2266 306.176ZM84.9429 302.799C85.6069 302.809 86.1758 302.99 86.6494 303.341C87.1231 303.693 87.4722 304.179 87.6968 304.799C87.9263 305.414 88.0044 306.088 87.9312 306.82L87.9165 306.982C87.8237 307.753 87.5942 308.451 87.228 309.076C86.8618 309.696 86.3882 310.18 85.8071 310.526C85.2261 310.873 84.5889 311.037 83.8955 311.017C83.2363 311.007 82.6675 310.827 82.189 310.475C81.7153 310.124 81.3687 309.645 81.1489 309.04C80.9292 308.434 80.8511 307.768 80.9146 307.04C80.9878 306.22 81.21 305.483 81.5811 304.828C81.9522 304.174 82.4282 303.669 83.0093 303.312C83.5952 302.951 84.2398 302.78 84.9429 302.799ZM82.2476 307.047C82.2134 307.355 82.2134 307.675 82.2476 308.007C82.2964 308.583 82.4673 309.042 82.7603 309.384C83.0581 309.726 83.4536 309.904 83.9468 309.919C84.3862 309.933 84.7915 309.826 85.1626 309.596C85.5337 309.362 85.8462 309.01 86.1001 308.542C86.354 308.073 86.5176 307.553 86.5908 306.982C86.6299 306.532 86.6372 306.154 86.6128 305.846C86.5542 305.255 86.376 304.789 86.0781 304.447C85.7803 304.106 85.3848 303.925 84.8916 303.905C84.208 303.891 83.627 304.159 83.1484 304.711C82.6699 305.263 82.3745 305.985 82.2622 306.879L82.2476 307.047ZM91.5493 302.939L91.3589 303.942C92.0718 303.161 92.8823 302.78 93.7905 302.799C94.5376 302.819 95.0894 303.078 95.4458 303.576C95.8023 304.074 95.9341 304.775 95.8413 305.678L94.9771 310.871H93.6514L94.523 305.656C94.5523 305.417 94.5547 305.194 94.5303 304.989C94.4473 304.306 94.0444 303.957 93.3218 303.942C92.5259 303.927 91.8276 304.352 91.2271 305.216L90.2456 310.871H88.9199L90.2969 302.946L91.5493 302.939ZM100.448 311.017C99.4619 310.998 98.6904 310.634 98.1338 309.926C97.5772 309.218 97.3428 308.312 97.4307 307.209L97.4673 306.894C97.5503 306.108 97.7822 305.39 98.1631 304.74C98.5488 304.091 99.0176 303.603 99.5693 303.276C100.121 302.943 100.717 302.785 101.356 302.799C102.172 302.819 102.812 303.09 103.275 303.612C103.739 304.135 103.993 304.843 104.037 305.736C104.052 306.054 104.042 306.371 104.008 306.689L103.927 307.297H98.749C98.6611 308.014 98.7783 308.625 99.1006 309.128C99.4277 309.63 99.9136 309.892 100.558 309.911C101.339 309.931 102.062 309.579 102.726 308.857L103.488 309.501C103.156 309.98 102.726 310.356 102.199 310.629C101.676 310.898 101.093 311.027 100.448 311.017ZM101.291 303.905C100.744 303.891 100.265 304.076 99.855 304.462C99.4497 304.848 99.1274 305.422 98.8882 306.183L102.741 306.191L102.77 306.073C102.848 305.458 102.748 304.948 102.47 304.543C102.196 304.132 101.803 303.92 101.291 303.905ZM109.706 308.725C109.779 308.178 109.479 307.792 108.805 307.568L107.428 307.165C106.266 306.764 105.705 306.1 105.744 305.172C105.778 304.474 106.095 303.903 106.696 303.459C107.301 303.009 108.012 302.79 108.827 302.799C109.628 302.809 110.277 303.044 110.775 303.503C111.278 303.957 111.52 304.55 111.5 305.282L110.182 305.275C110.192 304.88 110.067 304.557 109.809 304.308C109.55 304.059 109.206 303.93 108.776 303.92C108.317 303.91 107.921 304.023 107.589 304.257C107.282 304.477 107.104 304.765 107.055 305.121C106.991 305.58 107.272 305.915 107.897 306.125L108.563 306.308C109.472 306.542 110.116 306.847 110.497 307.223C110.878 307.599 111.054 308.066 111.024 308.622C110.995 309.115 110.834 309.545 110.541 309.911C110.248 310.277 109.857 310.558 109.369 310.754C108.881 310.944 108.361 311.032 107.809 311.017C106.969 311.007 106.276 310.763 105.729 310.285C105.182 309.801 104.918 309.181 104.938 308.424L106.264 308.432C106.264 308.876 106.405 309.233 106.688 309.501C106.972 309.77 107.36 309.904 107.853 309.904C108.336 309.914 108.754 309.814 109.105 309.604C109.457 309.389 109.657 309.096 109.706 308.725Z" fill="white"/>
<path d="M106.211 81.6704L108.738 75.6206H110.107L106.497 83.5454H105.42L104.6 77.5542L101.743 83.5454H100.666L99.8096 75.6206H101.077L101.56 81.5239L104.373 75.6206H105.442L106.211 81.6704ZM114.517 75.4741C115.181 75.4839 115.75 75.6646 116.223 76.0161C116.697 76.3677 117.046 76.8535 117.271 77.4736C117.5 78.0889 117.578 78.7627 117.505 79.4951L117.49 79.6562C117.397 80.4277 117.168 81.126 116.802 81.751C116.436 82.3711 115.962 82.8545 115.381 83.2012C114.8 83.5479 114.163 83.7114 113.469 83.6919C112.81 83.6821 112.241 83.5015 111.763 83.1499C111.289 82.7983 110.942 82.3198 110.723 81.7144C110.503 81.1089 110.425 80.4424 110.488 79.7148C110.562 78.8945 110.784 78.1572 111.155 77.5029C111.526 76.8486 112.002 76.3433 112.583 75.9868C113.169 75.6255 113.813 75.4546 114.517 75.4741ZM111.821 79.7222C111.787 80.0298 111.787 80.3496 111.821 80.6816C111.87 81.2578 112.041 81.7168 112.334 82.0586C112.632 82.4004 113.027 82.5786 113.521 82.5933C113.96 82.6079 114.365 82.5005 114.736 82.271C115.107 82.0366 115.42 81.6851 115.674 81.2163C115.928 80.7476 116.091 80.2275 116.165 79.6562C116.204 79.207 116.211 78.8286 116.187 78.521C116.128 77.9302 115.95 77.4639 115.652 77.1221C115.354 76.7803 114.958 76.5996 114.465 76.5801C113.782 76.5654 113.201 76.834 112.722 77.3857C112.244 77.9375 111.948 78.6602 111.836 79.5537L111.821 79.7222ZM123.423 76.8291L122.8 76.7632C121.951 76.7632 121.282 77.1465 120.793 77.9131L119.819 83.5454H118.494L119.871 75.6206L121.152 75.6133L120.955 76.5361C121.516 75.7988 122.178 75.4399 122.939 75.4595C123.101 75.4595 123.311 75.4961 123.569 75.5693L123.423 76.8291ZM126.331 79.8906L125.291 80.8208L124.822 83.5454H123.496L125.452 72.2954H126.777L125.605 79.019L126.418 78.1987L129.231 75.6206H130.952L127.312 78.9971L129.817 83.5454H128.367L126.331 79.8906ZM132.38 83.5454H131.062L132.439 75.6206H133.757L132.38 83.5454ZM133.472 72.7275C133.696 72.7178 133.882 72.7861 134.028 72.9326C134.18 73.0742 134.255 73.2622 134.255 73.4966C134.25 73.7261 134.175 73.9141 134.028 74.0605C133.887 74.207 133.701 74.2852 133.472 74.2949C133.242 74.3047 133.054 74.2388 132.908 74.0972C132.761 73.9556 132.69 73.77 132.695 73.5405C132.7 73.311 132.773 73.1206 132.915 72.9692C133.057 72.8179 133.242 72.7373 133.472 72.7275ZM137.178 75.6133L136.987 76.6167C137.7 75.8354 138.511 75.4546 139.419 75.4741C140.166 75.4937 140.718 75.7524 141.074 76.2505C141.431 76.7485 141.562 77.4492 141.47 78.3525L140.605 83.5454H139.28L140.151 78.3306C140.181 78.0913 140.183 77.8691 140.159 77.6641C140.076 76.9805 139.673 76.6313 138.95 76.6167C138.154 76.6021 137.456 77.0269 136.855 77.8911L135.874 83.5454H134.548L135.925 75.6206L137.178 75.6133ZM143.037 79.5684C143.154 78.7041 143.386 77.9546 143.733 77.3198C144.084 76.6802 144.509 76.209 145.007 75.9062C145.51 75.5986 146.06 75.4521 146.655 75.4668C147.573 75.4863 148.267 75.833 148.735 76.5068L148.999 75.6206H150.215L148.896 83.377C148.755 84.3877 148.345 85.1958 147.666 85.8013C146.987 86.4116 146.15 86.7021 145.154 86.6729C144.617 86.6631 144.102 86.5361 143.608 86.292C143.12 86.0479 142.734 85.7134 142.451 85.2886L143.206 84.4756C143.684 85.1836 144.316 85.5474 145.103 85.5669C145.732 85.5864 146.265 85.4106 146.699 85.0396C147.139 84.6685 147.429 84.1411 147.571 83.4575L147.717 82.7544C147.073 83.3989 146.318 83.7114 145.454 83.6919C144.961 83.6772 144.531 83.5454 144.165 83.2964C143.804 83.0425 143.523 82.6787 143.323 82.2051C143.123 81.7266 143.013 81.1943 142.993 80.6084C142.983 80.3203 142.998 79.9736 143.037 79.5684ZM144.319 80.3228C144.304 81.021 144.424 81.563 144.678 81.9487C144.937 82.3296 145.325 82.5298 145.842 82.5493C146.633 82.5688 147.314 82.1807 147.886 81.3848L148.508 77.7446C148.215 77.022 147.686 76.646 146.919 76.6167C146.201 76.5972 145.61 76.8901 145.146 77.4956C144.687 78.1011 144.416 78.9189 144.333 79.9492L144.319 80.3228ZM157.048 76.5874C157.742 75.8306 158.54 75.4619 159.443 75.4814C160.186 75.4912 160.735 75.7476 161.091 76.2505C161.453 76.7485 161.587 77.4492 161.494 78.3525L160.63 83.5454H159.304L160.176 78.3306C160.205 78.0913 160.208 77.8691 160.183 77.6641C160.1 76.9805 159.697 76.6313 158.975 76.6167C158.164 76.5972 157.466 77.022 156.88 77.8911L155.898 83.5454H154.573L156.528 72.2954H157.854L157.048 76.5874ZM167.507 83.5454C167.473 83.4038 167.456 83.2646 167.456 83.1279L167.478 82.7104C166.75 83.3843 165.979 83.7114 165.164 83.6919C164.465 83.6821 163.896 83.4624 163.457 83.0327C163.022 82.5981 162.825 82.0562 162.864 81.4067C162.913 80.5669 163.279 79.9126 163.962 79.4438C164.651 78.9702 165.554 78.7334 166.672 78.7334L168.057 78.7407L168.145 78.1108C168.193 77.6372 168.101 77.2637 167.866 76.9902C167.637 76.7119 167.29 76.5679 166.826 76.5581C166.372 76.5483 165.969 76.6606 165.618 76.895C165.271 77.1245 165.059 77.4297 164.98 77.8105L163.647 77.8179C163.691 77.354 163.872 76.9438 164.189 76.5874C164.507 76.2261 164.915 75.9478 165.413 75.7524C165.911 75.5522 166.426 75.457 166.958 75.4668C167.783 75.4863 168.425 75.7378 168.884 76.2212C169.343 76.6997 169.536 77.3369 169.463 78.1328L168.818 82.0586L168.782 82.6226C168.772 82.8911 168.801 83.1572 168.87 83.4209L168.855 83.5454H167.507ZM165.427 82.52C165.852 82.5298 166.252 82.4297 166.628 82.2197C167.009 82.0049 167.336 81.7095 167.61 81.3335L167.896 79.7002L166.892 79.6929C166.057 79.6929 165.417 79.8247 164.973 80.0884C164.529 80.3521 164.277 80.7256 164.219 81.209C164.175 81.5801 164.26 81.8901 164.475 82.1392C164.695 82.3833 165.012 82.5103 165.427 82.52ZM175.586 76.8291L174.963 76.7632C174.114 76.7632 173.445 77.1465 172.957 77.9131L171.982 83.5454H170.657L172.034 75.6206L173.315 75.6133L173.118 76.5361C173.679 75.7988 174.341 75.4399 175.103 75.4595C175.264 75.4595 175.474 75.4961 175.732 75.5693L175.586 76.8291ZM175.886 79.5684C175.984 78.7627 176.206 78.0352 176.553 77.3857C176.899 76.7363 177.327 76.2505 177.834 75.9282C178.342 75.606 178.901 75.4521 179.512 75.4668C180.396 75.4863 181.074 75.8086 181.548 76.4336L182.31 72.2954H183.635L181.687 83.5454H180.479L180.618 82.6958C179.993 83.3794 179.221 83.7114 178.303 83.6919C177.571 83.6724 176.987 83.3867 176.553 82.835C176.118 82.2783 175.884 81.5337 175.85 80.6011C175.835 80.313 175.847 79.9688 175.886 79.5684ZM177.161 80.3301C177.146 81.0283 177.271 81.5703 177.534 81.9561C177.798 82.3418 178.184 82.5396 178.691 82.5493C179.458 82.5835 180.139 82.1978 180.735 81.3921L181.365 77.73C181.072 77.0073 180.54 76.6362 179.768 76.6167C179.246 76.6021 178.784 76.7607 178.384 77.0928C177.988 77.4199 177.686 77.8813 177.476 78.4771C177.271 79.0679 177.166 79.6855 177.161 80.3301ZM190.959 73.7017L190.623 75.6206H192.065L191.882 76.668H190.447L189.619 81.5972C189.604 81.7241 189.602 81.8413 189.612 81.9487C189.646 82.3296 189.854 82.52 190.234 82.52C190.396 82.52 190.61 82.4956 190.879 82.4468L190.776 83.5527C190.459 83.6406 190.137 83.6846 189.81 83.6846C189.282 83.6748 188.887 83.4819 188.623 83.106C188.359 82.7251 188.257 82.2148 188.315 81.5752L189.121 76.668H187.722L187.905 75.6206H189.304L189.641 73.7017H190.959ZM196.548 75.4741C197.212 75.4839 197.781 75.6646 198.254 76.0161C198.728 76.3677 199.077 76.8535 199.302 77.4736C199.531 78.0889 199.609 78.7627 199.536 79.4951L199.521 79.6562C199.429 80.4277 199.199 81.126 198.833 81.751C198.467 82.3711 197.993 82.8545 197.412 83.2012C196.831 83.5479 196.194 83.7114 195.5 83.6919C194.841 83.6821 194.272 83.5015 193.794 83.1499C193.32 82.7983 192.974 82.3198 192.754 81.7144C192.534 81.1089 192.456 80.4424 192.52 79.7148C192.593 78.8945 192.815 78.1572 193.186 77.5029C193.557 76.8486 194.033 76.3433 194.614 75.9868C195.2 75.6255 195.845 75.4546 196.548 75.4741ZM193.853 79.7222C193.818 80.0298 193.818 80.3496 193.853 80.6816C193.901 81.2578 194.072 81.7168 194.365 82.0586C194.663 82.4004 195.059 82.5786 195.552 82.5933C195.991 82.6079 196.396 82.5005 196.768 82.271C197.139 82.0366 197.451 81.6851 197.705 81.2163C197.959 80.7476 198.123 80.2275 198.196 79.6562C198.235 79.207 198.242 78.8286 198.218 78.521C198.159 77.9302 197.981 77.4639 197.683 77.1221C197.385 76.7803 196.99 76.5996 196.497 76.5801C195.813 76.5654 195.232 76.834 194.753 77.3857C194.275 77.9375 193.979 78.6602 193.867 79.5537L193.853 79.7222ZM109.229 97.6196C109.131 98.4302 108.909 99.1602 108.562 99.8096C108.215 100.459 107.795 100.94 107.302 101.252C106.809 101.565 106.262 101.714 105.662 101.699C104.705 101.68 103.994 101.321 103.53 100.623L103.259 101.545H102.036L103.992 90.2954H105.317L104.519 94.4995C105.154 93.7964 105.925 93.4546 106.833 93.4741C107.595 93.4937 108.188 93.7744 108.613 94.3164C109.038 94.8584 109.263 95.6055 109.287 96.5576C109.292 96.8701 109.277 97.1729 109.243 97.4658L109.229 97.6196ZM107.969 96.8506C107.983 96.1377 107.864 95.5933 107.61 95.2173C107.356 94.8364 106.968 94.6362 106.445 94.6167C105.62 94.5972 104.922 95.0122 104.351 95.8618L103.757 99.3115C104.05 100.117 104.6 100.53 105.405 100.549C105.923 100.569 106.375 100.415 106.76 100.088C107.151 99.7607 107.446 99.3042 107.646 98.7183C107.847 98.1274 107.954 97.5049 107.969 96.8506ZM115.315 100.762C114.695 101.401 113.906 101.711 112.949 101.692C112.192 101.672 111.631 101.401 111.265 100.879C110.903 100.356 110.769 99.6436 110.862 98.7402L111.711 93.6206H113.037L112.18 98.7622C112.156 98.9771 112.151 99.187 112.166 99.3921C112.19 99.7437 112.295 100.02 112.48 100.22C112.666 100.42 112.925 100.527 113.257 100.542C114.204 100.571 114.937 100.188 115.454 99.3921L116.45 93.6206H117.776L116.399 101.545H115.146L115.315 100.762ZM119.819 101.545H118.501L119.878 93.6206H121.196L119.819 101.545ZM120.911 90.7275C121.135 90.7178 121.321 90.7861 121.467 90.9326C121.619 91.0742 121.694 91.2622 121.694 91.4966C121.689 91.7261 121.614 91.9141 121.467 92.0605C121.326 92.207 121.14 92.2852 120.911 92.2949C120.681 92.3047 120.493 92.2388 120.347 92.0972C120.2 91.9556 120.129 91.77 120.134 91.5405C120.139 91.311 120.212 91.1206 120.354 90.9692C120.496 90.8179 120.681 90.7373 120.911 90.7275ZM123.423 101.545H122.104L124.053 90.2954H125.378L123.423 101.545ZM125.972 97.5684C126.069 96.7627 126.291 96.0352 126.638 95.3857C126.985 94.7363 127.412 94.2505 127.92 93.9282C128.428 93.606 128.987 93.4521 129.597 93.4668C130.481 93.4863 131.16 93.8086 131.633 94.4336L132.395 90.2954H133.721L131.772 101.545H130.564L130.703 100.696C130.078 101.379 129.307 101.711 128.389 101.692C127.656 101.672 127.073 101.387 126.638 100.835C126.204 100.278 125.969 99.5337 125.935 98.6011C125.92 98.313 125.933 97.9688 125.972 97.5684ZM127.246 98.3301C127.231 99.0283 127.356 99.5703 127.62 99.9561C127.883 100.342 128.269 100.54 128.777 100.549C129.543 100.583 130.225 100.198 130.82 99.3921L131.45 95.73C131.157 95.0073 130.625 94.6362 129.854 94.6167C129.331 94.6021 128.87 94.7607 128.469 95.0928C128.074 95.4199 127.771 95.8813 127.561 96.4771C127.356 97.0679 127.251 97.6855 127.246 98.3301ZM141.045 91.7017L140.708 93.6206H142.151L141.968 94.668H140.532L139.705 99.5972C139.69 99.7241 139.687 99.8413 139.697 99.9487C139.731 100.33 139.939 100.52 140.32 100.52C140.481 100.52 140.696 100.496 140.964 100.447L140.862 101.553C140.544 101.641 140.222 101.685 139.895 101.685C139.368 101.675 138.972 101.482 138.708 101.106C138.445 100.725 138.342 100.215 138.401 99.5752L139.207 94.668H137.808L137.991 93.6206H139.39L139.727 91.7017H141.045ZM144.854 94.5874C145.547 93.8306 146.345 93.4619 147.249 93.4814C147.991 93.4912 148.54 93.7476 148.896 94.2505C149.258 94.7485 149.392 95.4492 149.299 96.3525L148.435 101.545H147.109L147.981 96.3306C148.01 96.0913 148.013 95.8691 147.988 95.6641C147.905 94.9805 147.502 94.6313 146.78 94.6167C145.969 94.5972 145.271 95.022 144.685 95.8911L143.704 101.545H142.378L144.333 90.2954H145.659L144.854 94.5874ZM151.899 101.545H150.581L151.958 93.6206H153.276L151.899 101.545ZM152.991 90.7275C153.215 90.7178 153.401 90.7861 153.547 90.9326C153.699 91.0742 153.774 91.2622 153.774 91.4966C153.77 91.7261 153.694 91.9141 153.547 92.0605C153.406 92.207 153.22 92.2852 152.991 92.2949C152.761 92.3047 152.573 92.2388 152.427 92.0972C152.28 91.9556 152.209 91.77 152.214 91.5405C152.219 91.311 152.292 91.1206 152.434 90.9692C152.576 90.8179 152.761 90.7373 152.991 90.7275ZM158.975 99.3994C159.048 98.8525 158.748 98.4668 158.074 98.2422L156.697 97.8394C155.535 97.439 154.973 96.7749 155.012 95.8472C155.046 95.1489 155.364 94.5776 155.964 94.1333C156.57 93.6841 157.28 93.4644 158.096 93.4741C158.896 93.4839 159.546 93.7183 160.044 94.1772C160.547 94.6313 160.789 95.2246 160.769 95.957L159.451 95.9497C159.46 95.5542 159.336 95.2319 159.077 94.9829C158.818 94.7339 158.474 94.6045 158.044 94.5947C157.585 94.585 157.19 94.6973 156.858 94.9316C156.55 95.1514 156.372 95.4395 156.323 95.7959C156.26 96.2549 156.541 96.5894 157.166 96.7993L157.832 96.9824C158.74 97.2168 159.385 97.522 159.766 97.8979C160.146 98.2739 160.322 98.7402 160.293 99.2969C160.264 99.79 160.103 100.22 159.81 100.586C159.517 100.952 159.126 101.233 158.638 101.428C158.149 101.619 157.629 101.707 157.078 101.692C156.238 101.682 155.544 101.438 154.998 100.959C154.451 100.476 154.187 99.856 154.207 99.0991L155.532 99.1064C155.532 99.5508 155.674 99.9072 155.957 100.176C156.24 100.444 156.628 100.579 157.122 100.579C157.605 100.588 158.022 100.488 158.374 100.278C158.726 100.063 158.926 99.7705 158.975 99.3994ZM172.495 97.6196C172.397 98.4253 172.18 99.1504 171.843 99.7949C171.506 100.439 171.089 100.923 170.591 101.245C170.093 101.562 169.541 101.714 168.936 101.699C168.018 101.68 167.314 101.37 166.826 100.769L166.116 104.592H164.79L166.694 93.6206L167.896 93.6133L167.749 94.4995C168.403 93.7964 169.187 93.4546 170.1 93.4741C170.862 93.4937 171.455 93.7744 171.88 94.3164C172.305 94.8584 172.529 95.6055 172.554 96.5576C172.559 96.8701 172.546 97.1729 172.517 97.4658L172.495 97.6196ZM171.191 97.4658L171.228 96.8506C171.228 96.1377 171.091 95.5933 170.818 95.2173C170.549 94.8364 170.159 94.6362 169.646 94.6167C168.879 94.5972 168.218 94.9609 167.661 95.708L166.995 99.5093C167.292 100.212 167.827 100.574 168.599 100.593C169.258 100.608 169.817 100.352 170.276 99.8242C170.74 99.292 171.045 98.5059 171.191 97.4658ZM178.413 101.545C178.379 101.404 178.362 101.265 178.362 101.128L178.384 100.71C177.656 101.384 176.885 101.711 176.069 101.692C175.371 101.682 174.802 101.462 174.363 101.033C173.928 100.598 173.73 100.056 173.77 99.4067C173.818 98.5669 174.185 97.9126 174.868 97.4438C175.557 96.9702 176.46 96.7334 177.578 96.7334L178.962 96.7407L179.05 96.1108C179.099 95.6372 179.006 95.2637 178.772 94.9902C178.542 94.7119 178.196 94.5679 177.732 94.5581C177.278 94.5483 176.875 94.6606 176.523 94.895C176.177 95.1245 175.964 95.4297 175.886 95.8105L174.553 95.8179C174.597 95.354 174.778 94.9438 175.095 94.5874C175.413 94.2261 175.82 93.9478 176.318 93.7524C176.816 93.5522 177.332 93.457 177.864 93.4668C178.689 93.4863 179.331 93.7378 179.79 94.2212C180.249 94.6997 180.442 95.3369 180.369 96.1328L179.724 100.059L179.687 100.623C179.678 100.891 179.707 101.157 179.775 101.421L179.761 101.545H178.413ZM176.333 100.52C176.758 100.53 177.158 100.43 177.534 100.22C177.915 100.005 178.242 99.7095 178.516 99.3335L178.801 97.7002L177.798 97.6929C176.963 97.6929 176.323 97.8247 175.879 98.0884C175.435 98.3521 175.183 98.7256 175.125 99.209C175.081 99.5801 175.166 99.8901 175.381 100.139C175.601 100.383 175.918 100.51 176.333 100.52ZM181.951 97.5684C182.068 96.7041 182.3 95.9546 182.646 95.3198C182.998 94.6802 183.423 94.209 183.921 93.9062C184.424 93.5986 184.973 93.4521 185.569 93.4668C186.487 93.4863 187.18 93.833 187.649 94.5068L187.913 93.6206H189.128L187.81 101.377C187.668 102.388 187.258 103.196 186.58 103.801C185.901 104.412 185.063 104.702 184.067 104.673C183.53 104.663 183.015 104.536 182.522 104.292C182.034 104.048 181.648 103.713 181.365 103.289L182.119 102.476C182.598 103.184 183.23 103.547 184.016 103.567C184.646 103.586 185.178 103.411 185.613 103.04C186.052 102.668 186.343 102.141 186.484 101.458L186.631 100.754C185.986 101.399 185.232 101.711 184.368 101.692C183.875 101.677 183.445 101.545 183.079 101.296C182.717 101.042 182.437 100.679 182.236 100.205C182.036 99.7266 181.926 99.1943 181.907 98.6084C181.897 98.3203 181.912 97.9736 181.951 97.5684ZM183.232 98.3228C183.218 99.021 183.337 99.563 183.591 99.9487C183.85 100.33 184.238 100.53 184.756 100.549C185.547 100.569 186.228 100.181 186.799 99.3848L187.422 95.7446C187.129 95.022 186.599 94.646 185.833 94.6167C185.115 94.5972 184.524 94.8901 184.06 95.4956C183.601 96.1011 183.33 96.9189 183.247 97.9492L183.232 98.3228ZM193.237 101.692C192.251 101.672 191.479 101.309 190.923 100.601C190.366 99.8926 190.132 98.9868 190.22 97.8833L190.256 97.5684C190.339 96.7822 190.571 96.0645 190.952 95.415C191.338 94.7656 191.807 94.2773 192.358 93.9502C192.91 93.6182 193.506 93.4595 194.146 93.4741C194.961 93.4937 195.601 93.7646 196.064 94.2871C196.528 94.8096 196.782 95.5176 196.826 96.4111C196.841 96.7285 196.831 97.0459 196.797 97.3633L196.716 97.9712H191.538C191.45 98.689 191.567 99.2993 191.89 99.8022C192.217 100.305 192.703 100.566 193.347 100.586C194.128 100.605 194.851 100.254 195.515 99.5312L196.277 100.176C195.945 100.654 195.515 101.03 194.988 101.304C194.465 101.572 193.882 101.702 193.237 101.692ZM194.08 94.5801C193.533 94.5654 193.054 94.751 192.644 95.1367C192.239 95.5225 191.916 96.0962 191.677 96.8579L195.53 96.8652L195.559 96.748C195.637 96.1328 195.537 95.6226 195.259 95.2173C194.985 94.8071 194.592 94.5947 194.08 94.5801Z" fill="black"/>
<path d="M137.206 362.33C137.279 361.783 136.979 361.397 136.305 361.172L134.928 360.77C133.766 360.369 133.205 359.705 133.244 358.777C133.278 358.079 133.595 357.508 134.196 357.064C134.801 356.614 135.512 356.395 136.327 356.404C137.128 356.414 137.778 356.649 138.276 357.108C138.779 357.562 139.02 358.155 139.001 358.887L137.682 358.88C137.692 358.484 137.568 358.162 137.309 357.913C137.05 357.664 136.706 357.535 136.276 357.525C135.817 357.515 135.422 357.628 135.09 357.862C134.782 358.082 134.604 358.37 134.555 358.726C134.491 359.185 134.772 359.52 135.397 359.73L136.064 359.913C136.972 360.147 137.616 360.452 137.997 360.828C138.378 361.204 138.554 361.671 138.525 362.227C138.495 362.72 138.334 363.15 138.041 363.516C137.748 363.882 137.358 364.163 136.869 364.359C136.381 364.549 135.861 364.637 135.309 364.622C134.469 364.612 133.776 364.368 133.229 363.89C132.682 363.406 132.419 362.786 132.438 362.029L133.764 362.037C133.764 362.481 133.905 362.838 134.189 363.106C134.472 363.375 134.86 363.509 135.353 363.509C135.837 363.519 136.254 363.419 136.606 363.209C136.957 362.994 137.157 362.701 137.206 362.33ZM142.502 356.544L142.311 357.547C143.024 356.766 143.835 356.385 144.743 356.404C145.49 356.424 146.042 356.683 146.398 357.181C146.755 357.679 146.886 358.38 146.794 359.283L145.929 364.476H144.604L145.475 359.261C145.505 359.022 145.507 358.799 145.483 358.594C145.4 357.911 144.997 357.562 144.274 357.547C143.478 357.532 142.78 357.957 142.179 358.821L141.198 364.476H139.872L141.249 356.551L142.502 356.544ZM152.821 364.476C152.787 364.334 152.77 364.195 152.77 364.058L152.792 363.641C152.065 364.315 151.293 364.642 150.478 364.622C149.779 364.612 149.211 364.393 148.771 363.963C148.337 363.528 148.139 362.986 148.178 362.337C148.227 361.497 148.593 360.843 149.277 360.374C149.965 359.901 150.868 359.664 151.987 359.664L153.371 359.671L153.459 359.041C153.508 358.568 153.415 358.194 153.18 357.921C152.951 357.642 152.604 357.498 152.14 357.488C151.686 357.479 151.283 357.591 150.932 357.825C150.585 358.055 150.373 358.36 150.295 358.741L148.962 358.748C149.006 358.284 149.186 357.874 149.504 357.518C149.821 357.156 150.229 356.878 150.727 356.683C151.225 356.483 151.74 356.387 152.272 356.397C153.097 356.417 153.739 356.668 154.198 357.151C154.657 357.63 154.85 358.267 154.777 359.063L154.133 362.989L154.096 363.553C154.086 363.821 154.115 364.088 154.184 364.351L154.169 364.476H152.821ZM150.741 363.45C151.166 363.46 151.567 363.36 151.943 363.15C152.323 362.935 152.651 362.64 152.924 362.264L153.21 360.63L152.206 360.623C151.371 360.623 150.732 360.755 150.287 361.019C149.843 361.282 149.591 361.656 149.533 362.139C149.489 362.51 149.574 362.82 149.789 363.069C150.009 363.314 150.326 363.441 150.741 363.45ZM159.318 363.524C159.792 363.533 160.219 363.397 160.6 363.113C160.981 362.825 161.23 362.449 161.347 361.985L162.599 361.978C162.526 362.476 162.326 362.93 161.999 363.34C161.676 363.751 161.269 364.07 160.776 364.3C160.282 364.529 159.777 364.637 159.259 364.622C158.6 364.612 158.041 364.442 157.582 364.109C157.128 363.773 156.794 363.306 156.579 362.711C156.364 362.11 156.291 361.436 156.359 360.689L156.396 360.323C156.488 359.561 156.711 358.88 157.062 358.279C157.414 357.679 157.873 357.213 158.439 356.88C159.006 356.544 159.631 356.385 160.314 356.404C161.144 356.424 161.808 356.702 162.306 357.239C162.804 357.776 163.053 358.458 163.053 359.283L161.816 359.276C161.806 358.758 161.662 358.34 161.383 358.023C161.105 357.701 160.729 357.53 160.256 357.51C159.567 357.496 158.993 357.752 158.534 358.279C158.08 358.807 157.797 359.544 157.685 360.491L157.663 360.682C157.633 360.994 157.629 361.317 157.648 361.649C157.682 362.22 157.843 362.672 158.132 363.004C158.42 363.336 158.815 363.509 159.318 363.524ZM166.503 360.821L165.463 361.751L164.994 364.476H163.669L165.624 353.226H166.95L165.778 359.949L166.591 359.129L169.404 356.551H171.125L167.485 359.927L169.989 364.476H168.539L166.503 360.821ZM176.025 362.33C176.098 361.783 175.798 361.397 175.124 361.172L173.747 360.77C172.585 360.369 172.023 359.705 172.062 358.777C172.096 358.079 172.414 357.508 173.014 357.064C173.62 356.614 174.33 356.395 175.146 356.404C175.946 356.414 176.596 356.649 177.094 357.108C177.597 357.562 177.839 358.155 177.819 358.887L176.501 358.88C176.51 358.484 176.386 358.162 176.127 357.913C175.868 357.664 175.524 357.535 175.094 357.525C174.635 357.515 174.24 357.628 173.908 357.862C173.6 358.082 173.422 358.37 173.373 358.726C173.31 359.185 173.591 359.52 174.216 359.73L174.882 359.913C175.79 360.147 176.435 360.452 176.816 360.828C177.196 361.204 177.372 361.671 177.343 362.227C177.314 362.72 177.153 363.15 176.86 363.516C176.567 363.882 176.176 364.163 175.688 364.359C175.199 364.549 174.679 364.637 174.128 364.622C173.288 364.612 172.594 364.368 172.048 363.89C171.501 363.406 171.237 362.786 171.257 362.029L172.582 362.037C172.582 362.481 172.724 362.838 173.007 363.106C173.29 363.375 173.678 363.509 174.172 363.509C174.655 363.519 175.072 363.419 175.424 363.209C175.776 362.994 175.976 362.701 176.025 362.33Z" fill="white"/>
</g>
<defs>
<clipPath id="clip0">
<rect width="333" height="383" fill="white" transform="translate(0 0.528931)"/>
</clipPath>
<clipPath id="clip1">
<rect width="85" height="79" fill="white" transform="translate(162.073 267.476)"/>
</clipPath>
</defs>
</svg>
