<svg width="333" height="382" viewBox="0 0 333 382" fill="none" xmlns="http://www.w3.org/2000/svg">
<path d="M0.753156 260.063L37.3307 102.779H264.759L301.336 260.063H0.753156Z" fill="#F0C3FF" stroke="black"/>
<mask id="path-2-inside-1" fill="white">
<path fill-rule="evenodd" clip-rule="evenodd" d="M291.454 381.115C291.455 380.874 291.455 380.632 291.455 380.389C291.455 287.751 228.71 212.652 151.311 212.652C73.9113 212.652 11.1666 287.751 11.1666 380.389C11.1666 380.632 11.167 380.874 11.1679 381.115H291.454Z"/>
</mask>
<path fill-rule="evenodd" clip-rule="evenodd" d="M291.454 381.115C291.455 380.874 291.455 380.632 291.455 380.389C291.455 287.751 228.71 212.652 151.311 212.652C73.9113 212.652 11.1666 287.751 11.1666 380.389C11.1666 380.632 11.167 380.874 11.1679 381.115H291.454Z" fill="#8CE9D2"/>
<path d="M291.454 381.115V382.115H292.45L292.454 381.119L291.454 381.115ZM11.1679 381.115L10.1679 381.119L10.1714 382.115H11.1679V381.115ZM292.454 381.119C292.455 380.876 292.455 380.633 292.455 380.389H290.455C290.455 380.63 290.455 380.871 290.454 381.112L292.454 381.119ZM292.455 380.389C292.455 287.374 229.423 211.652 151.311 211.652V213.652C227.997 213.652 290.455 288.127 290.455 380.389H292.455ZM151.311 211.652C73.1982 211.652 10.1666 287.374 10.1666 380.389H12.1666C12.1666 288.127 74.6244 213.652 151.311 213.652V211.652ZM10.1666 380.389C10.1666 380.633 10.167 380.876 10.1679 381.119L12.1678 381.112C12.167 380.871 12.1666 380.63 12.1666 380.389H10.1666ZM11.1679 382.115H291.454V380.115H11.1679V382.115Z" fill="black" mask="url(#path-2-inside-1)"/>
<circle cx="151.045" cy="123.445" r="113.611" fill="#FFEAE6" stroke="black"/>
<path d="M151.045 181.421C151.045 199.366 177.732 199.366 177.732 181.421" stroke="black"/>
<path d="M150.125 181.421C150.125 199.366 123.437 199.366 123.437 181.421" stroke="black"/>
<path d="M128.459 123.445C128.459 133.271 125.803 142.144 121.535 148.546C117.265 154.951 111.42 158.835 105.032 158.835C98.6442 158.835 92.7999 154.951 88.5296 148.546C84.2617 142.144 81.6057 133.271 81.6057 123.445C81.6057 113.619 84.2617 104.746 88.5296 98.3445C92.7999 91.9391 98.6442 88.0553 105.032 88.0553C111.42 88.0553 117.265 91.9391 121.535 98.3445C125.803 104.746 128.459 113.619 128.459 123.445Z" fill="white" stroke="black"/>
<path d="M220.484 123.445C220.484 133.271 217.828 142.144 213.56 148.546C209.29 154.951 203.445 158.835 197.057 158.835C190.669 158.835 184.825 154.951 180.555 148.546C176.287 142.144 173.631 133.271 173.631 123.445C173.631 113.619 176.287 104.746 180.555 98.3445C184.825 91.9391 190.669 88.0553 197.057 88.0553C203.445 88.0553 209.29 91.9391 213.56 98.3445C217.828 104.746 220.484 113.619 220.484 123.445Z" fill="white" stroke="black"/>
<mask id="path-9-inside-2" fill="white">
<path fill-rule="evenodd" clip-rule="evenodd" d="M267.711 93.0768H33.4582C43.8219 40.1679 92.3204 0.131378 150.585 0.131378C208.849 0.131378 257.347 40.1679 267.711 93.0768Z"/>
</mask>
<path fill-rule="evenodd" clip-rule="evenodd" d="M267.711 93.0768H33.4582C43.8219 40.1679 92.3204 0.131378 150.585 0.131378C208.849 0.131378 257.347 40.1679 267.711 93.0768Z" fill="#007BFF"/>
<path d="M33.4582 93.0768L32.4768 92.8845L32.2433 94.0768H33.4582V93.0768ZM267.711 93.0768V94.0768H268.926L268.692 92.8845L267.711 93.0768ZM33.4582 94.0768H267.711V92.0768H33.4582V94.0768ZM34.4395 93.269C44.7073 40.8498 92.7774 1.13138 150.585 1.13138V-0.868622C91.8634 -0.868622 42.9364 39.4859 32.4768 92.8845L34.4395 93.269ZM150.585 1.13138C208.392 1.13138 256.462 40.8498 266.73 93.269L268.692 92.8845C258.233 39.4859 209.306 -0.868622 150.585 -0.868622V1.13138Z" fill="black" mask="url(#path-9-inside-2)"/>
<rect x="36.9336" y="93.997" width="228.222" height="19.3253" fill="#F0C3FF"/>
<path d="M33.7526 103.62V85.2749L331.834 73.3516V103.62H33.7526Z" fill="#7F5FFF" stroke="black"/>
<circle cx="153.345" cy="46.6041" r="20.2057" fill="#8CE9D2" stroke="#216958"/>
<line x1="155.224" y1="33.2189" x2="156.144" y2="44.2619" stroke="#216958"/>
<line x1="154.677" y1="33.5751" x2="162.959" y2="32.7628" stroke="#216958"/>
<line x1="155.597" y1="39.0966" x2="163.88" y2="38.2843" stroke="#216958"/>
<line x1="155.597" y1="44.6181" x2="163.88" y2="43.8058" stroke="#216958"/>
<line y1="-0.5" x2="12.7751" y2="-0.5" transform="matrix(0.0720346 0.997402 -0.995409 0.0957124 140.922 34.3223)" stroke="#216958"/>
<line y1="-0.5" x2="12.7751" y2="-0.5" transform="matrix(0.0720346 0.997402 -0.995409 0.0957124 149.204 33.2604)" stroke="#216958"/>
<line x1="141.787" y1="40.1255" x2="150.069" y2="39.2052" stroke="#216958"/>
<line x1="142.196" y1="48.5511" x2="147.717" y2="54.0727" stroke="#216958"/>
<line x1="151.479" y1="47.3123" x2="147.798" y2="53.754" stroke="#216958"/>
<line x1="148.709" y1="60.0184" x2="147.789" y2="53.5767" stroke="#216958"/>
<line x1="156.088" y1="58.8804" x2="159.769" y2="46.9172" stroke="#216958"/>
<line x1="159.731" y1="46.7701" x2="167.093" y2="56.8929" stroke="#216958"/>
<line x1="157.349" y1="53.0252" x2="163.791" y2="51.1847" stroke="#216958"/>
</svg>
