<svg width="333" height="383" viewBox="0 0 333 383" fill="none" xmlns="http://www.w3.org/2000/svg">
<path d="M36.9336 103.279H265.156L301.966 261.563H0.12352L36.9336 103.279Z" fill="#F0C3FF"/>
<mask id="path-2-inside-1" fill="white">
<path fill-rule="evenodd" clip-rule="evenodd" d="M291.454 382.115C291.455 381.874 291.455 381.632 291.455 381.389C291.455 288.75 228.71 213.652 151.311 213.652C73.9113 213.652 11.1665 288.75 11.1665 381.389C11.1665 381.632 11.167 381.874 11.1678 382.115H291.454Z"/>
</mask>
<path fill-rule="evenodd" clip-rule="evenodd" d="M291.454 382.115C291.455 381.874 291.455 381.632 291.455 381.389C291.455 288.75 228.71 213.652 151.311 213.652C73.9113 213.652 11.1665 288.75 11.1665 381.389C11.1665 381.632 11.167 381.874 11.1678 382.115H291.454Z" fill="#24FF00"/>
<path d="M291.454 382.115V383.115H292.45L292.454 382.119L291.454 382.115ZM11.1678 382.115L10.1678 382.119L10.1714 383.115H11.1678V382.115ZM292.454 382.119C292.455 381.876 292.455 381.633 292.455 381.389H290.455C290.455 381.63 290.455 381.871 290.454 382.112L292.454 382.119ZM292.455 381.389C292.455 288.374 229.423 212.652 151.311 212.652V214.652C227.997 214.652 290.455 289.127 290.455 381.389H292.455ZM151.311 212.652C73.1982 212.652 10.1665 288.374 10.1665 381.389H12.1665C12.1665 289.127 74.6243 214.652 151.311 214.652V212.652ZM10.1665 381.389C10.1665 381.633 10.167 381.876 10.1678 382.119L12.1678 382.112C12.167 381.871 12.1665 381.63 12.1665 381.389H10.1665ZM11.1678 383.115H291.454V381.115H11.1678V383.115Z" fill="#216958" mask="url(#path-2-inside-1)"/>
<circle cx="151.045" cy="124.445" r="113.611" fill="#FFEAE6" stroke="black"/>
<path d="M151.045 182.421C151.045 200.366 177.732 200.366 177.732 182.421" stroke="black"/>
<path d="M150.124 182.421C150.124 200.366 123.437 200.366 123.437 182.421" stroke="black"/>
<path d="M128.459 124.445C128.459 134.271 125.803 143.144 121.535 149.546C117.265 155.951 111.42 159.835 105.032 159.835C98.6445 159.835 92.8001 155.951 88.5298 149.546C84.2619 143.144 81.6059 134.271 81.6059 124.445C81.6059 114.619 84.2619 105.746 88.5298 99.3444C92.8001 92.939 98.6445 89.0552 105.032 89.0552C111.42 89.0552 117.265 92.939 121.535 99.3444C125.803 105.746 128.459 114.619 128.459 124.445Z" fill="white" stroke="black"/>
<path d="M220.484 124.445C220.484 134.271 217.828 143.144 213.56 149.546C209.29 155.951 203.445 159.835 197.057 159.835C190.669 159.835 184.825 155.951 180.555 149.546C176.287 143.144 173.631 134.271 173.631 124.445C173.631 114.619 176.287 105.746 180.555 99.3444C184.825 92.939 190.669 89.0552 197.057 89.0552C203.445 89.0552 209.29 92.939 213.56 99.3444C217.828 105.746 220.484 114.619 220.484 124.445Z" fill="white" stroke="black"/>
<path d="M128.596 123.394C128.596 133.205 125.944 142.064 121.683 148.456C117.419 154.852 111.584 158.73 105.206 158.73C98.8277 158.73 92.9922 154.852 88.7284 148.456C84.467 142.064 81.8149 133.205 81.8149 123.394C81.8149 113.583 84.467 104.723 88.7284 98.331C92.9922 91.9354 98.8277 88.0575 105.206 88.0575C111.584 88.0575 117.419 91.9354 121.683 98.331C125.944 104.723 128.596 113.583 128.596 123.394Z" fill="black" stroke="black"/>
<path d="M220.484 123.394C220.484 133.205 217.832 142.064 213.571 148.456C209.307 154.852 203.471 158.73 197.093 158.73C190.715 158.73 184.88 154.852 180.616 148.456C176.354 142.064 173.702 133.205 173.702 123.394C173.702 113.583 176.354 104.723 180.616 98.331C184.88 91.9354 190.715 88.0575 197.093 88.0575C203.471 88.0575 209.307 91.9354 213.571 98.331C217.832 104.723 220.484 113.583 220.484 123.394Z" fill="black" stroke="black"/>
<ellipse cx="97.7275" cy="106.833" rx="10.7272" ry="15.1615" transform="rotate(44.0326 97.7275 106.833)" fill="white"/>
<ellipse cx="189.615" cy="106.833" rx="10.7272" ry="15.1615" transform="rotate(44.0326 189.615 106.833)" fill="white"/>
<ellipse cx="108.754" cy="143.588" rx="10.7272" ry="15.1615" transform="rotate(44.0326 108.754 143.588)" fill="white"/>
<ellipse cx="200.642" cy="143.588" rx="10.7272" ry="15.1615" transform="rotate(44.0326 200.642 143.588)" fill="white"/>
<path d="M124.002 157.392C124.002 160.725 121.975 163.804 118.573 166.073C115.174 168.339 110.449 169.756 105.205 169.756C99.9618 169.756 95.2372 168.339 91.8381 166.073C88.4356 163.804 86.409 160.725 86.409 157.392C86.409 154.059 88.4356 150.98 91.8381 148.712C95.2372 146.446 99.9618 145.028 105.205 145.028C110.449 145.028 115.174 146.446 118.573 148.712C121.975 150.98 124.002 154.059 124.002 157.392Z" fill="#7CFFF7" stroke="#008981"/>
<path d="M219.565 157.392C219.565 160.725 217.538 163.804 214.136 166.073C210.737 168.339 206.012 169.756 200.769 169.756C195.525 169.756 190.8 168.339 187.401 166.073C183.999 163.804 181.972 160.725 181.972 157.392C181.972 154.059 183.999 150.98 187.401 148.712C190.8 146.446 195.525 145.028 200.769 145.028C206.012 145.028 210.737 146.446 214.136 148.712C217.538 150.98 219.565 154.059 219.565 157.392Z" fill="#7CFFF7" stroke="#008981"/>
<mask id="path-17-inside-2" fill="white">
<path fill-rule="evenodd" clip-rule="evenodd" d="M267.711 94.0768H33.4584C43.8221 41.1679 92.3206 1.13138 150.585 1.13138C208.849 1.13138 257.348 41.1679 267.711 94.0768Z"/>
</mask>
<path fill-rule="evenodd" clip-rule="evenodd" d="M267.711 94.0768H33.4584C43.8221 41.1679 92.3206 1.13138 150.585 1.13138C208.849 1.13138 257.348 41.1679 267.711 94.0768Z" fill="#F3FF67"/>
<path d="M33.4584 94.0768L32.4771 93.8846L32.2436 95.0768H33.4584V94.0768ZM267.711 94.0768V95.0768H268.926L268.693 93.8846L267.711 94.0768ZM33.4584 95.0768H267.711V93.0768H33.4584V95.0768ZM34.4398 94.269C44.7075 41.8499 92.7776 2.13138 150.585 2.13138V0.131378C91.8636 0.131378 42.9367 40.486 32.4771 93.8846L34.4398 94.269ZM150.585 2.13138C208.392 2.13138 256.462 41.8499 266.73 94.269L268.693 93.8846C258.233 40.486 209.306 0.131378 150.585 0.131378V2.13138Z" fill="black" mask="url(#path-17-inside-2)"/>
<rect x="36.9338" y="94.9971" width="228.222" height="19.3253" fill="#F0C3FF"/>
<path d="M24.1396 85.9111L278.482 85.911V102.243H24.1396V85.9111Z" fill="#FAFF00" stroke="black"/>
<mask id="path-21-inside-3" fill="white">
<path fill-rule="evenodd" clip-rule="evenodd" d="M97.676 226.374L150.124 317.217L203.093 225.474C216.54 231.877 228.963 240.7 239.987 251.494V382.115H62.6345V251.494C73.1504 241.198 84.9395 232.694 97.676 226.374Z"/>
</mask>
<path fill-rule="evenodd" clip-rule="evenodd" d="M97.676 226.374L150.124 317.217L203.093 225.474C216.54 231.877 228.963 240.7 239.987 251.494V382.115H62.6345V251.494C73.1504 241.198 84.9395 232.694 97.676 226.374Z" fill="#FF8A00"/>
<path d="M150.124 317.217L149.258 317.717L150.124 319.217L150.99 317.717L150.124 317.217ZM97.676 226.374L98.542 225.874L98.0726 225.061L97.2315 225.479L97.676 226.374ZM203.093 225.474L203.522 224.571L202.688 224.174L202.227 224.974L203.093 225.474ZM239.987 251.494H240.987V251.073L240.686 250.779L239.987 251.494ZM239.987 382.115V383.115H240.987V382.115H239.987ZM62.6345 382.115H61.6345V383.115H62.6345V382.115ZM62.6345 251.494L61.9349 250.779L61.6345 251.073V251.494H62.6345ZM150.99 316.717L98.542 225.874L96.81 226.874L149.258 317.717L150.99 316.717ZM202.227 224.974L149.258 316.717L150.99 317.717L203.959 225.974L202.227 224.974ZM202.663 226.377C216.003 232.729 228.337 241.487 239.287 252.208L240.686 250.779C229.589 239.914 217.076 231.025 203.522 224.571L202.663 226.377ZM238.987 251.494V382.115H240.987V251.494H238.987ZM239.987 381.115H62.6345V383.115H239.987V381.115ZM63.6345 382.115V251.494H61.6345V382.115H63.6345ZM63.3341 252.208C73.7798 241.981 85.4839 233.541 98.1205 227.27L97.2315 225.479C84.3951 231.848 72.5209 240.414 61.9349 250.779L63.3341 252.208Z" fill="black" mask="url(#path-21-inside-3)"/>
</svg>
