<svg width="333" height="385" viewBox="0 0 333 385" fill="none" xmlns="http://www.w3.org/2000/svg">
<path d="M0.753156 260.063L37.3307 102.779H264.759L301.336 260.063H0.753156Z" fill="white" stroke="black"/>
<mask id="path-2-inside-1" fill="white">
<path fill-rule="evenodd" clip-rule="evenodd" d="M291.454 381.115C291.455 380.874 291.455 380.632 291.455 380.389C291.455 287.751 228.71 212.652 151.311 212.652C73.9113 212.652 11.1666 287.751 11.1666 380.389C11.1666 380.632 11.167 380.874 11.1679 381.115H291.454Z"/>
</mask>
<path fill-rule="evenodd" clip-rule="evenodd" d="M291.454 381.115C291.455 380.874 291.455 380.632 291.455 380.389C291.455 287.751 228.71 212.652 151.311 212.652C73.9113 212.652 11.1666 287.751 11.1666 380.389C11.1666 380.632 11.167 380.874 11.1679 381.115H291.454Z" fill="white"/>
<path d="M291.454 381.115V382.115H292.45L292.454 381.119L291.454 381.115ZM11.1679 381.115L10.1679 381.119L10.1714 382.115H11.1679V381.115ZM292.454 381.119C292.455 380.876 292.455 380.633 292.455 380.389H290.455C290.455 380.63 290.455 380.871 290.454 381.112L292.454 381.119ZM292.455 380.389C292.455 287.374 229.423 211.652 151.311 211.652V213.652C227.997 213.652 290.455 288.127 290.455 380.389H292.455ZM151.311 211.652C73.1982 211.652 10.1666 287.374 10.1666 380.389H12.1666C12.1666 288.127 74.6244 213.652 151.311 213.652V211.652ZM10.1666 380.389C10.1666 380.633 10.167 380.876 10.1679 381.119L12.1678 381.112C12.167 380.871 12.1666 380.63 12.1666 380.389H10.1666ZM11.1679 382.115H291.454V380.115H11.1679V382.115Z" fill="black" mask="url(#path-2-inside-1)"/>
<mask id="path-4-inside-2" fill="white">
<path fill-rule="evenodd" clip-rule="evenodd" d="M285.398 381.11C285.399 380.879 285.399 380.647 285.399 380.416C285.399 291.78 225.366 219.926 151.311 219.926C77.2557 219.926 17.2222 291.78 17.2222 380.416C17.2222 380.647 17.2226 380.879 17.2234 381.11H285.398Z"/>
</mask>
<path fill-rule="evenodd" clip-rule="evenodd" d="M285.398 381.11C285.399 380.879 285.399 380.647 285.399 380.416C285.399 291.78 225.366 219.926 151.311 219.926C77.2557 219.926 17.2222 291.78 17.2222 380.416C17.2222 380.647 17.2226 380.879 17.2234 381.11H285.398Z" fill="black"/>
<path d="M285.398 381.11V382.11H286.395L286.398 381.114L285.398 381.11ZM17.2234 381.11L16.2234 381.114L16.227 382.11H17.2234V381.11ZM286.398 381.114C286.399 380.881 286.399 380.648 286.399 380.416H284.399C284.399 380.646 284.399 380.877 284.398 381.107L286.398 381.114ZM286.399 380.416C286.399 291.403 226.079 218.926 151.311 218.926V220.926C224.653 220.926 284.399 292.156 284.399 380.416H286.399ZM151.311 218.926C76.5426 218.926 16.2222 291.403 16.2222 380.416H18.2222C18.2222 292.156 77.9688 220.926 151.311 220.926V218.926ZM16.2222 380.416C16.2222 380.649 16.2226 380.881 16.2234 381.114L18.2234 381.107C18.2226 380.877 18.2222 380.646 18.2222 380.416H16.2222ZM17.2234 382.11H285.398V380.11H17.2234V382.11Z" fill="black" mask="url(#path-4-inside-2)"/>
<circle cx="151.045" cy="123.445" r="113.611" fill="white" stroke="black"/>
<path d="M151.045 181.421C151.045 199.366 177.732 199.366 177.732 181.421" stroke="black"/>
<path d="M150.125 181.421C150.125 199.366 123.437 199.366 123.437 181.421" stroke="black"/>
<path d="M128.459 123.445C128.459 133.271 125.803 142.144 121.535 148.546C117.265 154.951 111.42 158.835 105.032 158.835C98.6442 158.835 92.7999 154.951 88.5296 148.546C84.2617 142.144 81.6057 133.271 81.6057 123.445C81.6057 113.619 84.2617 104.746 88.5296 98.3445C92.7999 91.9391 98.6442 88.0553 105.032 88.0553C111.42 88.0553 117.265 91.9391 121.535 98.3445C125.803 104.746 128.459 113.619 128.459 123.445Z" fill="white" stroke="black"/>
<path d="M220.484 123.445C220.484 133.271 217.828 142.144 213.56 148.546C209.29 154.951 203.445 158.835 197.057 158.835C190.669 158.835 184.825 154.951 180.555 148.546C176.287 142.144 173.631 133.271 173.631 123.445C173.631 113.619 176.287 104.746 180.555 98.3445C184.825 91.9391 190.669 88.0553 197.057 88.0553C203.445 88.0553 209.29 91.9391 213.56 98.3445C217.828 104.746 220.484 113.619 220.484 123.445Z" fill="white" stroke="black"/>
<mask id="path-11-inside-3" fill="white">
<path fill-rule="evenodd" clip-rule="evenodd" d="M267.711 93.0768H33.4582C43.8219 40.1679 92.3204 0.131378 150.585 0.131378C208.849 0.131378 257.347 40.1679 267.711 93.0768Z"/>
</mask>
<path fill-rule="evenodd" clip-rule="evenodd" d="M267.711 93.0768H33.4582C43.8219 40.1679 92.3204 0.131378 150.585 0.131378C208.849 0.131378 257.347 40.1679 267.711 93.0768Z" fill="white"/>
<path d="M33.4582 93.0768L32.4768 92.8845L32.2433 94.0768H33.4582V93.0768ZM267.711 93.0768V94.0768H268.926L268.692 92.8845L267.711 93.0768ZM33.4582 94.0768H267.711V92.0768H33.4582V94.0768ZM34.4395 93.269C44.7073 40.8498 92.7774 1.13138 150.585 1.13138V-0.868622C91.8634 -0.868622 42.9364 39.4859 32.4768 92.8845L34.4395 93.269ZM150.585 1.13138C208.392 1.13138 256.462 40.8498 266.73 93.269L268.692 92.8845C258.233 39.4859 209.306 -0.868622 150.585 -0.868622V1.13138Z" fill="black" mask="url(#path-11-inside-3)"/>
<rect x="36.9336" y="93.997" width="228.222" height="19.3253" fill="white"/>
<path d="M33.7526 103.62V85.2749L331.834 73.3516V103.62H33.7526Z" fill="white" stroke="black"/>
<circle cx="153.345" cy="46.6041" r="20.2057" fill="white" stroke="white"/>
<line x1="155.224" y1="33.2189" x2="156.144" y2="44.2619" stroke="white"/>
<line x1="154.677" y1="33.5751" x2="162.959" y2="32.7628" stroke="white"/>
<line x1="155.597" y1="39.0966" x2="163.88" y2="38.2843" stroke="white"/>
<line x1="155.597" y1="44.6181" x2="163.88" y2="43.8058" stroke="white"/>
<line y1="-0.5" x2="12.7751" y2="-0.5" transform="matrix(0.0720346 0.997402 -0.995409 0.0957124 140.922 34.3223)" stroke="white"/>
<line y1="-0.5" x2="12.7751" y2="-0.5" transform="matrix(0.0720346 0.997402 -0.995409 0.0957124 149.204 33.2604)" stroke="white"/>
<line x1="141.787" y1="40.1255" x2="150.069" y2="39.2052" stroke="white"/>
<line x1="142.196" y1="48.5511" x2="147.717" y2="54.0727" stroke="white"/>
<line x1="151.479" y1="47.3123" x2="147.798" y2="53.754" stroke="white"/>
<line x1="148.709" y1="60.0184" x2="147.789" y2="53.5767" stroke="white"/>
<line x1="156.088" y1="58.8804" x2="159.769" y2="46.9172" stroke="white"/>
<line x1="159.731" y1="46.7701" x2="167.093" y2="56.8929" stroke="white"/>
<line x1="157.349" y1="53.0252" x2="163.791" y2="51.1847" stroke="white"/>
<circle cx="151.345" cy="122.895" r="108.061" fill="black" stroke="black"/>
<path d="M231.044 67.8938C231.044 76.2437 226.148 83.8569 218.123 89.4038C210.1 94.9492 198.989 98.3952 186.693 98.3952C174.396 98.3952 163.286 94.9492 155.263 89.4038C147.238 83.8569 142.342 76.2437 142.342 67.8938C142.342 59.5438 147.238 51.9306 155.263 46.3838C163.286 40.8383 174.396 37.3924 186.693 37.3924C198.989 37.3924 210.1 40.8383 218.123 46.3838C226.148 51.9306 231.044 59.5438 231.044 67.8938Z" fill="white" stroke="black"/>
<path d="M245.635 122.041C245.635 127.875 242.214 133.211 236.575 137.109C230.937 141.006 223.121 143.432 214.464 143.432C205.807 143.432 197.992 141.006 192.354 137.109C186.714 133.211 183.293 127.875 183.293 122.041C183.293 116.206 186.714 110.871 192.354 106.972C197.992 103.076 205.807 100.649 214.464 100.649C223.121 100.649 230.937 103.076 236.575 106.972C242.214 110.871 245.635 116.206 245.635 122.041Z" fill="white" stroke="black"/>
<path d="M144.894 178.612C144.894 184.446 141.473 189.782 135.833 193.68C130.196 197.577 122.38 200.004 113.723 200.004C105.066 200.004 97.2503 197.577 91.6126 193.68C85.9729 189.782 82.5521 184.446 82.5521 178.612C82.5521 172.778 85.9729 167.442 91.6126 163.544C97.2503 159.647 105.066 157.221 113.723 157.221C122.38 157.221 130.196 159.647 135.833 163.544C141.473 167.442 144.894 172.778 144.894 178.612Z" fill="white" stroke="black"/>
<path d="M136.919 70.2038C136.919 76.7809 133.063 82.7891 126.719 87.1741C120.377 91.5578 111.588 94.2851 101.857 94.2851C92.1251 94.2851 83.3366 91.5578 76.9946 87.1741C70.6506 82.7891 66.7943 76.7809 66.7943 70.2038C66.7943 63.6267 70.6506 57.6185 76.9946 53.2335C83.3366 48.8498 92.1251 46.1224 101.857 46.1224C111.588 46.1224 120.377 48.8498 126.719 53.2335C133.063 57.6185 136.919 63.6267 136.919 70.2038Z" fill="white" stroke="black"/>
<path d="M228.555 173.136C228.555 180.561 224.201 187.337 217.053 192.278C209.907 197.217 200.008 200.288 189.05 200.288C178.091 200.288 168.192 197.217 161.046 192.278C153.898 187.337 149.545 180.561 149.545 173.136C149.545 165.711 153.898 158.935 161.046 153.995C168.192 149.055 178.091 145.984 189.05 145.984C200.008 145.984 209.907 149.055 217.053 153.995C224.201 158.935 228.555 165.711 228.555 173.136Z" fill="white" stroke="black"/>
<path d="M140.894 126.298C140.894 133.648 135.87 140.39 127.557 145.322C119.255 150.248 107.753 153.311 95.0224 153.311C82.2913 153.311 70.7898 150.248 62.4879 145.322C54.1752 140.39 49.1509 133.648 49.1509 126.298C49.1509 118.948 54.1752 112.206 62.4879 107.273C70.7898 102.348 82.2913 99.2852 95.0224 99.2852C107.753 99.2852 119.255 102.348 127.557 107.273C135.87 112.206 140.894 118.948 140.894 126.298Z" fill="white" stroke="black"/>
<path d="M157.099 63.7808C156.113 63.7613 155.342 63.3975 154.785 62.6895C154.228 61.9815 153.994 61.0757 154.082 59.9722L154.118 59.6573C154.201 58.8711 154.433 58.1534 154.814 57.5039C155.2 56.8545 155.669 56.3662 156.221 56.0391C156.772 55.7071 157.368 55.5484 158.008 55.563C158.823 55.5826 159.463 55.8535 159.927 56.376C160.39 56.8985 160.644 57.6065 160.688 58.5C160.703 58.8174 160.693 59.1348 160.659 59.4522L160.578 60.0601H155.4C155.312 60.7779 155.429 61.3882 155.752 61.8911C156.079 62.3941 156.565 62.6553 157.209 62.6748C157.991 62.6944 158.713 62.3428 159.377 61.6201L160.139 62.2647C159.807 62.7432 159.377 63.1192 158.85 63.3926C158.327 63.6612 157.744 63.7906 157.099 63.7808ZM157.942 56.669C157.395 56.6543 156.916 56.8399 156.506 57.2256C156.101 57.6114 155.779 58.1851 155.539 58.9468L159.392 58.9541L159.421 58.8369C159.499 58.2217 159.399 57.7115 159.121 57.3062C158.847 56.896 158.454 56.6836 157.942 56.669ZM164.856 58.5952L167.009 55.7095H168.635L165.456 59.6939L167.39 63.6343H165.947L164.636 60.6753L162.402 63.6343H160.783L164.057 59.562L162.182 55.7095H163.633L164.856 58.5952ZM170.18 63.6343H168.862L170.239 55.7095H171.557L170.18 63.6343ZM171.272 52.8164C171.496 52.8067 171.682 52.875 171.828 53.0215C171.98 53.1631 172.055 53.3511 172.055 53.5855C172.051 53.815 171.975 54.003 171.828 54.1494C171.687 54.2959 171.501 54.3741 171.272 54.3838C171.042 54.3936 170.854 54.3277 170.708 54.1861C170.561 54.0445 170.491 53.8589 170.495 53.6294C170.5 53.3999 170.574 53.2095 170.715 53.0581C170.857 52.9068 171.042 52.8262 171.272 52.8164ZM177.256 61.4883C177.329 60.9414 177.029 60.5557 176.355 60.3311L174.978 59.9283C173.816 59.5279 173.254 58.8638 173.293 57.9361C173.327 57.2378 173.645 56.6665 174.245 56.2222C174.851 55.773 175.561 55.5533 176.377 55.563C177.178 55.5728 177.827 55.8072 178.325 56.2661C178.828 56.7202 179.07 57.3135 179.05 58.0459L177.732 58.0386C177.742 57.6431 177.617 57.3208 177.358 57.0718C177.099 56.8228 176.755 56.6934 176.325 56.6836C175.867 56.6739 175.471 56.7862 175.139 57.0205C174.831 57.2403 174.653 57.5284 174.604 57.8848C174.541 58.3438 174.822 58.6783 175.447 58.8882L176.113 59.0713C177.021 59.3057 177.666 59.6109 178.047 59.9868C178.428 60.3628 178.603 60.8291 178.574 61.3858C178.545 61.8789 178.384 62.3086 178.091 62.6748C177.798 63.041 177.407 63.3218 176.919 63.5171C176.43 63.7076 175.91 63.7954 175.359 63.7808C174.519 63.771 173.825 63.5269 173.279 63.0484C172.732 62.565 172.468 61.9449 172.488 61.188L173.813 61.1953C173.813 61.6397 173.955 61.9961 174.238 62.2647C174.521 62.5332 174.909 62.6675 175.403 62.6675C175.886 62.6773 176.304 62.5772 176.655 62.3672C177.007 62.1524 177.207 61.8594 177.256 61.4883ZM183.423 53.7906L183.086 55.7095H184.529L184.346 56.7569H182.91L182.082 61.6861C182.068 61.813 182.065 61.9302 182.075 62.0376C182.109 62.4185 182.317 62.6089 182.698 62.6089C182.859 62.6089 183.074 62.5845 183.342 62.5357L183.24 63.6416C182.922 63.7295 182.6 63.7735 182.273 63.7735C181.745 63.7637 181.35 63.5708 181.086 63.1949C180.823 62.814 180.72 62.3037 180.779 61.6641L181.584 56.7569H180.185L180.368 55.7095H181.767L182.104 53.7906H183.423ZM188.183 63.7808C187.197 63.7613 186.426 63.3975 185.869 62.6895C185.312 61.9815 185.078 61.0757 185.166 59.9722L185.202 59.6573C185.285 58.8711 185.517 58.1534 185.898 57.5039C186.284 56.8545 186.753 56.3662 187.304 56.0391C187.856 55.7071 188.452 55.5484 189.092 55.563C189.907 55.5826 190.547 55.8535 191.011 56.376C191.474 56.8985 191.728 57.6065 191.772 58.5C191.787 58.8174 191.777 59.1348 191.743 59.4522L191.662 60.0601H186.484C186.396 60.7779 186.513 61.3882 186.836 61.8911C187.163 62.3941 187.649 62.6553 188.293 62.6748C189.075 62.6944 189.797 62.3428 190.461 61.6201L191.223 62.2647C190.891 62.7432 190.461 63.1192 189.934 63.3926C189.411 63.6612 188.828 63.7906 188.183 63.7808ZM189.026 56.669C188.479 56.6543 188 56.8399 187.59 57.2256C187.185 57.6114 186.863 58.1851 186.623 58.9468L190.476 58.9541L190.505 58.8369C190.583 58.2217 190.483 57.7115 190.205 57.3062C189.931 56.896 189.538 56.6836 189.026 56.669ZM195.163 55.7022L194.973 56.7056C195.686 55.9243 196.496 55.5435 197.405 55.563C198.152 55.5826 198.703 55.8413 199.06 56.3394C199.416 56.8374 199.548 57.5381 199.455 58.4414L198.591 63.6343H197.265L198.137 58.4195C198.166 58.1802 198.169 57.958 198.144 57.753C198.061 57.0694 197.658 56.7202 196.936 56.7056C196.14 56.6909 195.442 57.1158 194.841 57.98L193.86 63.6343H192.534L193.911 55.7095L195.163 55.7022ZM204.136 53.7906L203.799 55.7095H205.242L205.058 56.7569H203.623L202.795 61.6861C202.781 61.813 202.778 61.9302 202.788 62.0376C202.822 62.4185 203.03 62.6089 203.41 62.6089C203.572 62.6089 203.786 62.5845 204.055 62.5357L203.952 63.6416C203.635 63.7295 203.313 63.7735 202.986 63.7735C202.458 63.7637 202.063 63.5708 201.799 63.1949C201.535 62.814 201.433 62.3037 201.492 61.6641L202.297 56.7569H200.898L201.081 55.7095H202.48L202.817 53.7906H204.136ZM206.904 63.6343H205.586L206.963 55.7095H208.281L206.904 63.6343ZM207.995 52.8164C208.22 52.8067 208.406 52.875 208.552 53.0215C208.703 53.1631 208.779 53.3511 208.779 53.5855C208.774 53.815 208.699 54.003 208.552 54.1494C208.41 54.2959 208.225 54.3741 207.995 54.3838C207.766 54.3936 207.578 54.3277 207.431 54.1861C207.285 54.0445 207.214 53.8589 207.219 53.6294C207.224 53.3999 207.297 53.2095 207.439 53.0581C207.58 52.9068 207.766 52.8262 207.995 52.8164ZM213.921 63.6343C213.887 63.4927 213.869 63.3535 213.869 63.2168L213.891 62.7993C213.164 63.4732 212.392 63.8003 211.577 63.7808C210.879 63.771 210.31 63.5513 209.87 63.1216C209.436 62.687 209.238 62.1451 209.277 61.4956C209.326 60.6558 209.692 60.0015 210.376 59.5327C211.064 59.0591 211.968 58.8223 213.086 58.8223L214.47 58.8296L214.558 58.1997C214.607 57.7261 214.514 57.3526 214.28 57.0791C214.05 56.8008 213.703 56.6568 213.24 56.647C212.785 56.6372 212.383 56.7495 212.031 56.9839C211.684 57.2134 211.472 57.5186 211.394 57.8994L210.061 57.9068C210.105 57.4429 210.285 57.0327 210.603 56.6763C210.92 56.315 211.328 56.0367 211.826 55.8413C212.324 55.6411 212.839 55.5459 213.371 55.5557C214.197 55.5752 214.839 55.8267 215.298 56.3101C215.757 56.7886 215.95 57.4258 215.876 58.2217L215.232 62.1475L215.195 62.7115C215.185 62.98 215.215 63.2461 215.283 63.5098L215.268 63.6343H213.921ZM211.841 62.6089C212.265 62.6187 212.666 62.5186 213.042 62.3086C213.423 62.0938 213.75 61.7984 214.023 61.4224L214.309 59.7891L213.305 59.7818C212.471 59.7818 211.831 59.9136 211.387 60.1773C210.942 60.4409 210.691 60.8145 210.632 61.2979C210.588 61.669 210.674 61.979 210.888 62.2281C211.108 62.4722 211.426 62.5992 211.841 62.6089ZM218.506 63.6343H217.187L219.136 52.3843H220.461L218.506 63.6343ZM159.084 73.5557C159.978 73.5752 160.659 73.8951 161.128 74.5152L161.369 73.7095H162.593L160.688 84.6812H159.37L160.088 80.9019C159.453 81.5074 158.716 81.8003 157.876 81.7808C157.134 81.771 156.54 81.4903 156.096 80.9385C155.652 80.3867 155.412 79.6421 155.378 78.7046C155.349 78.0992 155.42 77.4619 155.591 76.793C155.762 76.1192 156.015 75.5332 156.352 75.0352C156.694 74.5323 157.097 74.1563 157.561 73.9073C158.025 73.6582 158.533 73.541 159.084 73.5557ZM156.741 77.8111L156.704 78.4263C156.689 79.1343 156.816 79.6861 157.085 80.0816C157.358 80.4722 157.749 80.6724 158.257 80.6822C159.004 80.7017 159.665 80.3452 160.242 79.6128L160.93 75.7163C160.608 75.0376 160.08 74.6885 159.348 74.669C158.679 74.6543 158.115 74.9107 157.656 75.438C157.197 75.9654 156.892 76.7564 156.741 77.8111ZM168.408 80.8506C167.788 81.4903 166.999 81.8003 166.042 81.7808C165.285 81.7613 164.724 81.4903 164.358 80.9678C163.996 80.4453 163.862 79.7325 163.955 78.8291L164.804 73.7095H166.13L165.273 78.8511C165.249 79.0659 165.244 79.2759 165.259 79.481C165.283 79.8326 165.388 80.1084 165.574 80.3086C165.759 80.5088 166.018 80.6162 166.35 80.6309C167.297 80.6602 168.03 80.2769 168.547 79.481L169.543 73.7095H170.869L169.492 81.6343H168.24L168.408 80.8506ZM174.905 81.7808C173.918 81.7613 173.147 81.3975 172.59 80.6895C172.033 79.9815 171.799 79.0757 171.887 77.9722L171.924 77.6573C172.007 76.8711 172.239 76.1534 172.619 75.5039C173.005 74.8545 173.474 74.3662 174.026 74.0391C174.577 73.7071 175.173 73.5484 175.813 73.563C176.628 73.5826 177.268 73.8535 177.732 74.376C178.196 74.8985 178.45 75.6065 178.493 76.5C178.508 76.8174 178.498 77.1348 178.464 77.4522L178.384 78.0601H173.205C173.117 78.7779 173.235 79.3882 173.557 79.8911C173.884 80.3941 174.37 80.6553 175.014 80.6748C175.796 80.6944 176.518 80.3428 177.182 79.6201L177.944 80.2647C177.612 80.7432 177.182 81.1192 176.655 81.3926C176.133 81.6612 175.549 81.7906 174.905 81.7808ZM175.747 74.669C175.2 74.6543 174.721 74.8399 174.311 75.2256C173.906 75.6114 173.584 76.1851 173.345 76.9468L177.197 76.9541L177.226 76.8369C177.304 76.2217 177.204 75.7115 176.926 75.3062C176.653 74.896 176.26 74.6836 175.747 74.669ZM184.162 79.4883C184.236 78.9414 183.935 78.5557 183.262 78.3311L181.885 77.9283C180.722 77.5279 180.161 76.8638 180.2 75.9361C180.234 75.2378 180.552 74.6665 181.152 74.2222C181.758 73.773 182.468 73.5533 183.283 73.563C184.084 73.5728 184.734 73.8072 185.232 74.2661C185.735 74.7202 185.976 75.3135 185.957 76.0459L184.638 76.0386C184.648 75.6431 184.524 75.3208 184.265 75.0718C184.006 74.8228 183.662 74.6934 183.232 74.6836C182.773 74.6739 182.378 74.7862 182.046 75.0205C181.738 75.2403 181.56 75.5284 181.511 75.8848C181.448 76.3438 181.728 76.6783 182.353 76.8882L183.02 77.0713C183.928 77.3057 184.573 77.6109 184.953 77.9868C185.334 78.3628 185.51 78.8291 185.481 79.3858C185.451 79.8789 185.29 80.3086 184.997 80.6748C184.704 81.041 184.314 81.3218 183.825 81.5171C183.337 81.7076 182.817 81.7954 182.265 81.7808C181.426 81.771 180.732 81.5269 180.185 81.0484C179.638 80.565 179.375 79.9449 179.394 79.188L180.72 79.1953C180.72 79.6397 180.862 79.9961 181.145 80.2647C181.428 80.5332 181.816 80.6675 182.309 80.6675C182.793 80.6773 183.21 80.5772 183.562 80.3672C183.913 80.1524 184.114 79.8594 184.162 79.4883ZM190.329 71.7906L189.992 73.7095H191.435L191.252 74.7569H189.817L188.989 79.6861C188.974 79.813 188.972 79.9302 188.982 80.0376C189.016 80.4185 189.223 80.6089 189.604 80.6089C189.765 80.6089 189.98 80.5845 190.249 80.5357L190.146 81.6416C189.829 81.7295 189.507 81.7735 189.179 81.7735C188.652 81.7637 188.257 81.5708 187.993 81.1949C187.729 80.814 187.627 80.3037 187.685 79.6641L188.491 74.7569H187.092L187.275 73.7095H188.674L189.011 71.7906H190.329ZM193.098 81.6343H191.78L193.157 73.7095H194.475L193.098 81.6343ZM194.189 70.8164C194.414 70.8067 194.599 70.875 194.746 71.0215C194.897 71.1631 194.973 71.3511 194.973 71.5855C194.968 71.815 194.892 72.003 194.746 72.1494C194.604 72.2959 194.419 72.3741 194.189 72.3838C193.96 72.3936 193.772 72.3277 193.625 72.1861C193.479 72.0445 193.408 71.8589 193.413 71.6294C193.418 71.3999 193.491 71.2095 193.633 71.0581C193.774 70.9068 193.96 70.8262 194.189 70.8164ZM199.668 73.563C200.332 73.5728 200.901 73.7534 201.374 74.105C201.848 74.4566 202.197 74.9424 202.422 75.5625C202.651 76.1778 202.729 76.8516 202.656 77.584L202.641 77.7451C202.549 78.5166 202.319 79.2149 201.953 79.8399C201.587 80.46 201.113 80.9434 200.532 81.2901C199.951 81.6367 199.314 81.8003 198.62 81.7808C197.961 81.771 197.392 81.5904 196.914 81.2388C196.44 80.8872 196.094 80.4087 195.874 79.8033C195.654 79.1978 195.576 78.5313 195.639 77.8037C195.713 76.9834 195.935 76.2461 196.306 75.5918C196.677 74.9375 197.153 74.4322 197.734 74.0757C198.32 73.7144 198.965 73.5435 199.668 73.563ZM196.972 77.8111C196.938 78.1187 196.938 78.4385 196.972 78.7705C197.021 79.3467 197.192 79.8057 197.485 80.1475C197.783 80.4893 198.179 80.6675 198.672 80.6822C199.111 80.6968 199.516 80.5894 199.887 80.3599C200.259 80.1255 200.571 79.774 200.825 79.3052C201.079 78.8365 201.242 78.3164 201.316 77.7451C201.355 77.2959 201.362 76.9175 201.338 76.6099C201.279 76.0191 201.101 75.5528 200.803 75.211C200.505 74.8692 200.11 74.6885 199.617 74.669C198.933 74.6543 198.352 74.9229 197.873 75.4746C197.395 76.0264 197.099 76.7491 196.987 77.6426L196.972 77.8111ZM206.274 73.7022L206.084 74.7056C206.797 73.9243 207.607 73.5435 208.515 73.563C209.262 73.5826 209.814 73.8413 210.171 74.3394C210.527 74.8374 210.659 75.5381 210.566 76.4414L209.702 81.6343H208.376L209.248 76.4195C209.277 76.1802 209.28 75.958 209.255 75.753C209.172 75.0694 208.769 74.7202 208.047 74.7056C207.251 74.6909 206.553 75.1158 205.952 75.98L204.971 81.6343H203.645L205.022 73.7095L206.274 73.7022ZM216.653 79.4883C216.726 78.9414 216.426 78.5557 215.752 78.3311L214.375 77.9283C213.213 77.5279 212.651 76.8638 212.69 75.9361C212.724 75.2378 213.042 74.6665 213.642 74.2222C214.248 73.773 214.958 73.5533 215.774 73.563C216.575 73.5728 217.224 73.8072 217.722 74.2661C218.225 74.7202 218.467 75.3135 218.447 76.0459L217.129 76.0386C217.138 75.6431 217.014 75.3208 216.755 75.0718C216.496 74.8228 216.152 74.6934 215.722 74.6836C215.263 74.6739 214.868 74.7862 214.536 75.0205C214.228 75.2403 214.05 75.5284 214.001 75.8848C213.938 76.3438 214.219 76.6783 214.844 76.8882L215.51 77.0713C216.418 77.3057 217.063 77.6109 217.444 77.9868C217.825 78.3628 218 78.8291 217.971 79.3858C217.942 79.8789 217.781 80.3086 217.488 80.6748C217.195 81.041 216.804 81.3218 216.316 81.5171C215.827 81.7076 215.307 81.7954 214.756 81.7808C213.916 81.771 213.222 81.5269 212.676 81.0484C212.129 80.565 211.865 79.9449 211.885 79.188L213.21 79.1953C213.21 79.6397 213.352 79.9961 213.635 80.2647C213.918 80.5332 214.306 80.6675 214.8 80.6675C215.283 80.6773 215.7 80.5772 216.052 80.3672C216.404 80.1524 216.604 79.8594 216.653 79.4883Z" fill="black"/>
<path d="M202.381 117.051L200.88 125.921C200.782 126.668 200.531 127.237 200.126 127.627C199.725 128.018 199.2 128.209 198.551 128.199C198.292 128.189 198.002 128.14 197.679 128.052L197.797 126.968C197.977 127.012 198.18 127.039 198.404 127.049C199.034 127.049 199.413 126.673 199.54 125.921L201.056 117.051H202.381ZM201.283 114.971C201.288 114.742 201.359 114.551 201.495 114.4C201.637 114.249 201.825 114.168 202.059 114.158C202.284 114.148 202.469 114.219 202.616 114.371C202.767 114.517 202.843 114.703 202.843 114.927C202.838 115.157 202.762 115.345 202.616 115.491C202.469 115.638 202.281 115.716 202.052 115.726C201.832 115.735 201.649 115.667 201.503 115.521C201.356 115.374 201.283 115.191 201.283 114.971ZM207.582 116.905C208.246 116.915 208.815 117.095 209.288 117.447C209.762 117.798 210.111 118.284 210.336 118.904C210.565 119.52 210.643 120.193 210.57 120.926L210.555 121.087C210.463 121.858 210.233 122.557 209.867 123.182C209.501 123.802 209.027 124.285 208.446 124.632C207.865 124.979 207.228 125.142 206.534 125.123C205.875 125.113 205.306 124.932 204.828 124.581C204.354 124.229 204.007 123.751 203.788 123.145C203.568 122.54 203.49 121.873 203.553 121.146C203.627 120.325 203.849 119.588 204.22 118.934C204.591 118.279 205.067 117.774 205.648 117.418C206.234 117.056 206.879 116.885 207.582 116.905ZM204.886 121.153C204.852 121.46 204.852 121.78 204.886 122.112C204.935 122.689 205.106 123.147 205.399 123.489C205.697 123.831 206.092 124.009 206.586 124.024C207.025 124.039 207.43 123.931 207.801 123.702C208.173 123.467 208.485 123.116 208.739 122.647C208.993 122.178 209.156 121.658 209.23 121.087C209.269 120.638 209.276 120.259 209.252 119.952C209.193 119.361 209.015 118.895 208.717 118.553C208.419 118.211 208.024 118.03 207.53 118.011C206.847 117.996 206.266 118.265 205.787 118.816C205.309 119.368 205.013 120.091 204.901 120.984L204.886 121.153ZM214.401 121.321L213.36 122.251L212.892 124.976H211.566L213.522 113.726H214.847L213.675 120.45L214.488 119.629L217.301 117.051H219.022L215.382 120.428L217.887 124.976H216.437L214.401 121.321ZM222.296 125.123C221.31 125.103 220.538 124.739 219.982 124.031C219.425 123.323 219.191 122.418 219.278 121.314L219.315 120.999C219.398 120.213 219.63 119.495 220.011 118.846C220.397 118.196 220.865 117.708 221.417 117.381C221.969 117.049 222.565 116.89 223.204 116.905C224.02 116.924 224.659 117.195 225.123 117.718C225.587 118.24 225.841 118.948 225.885 119.842C225.9 120.159 225.89 120.477 225.856 120.794L225.775 121.402H220.597C220.509 122.12 220.626 122.73 220.948 123.233C221.276 123.736 221.761 123.997 222.406 124.017C223.187 124.036 223.91 123.685 224.574 122.962L225.336 123.606C225.004 124.085 224.574 124.461 224.047 124.734C223.524 125.003 222.941 125.132 222.296 125.123ZM223.138 118.011C222.591 117.996 222.113 118.182 221.703 118.567C221.298 118.953 220.975 119.527 220.736 120.289L224.589 120.296L224.618 120.179C224.696 119.564 224.596 119.053 224.318 118.648C224.044 118.238 223.651 118.025 223.138 118.011ZM231.554 122.83C231.627 122.283 231.327 121.897 230.653 121.673L229.276 121.27C228.114 120.87 227.552 120.206 227.591 119.278C227.626 118.58 227.943 118.008 228.544 117.564C229.149 117.115 229.86 116.895 230.675 116.905C231.476 116.915 232.125 117.149 232.623 117.608C233.126 118.062 233.368 118.655 233.348 119.388L232.03 119.38C232.04 118.985 231.915 118.663 231.656 118.414C231.398 118.165 231.053 118.035 230.624 118.025C230.165 118.016 229.769 118.128 229.437 118.362C229.13 118.582 228.951 118.87 228.902 119.227C228.839 119.686 229.12 120.02 229.745 120.23L230.411 120.413C231.319 120.647 231.964 120.953 232.345 121.329C232.726 121.705 232.902 122.171 232.872 122.728C232.843 123.221 232.682 123.65 232.389 124.017C232.096 124.383 231.705 124.664 231.217 124.859C230.729 125.049 230.209 125.137 229.657 125.123C228.817 125.113 228.124 124.869 227.577 124.39C227.03 123.907 226.766 123.287 226.786 122.53L228.111 122.537C228.111 122.981 228.253 123.338 228.536 123.606C228.819 123.875 229.208 124.009 229.701 124.009C230.184 124.019 230.602 123.919 230.953 123.709C231.305 123.494 231.505 123.201 231.554 122.83Z" fill="black"/>
<path d="M99.305 177.629C99.2366 178.425 98.9632 179.089 98.4847 179.621C98.0111 180.149 97.4324 180.407 96.7489 180.398C96.1336 180.383 95.5257 180.102 94.9251 179.555L94.4857 179.131C94.1341 178.803 93.7972 178.64 93.4749 178.64C92.8109 178.625 92.3714 179.026 92.1566 179.841L92.098 180.112L90.9554 180.134C91.0335 179.343 91.3094 178.694 91.783 178.186C92.2616 177.673 92.845 177.426 93.5335 177.446C94.1146 177.461 94.6688 177.695 95.1961 178.149L95.848 178.757C96.18 179.055 96.4998 179.204 96.8074 179.204C97.1737 179.204 97.4837 179.069 97.7376 178.801C97.9964 178.532 98.1698 178.149 98.2576 177.651L99.305 177.629ZM108.914 183.327C108.88 183.186 108.863 183.047 108.863 182.91L108.885 182.492C108.158 183.166 107.386 183.493 106.571 183.474C105.872 183.464 105.304 183.244 104.864 182.815C104.43 182.38 104.232 181.838 104.271 181.189C104.32 180.349 104.686 179.694 105.369 179.226C106.058 178.752 106.961 178.515 108.079 178.515L109.464 178.523L109.552 177.893C109.6 177.419 109.508 177.046 109.273 176.772C109.044 176.494 108.697 176.35 108.233 176.34C107.779 176.33 107.376 176.443 107.025 176.677C106.678 176.906 106.466 177.212 106.388 177.592L105.055 177.6C105.098 177.136 105.279 176.726 105.597 176.369C105.914 176.008 106.322 175.73 106.82 175.534C107.318 175.334 107.833 175.239 108.365 175.249C109.19 175.268 109.832 175.52 110.291 176.003C110.75 176.482 110.943 177.119 110.87 177.915L110.225 181.84L110.189 182.404C110.179 182.673 110.208 182.939 110.277 183.203L110.262 183.327H108.914ZM106.834 182.302C107.259 182.312 107.66 182.212 108.035 182.002C108.416 181.787 108.743 181.491 109.017 181.115L109.303 179.482L108.299 179.475C107.464 179.475 106.825 179.607 106.38 179.87C105.936 180.134 105.684 180.507 105.626 180.991C105.582 181.362 105.667 181.672 105.882 181.921C106.102 182.165 106.419 182.292 106.834 182.302ZM116.993 176.611L116.37 176.545C115.521 176.545 114.852 176.928 114.364 177.695L113.389 183.327H112.064L113.441 175.402L114.722 175.395L114.525 176.318C115.086 175.581 115.748 175.222 116.51 175.241C116.671 175.241 116.881 175.278 117.139 175.351L116.993 176.611ZM120.926 173.484L120.589 175.402H122.032L121.849 176.45H120.413L119.586 181.379C119.571 181.506 119.569 181.623 119.578 181.731C119.613 182.111 119.82 182.302 120.201 182.302C120.362 182.302 120.577 182.277 120.846 182.229L120.743 183.335C120.426 183.423 120.103 183.466 119.776 183.466C119.249 183.457 118.853 183.264 118.59 182.888C118.326 182.507 118.223 181.997 118.282 181.357L119.088 176.45H117.689L117.872 175.402H119.271L119.608 173.484H120.926ZM134.827 177.629C134.759 178.425 134.486 179.089 134.007 179.621C133.534 180.149 132.955 180.407 132.271 180.398C131.656 180.383 131.048 180.102 130.448 179.555L130.008 179.131C129.657 178.803 129.32 178.64 128.997 178.64C128.333 178.625 127.894 179.026 127.679 179.841L127.62 180.112L126.478 180.134C126.556 179.343 126.832 178.694 127.305 178.186C127.784 177.673 128.368 177.426 129.056 177.446C129.637 177.461 130.191 177.695 130.719 178.149L131.37 178.757C131.702 179.055 132.022 179.204 132.33 179.204C132.696 179.204 133.006 179.069 133.26 178.801C133.519 178.532 133.692 178.149 133.78 177.651L134.827 177.629Z" fill="black"/>
<path d="M92.6008 63.8772H91.2824L92.6594 55.9524H93.9777L92.6008 63.8772ZM93.6921 53.0593C93.9167 53.0495 94.1022 53.1179 94.2487 53.2644C94.4001 53.406 94.4758 53.594 94.4758 53.8283C94.4709 54.0578 94.3952 54.2458 94.2487 54.3923C94.1071 54.5388 93.9216 54.6169 93.6921 54.6267C93.4626 54.6364 93.2746 54.5705 93.1281 54.4289C92.9816 54.2873 92.9108 54.1018 92.9157 53.8723C92.9206 53.6428 92.9939 53.4524 93.1355 53.301C93.2771 53.1496 93.4626 53.0691 93.6921 53.0593ZM96.2775 56.216L95.5451 55.674C96.1213 54.9563 96.468 54.2605 96.5852 53.5866L96.7536 52.6272H98.0573L97.9182 53.5134C97.7424 54.612 97.1955 55.5129 96.2775 56.216ZM100.225 55.945L100.057 56.8313C100.721 56.1281 101.524 55.7863 102.467 55.8059C102.969 55.8156 103.394 55.9304 103.741 56.1501C104.092 56.3698 104.334 56.6799 104.466 57.0803C105.208 56.2112 106.085 55.7863 107.095 55.8059C107.886 55.8254 108.47 56.0915 108.846 56.6042C109.222 57.1169 109.361 57.8054 109.263 58.6696L108.392 63.8772H107.073L107.938 58.655C107.967 58.4011 107.967 58.1692 107.938 57.9592C107.845 57.2951 107.41 56.9558 106.634 56.9411C106.151 56.9314 105.711 57.0827 105.316 57.3952C104.925 57.7029 104.674 58.1081 104.561 58.6111L103.66 63.8772H102.327L103.206 58.6623C103.27 58.1203 103.187 57.7029 102.957 57.4099C102.733 57.1169 102.381 56.9655 101.903 56.9558C101.077 56.9362 100.421 57.3122 99.9323 58.0837L98.9289 63.8772H97.6032L98.9802 55.9524L100.225 55.945ZM82.8083 74.9192C83.5017 74.1623 84.3 73.7937 85.2033 73.8132C85.9455 73.823 86.4948 74.0793 86.8513 74.5822C87.2126 75.0803 87.3469 75.781 87.2541 76.6843L86.3898 81.8772H85.0642L85.9357 76.6623C85.965 76.4231 85.9675 76.2009 85.9431 75.9958C85.8601 75.3122 85.4572 74.9631 84.7346 74.9485C83.924 74.9289 83.2258 75.3537 82.6398 76.2229L81.6584 81.8772H80.3327L82.2883 70.6272H83.614L82.8083 74.9192ZM93.4504 81.0935C92.8303 81.7331 92.0417 82.0432 91.0847 82.0237C90.3278 82.0041 89.7663 81.7331 89.4001 81.2107C89.0388 80.6882 88.9045 79.9753 88.9973 79.072L89.8469 73.9524H91.1726L90.3156 79.094C90.2912 79.3088 90.2863 79.5188 90.301 79.7238C90.3254 80.0754 90.4304 80.3513 90.6159 80.5515C90.8015 80.7517 91.0603 80.8591 91.3923 80.8737C92.3396 80.903 93.072 80.5197 93.5896 79.7238L94.5856 73.9524H95.9113L94.5344 81.8772H93.2819L93.4504 81.0935ZM99.1486 73.945L98.9582 74.9485C99.6711 74.1672 100.482 73.7863 101.39 73.8059C102.137 73.8254 102.689 74.0842 103.045 74.5822C103.402 75.0803 103.533 75.781 103.441 76.6843L102.576 81.8772H101.251L102.122 76.6623C102.152 76.4231 102.154 76.2009 102.13 75.9958C102.047 75.3122 101.644 74.9631 100.921 74.9485C100.125 74.9338 99.427 75.3586 98.8264 76.2229L97.8449 81.8772H96.5192L97.8962 73.9524L99.1486 73.945ZM105.008 77.9001C105.125 77.0359 105.357 76.2863 105.704 75.6516C106.055 75.0119 106.48 74.5407 106.978 74.238C107.481 73.9304 108.03 73.7839 108.626 73.7986C109.544 73.8181 110.238 74.1648 110.706 74.8386L110.97 73.9524H112.186L110.867 81.7087C110.726 82.7195 110.316 83.5276 109.637 84.133C108.958 84.7434 108.121 85.0339 107.125 85.0046C106.588 84.9948 106.072 84.8679 105.579 84.6237C105.091 84.3796 104.705 84.0451 104.422 83.6203L105.176 82.8073C105.655 83.5154 106.287 83.8791 107.073 83.8987C107.703 83.9182 108.236 83.7424 108.67 83.3713C109.11 83.0002 109.4 82.4729 109.542 81.7893L109.688 81.0862C109.044 81.7307 108.289 82.0432 107.425 82.0237C106.932 82.009 106.502 81.8772 106.136 81.6281C105.775 81.3742 105.494 81.0105 105.294 80.5368C105.093 80.0583 104.984 79.5261 104.964 78.9402C104.954 78.6521 104.969 78.3054 105.008 77.9001ZM106.29 78.6545C106.275 79.3528 106.395 79.8947 106.649 80.2805C106.907 80.6613 107.296 80.8615 107.813 80.8811C108.604 80.9006 109.285 80.5124 109.857 79.7165L110.479 76.0764C110.186 75.3537 109.656 74.9778 108.89 74.9485C108.172 74.9289 107.581 75.2219 107.117 75.8274C106.658 76.4328 106.387 77.2507 106.304 78.281L106.29 78.6545ZM117.796 75.1609L117.174 75.0949C116.324 75.0949 115.655 75.4782 115.167 76.2448L114.193 81.8772H112.867L114.244 73.9524L115.526 73.945L115.328 74.8679C115.889 74.1306 116.551 73.7717 117.313 73.7912C117.474 73.7912 117.684 73.8279 117.943 73.9011L117.796 75.1609ZM120.836 79.8777L123.655 73.9524H125.12L120.418 83.1955C119.764 84.4797 118.924 85.1145 117.899 85.0998C117.718 85.0949 117.452 85.051 117.1 84.968L117.217 83.8694L117.562 83.906C117.982 83.9255 118.343 83.8303 118.646 83.6203C118.953 83.4153 119.224 83.0808 119.459 82.6169L119.935 81.7087L118.565 73.9524H119.949L120.836 79.8777Z" fill="black"/>
<path d="M166.782 167.466C166.855 166.919 166.555 166.534 165.881 166.309L164.504 165.906C163.342 165.506 162.781 164.842 162.82 163.914C162.854 163.216 163.171 162.644 163.772 162.2C164.377 161.751 165.088 161.531 165.903 161.541C166.704 161.551 167.353 161.785 167.852 162.244C168.354 162.698 168.596 163.291 168.577 164.024L167.258 164.016C167.268 163.621 167.143 163.299 166.885 163.05C166.626 162.801 166.282 162.671 165.852 162.661C165.393 162.652 164.997 162.764 164.665 162.998C164.358 163.218 164.18 163.506 164.131 163.863C164.067 164.322 164.348 164.656 164.973 164.866L165.64 165.049C166.548 165.284 167.192 165.589 167.573 165.965C167.954 166.341 168.13 166.807 168.101 167.364C168.071 167.857 167.91 168.286 167.617 168.653C167.324 169.019 166.934 169.3 166.445 169.495C165.957 169.685 165.437 169.773 164.885 169.759C164.045 169.749 163.352 169.505 162.805 169.026C162.258 168.543 161.995 167.923 162.014 167.166L163.34 167.173C163.34 167.618 163.481 167.974 163.765 168.243C164.048 168.511 164.436 168.645 164.929 168.645C165.413 168.655 165.83 168.555 166.182 168.345C166.533 168.13 166.733 167.837 166.782 167.466ZM173.85 161.541C174.514 161.551 175.083 161.731 175.557 162.083C176.03 162.434 176.379 162.92 176.604 163.54C176.833 164.156 176.912 164.829 176.838 165.562L176.824 165.723C176.731 166.494 176.501 167.193 176.135 167.818C175.769 168.438 175.295 168.921 174.714 169.268C174.133 169.615 173.496 169.778 172.803 169.759C172.143 169.749 171.575 169.568 171.096 169.217C170.622 168.865 170.276 168.387 170.056 167.781C169.836 167.176 169.758 166.509 169.822 165.782C169.895 164.961 170.117 164.224 170.488 163.57C170.859 162.915 171.335 162.41 171.916 162.054C172.502 161.692 173.147 161.521 173.85 161.541ZM171.155 165.789C171.121 166.097 171.121 166.416 171.155 166.748C171.204 167.325 171.374 167.784 171.667 168.125C171.965 168.467 172.361 168.645 172.854 168.66C173.293 168.675 173.699 168.567 174.07 168.338C174.441 168.103 174.753 167.752 175.007 167.283C175.261 166.814 175.425 166.294 175.498 165.723C175.537 165.274 175.544 164.895 175.52 164.588C175.461 163.997 175.283 163.531 174.985 163.189C174.687 162.847 174.292 162.666 173.799 162.647C173.115 162.632 172.534 162.901 172.056 163.452C171.577 164.004 171.282 164.727 171.169 165.62L171.155 165.789ZM181.174 168.66C181.648 168.67 182.075 168.533 182.456 168.25C182.837 167.962 183.086 167.586 183.203 167.122L184.456 167.115C184.382 167.613 184.182 168.067 183.855 168.477C183.533 168.887 183.125 169.207 182.632 169.436C182.139 169.666 181.633 169.773 181.116 169.759C180.456 169.749 179.897 169.578 179.438 169.246C178.984 168.909 178.65 168.443 178.435 167.847C178.22 167.246 178.147 166.573 178.215 165.826L178.252 165.459C178.345 164.698 178.567 164.016 178.918 163.416C179.27 162.815 179.729 162.349 180.295 162.017C180.862 161.68 181.487 161.521 182.17 161.541C183 161.56 183.664 161.839 184.163 162.376C184.661 162.913 184.91 163.594 184.91 164.419L183.672 164.412C183.662 163.894 183.518 163.477 183.24 163.16C182.961 162.837 182.585 162.666 182.112 162.647C181.423 162.632 180.85 162.889 180.391 163.416C179.936 163.943 179.653 164.681 179.541 165.628L179.519 165.818C179.49 166.131 179.485 166.453 179.504 166.785C179.539 167.356 179.7 167.808 179.988 168.14C180.276 168.472 180.671 168.645 181.174 168.66ZM186.953 169.612H185.635L187.012 161.687H188.33L186.953 169.612ZM188.044 158.794C188.269 158.785 188.455 158.853 188.601 158.999C188.752 159.141 188.828 159.329 188.828 159.563C188.823 159.793 188.747 159.981 188.601 160.127C188.459 160.274 188.274 160.352 188.044 160.362C187.815 160.371 187.627 160.306 187.48 160.164C187.334 160.022 187.263 159.837 187.268 159.607C187.273 159.378 187.346 159.187 187.488 159.036C187.629 158.885 187.815 158.804 188.044 158.794ZM192.549 169.759C191.562 169.739 190.791 169.375 190.234 168.667C189.678 167.959 189.443 167.054 189.531 165.95L189.568 165.635C189.651 164.849 189.883 164.131 190.264 163.482C190.649 162.832 191.118 162.344 191.67 162.017C192.222 161.685 192.817 161.526 193.457 161.541C194.272 161.56 194.912 161.831 195.376 162.354C195.84 162.876 196.094 163.584 196.138 164.478C196.152 164.795 196.143 165.113 196.108 165.43L196.028 166.038H190.85C190.762 166.756 190.879 167.366 191.201 167.869C191.528 168.372 192.014 168.633 192.659 168.653C193.44 168.672 194.163 168.321 194.827 167.598L195.588 168.243C195.256 168.721 194.827 169.097 194.299 169.37C193.777 169.639 193.193 169.768 192.549 169.759ZM193.391 162.647C192.844 162.632 192.366 162.818 191.956 163.203C191.55 163.589 191.228 164.163 190.989 164.925L194.841 164.932L194.871 164.815C194.949 164.2 194.849 163.689 194.57 163.284C194.297 162.874 193.904 162.661 193.391 162.647ZM200.4 159.768L200.063 161.687H201.506L201.323 162.735H199.888L199.06 167.664C199.045 167.791 199.043 167.908 199.053 168.015C199.087 168.396 199.294 168.587 199.675 168.587C199.836 168.587 200.051 168.562 200.32 168.514L200.217 169.619C199.9 169.707 199.578 169.751 199.25 169.751C198.723 169.742 198.328 169.549 198.064 169.173C197.8 168.792 197.698 168.282 197.756 167.642L198.562 162.735H197.163L197.346 161.687H198.745L199.082 159.768H200.4ZM206.582 169.612C206.548 169.471 206.531 169.331 206.531 169.195L206.553 168.777C205.825 169.451 205.054 169.778 204.238 169.759C203.54 169.749 202.971 169.529 202.532 169.099C202.097 168.665 201.899 168.123 201.938 167.473C201.987 166.634 202.353 165.979 203.037 165.511C203.726 165.037 204.629 164.8 205.747 164.8L207.131 164.807L207.219 164.178C207.268 163.704 207.175 163.33 206.941 163.057C206.711 162.779 206.365 162.635 205.901 162.625C205.447 162.615 205.044 162.727 204.692 162.962C204.346 163.191 204.133 163.496 204.055 163.877L202.722 163.885C202.766 163.421 202.947 163.011 203.264 162.654C203.581 162.293 203.989 162.014 204.487 161.819C204.985 161.619 205.5 161.524 206.033 161.534C206.858 161.553 207.5 161.805 207.959 162.288C208.418 162.766 208.611 163.404 208.538 164.2L207.893 168.125L207.856 168.689C207.847 168.958 207.876 169.224 207.944 169.488L207.93 169.612H206.582ZM204.502 168.587C204.927 168.597 205.327 168.496 205.703 168.286C206.084 168.072 206.411 167.776 206.685 167.4L206.97 165.767L205.967 165.76C205.132 165.76 204.492 165.891 204.048 166.155C203.603 166.419 203.352 166.792 203.293 167.276C203.249 167.647 203.335 167.957 203.55 168.206C203.769 168.45 204.087 168.577 204.502 168.587ZM211.167 169.612H209.849L211.797 158.362H213.122L211.167 169.612ZM167.939 187.612H166.621L167.998 179.687H169.316L167.939 187.612ZM169.031 176.794C169.255 176.785 169.441 176.853 169.587 176.999C169.739 177.141 169.814 177.329 169.814 177.563C169.81 177.793 169.734 177.981 169.587 178.127C169.446 178.274 169.26 178.352 169.031 178.362C168.801 178.371 168.613 178.306 168.467 178.164C168.32 178.022 168.249 177.837 168.254 177.607C168.259 177.378 168.332 177.187 168.474 177.036C168.616 176.885 168.801 176.804 169.031 176.794ZM175.015 185.466C175.088 184.919 174.788 184.534 174.114 184.309L172.737 183.906C171.575 183.506 171.013 182.842 171.052 181.914C171.086 181.216 171.404 180.644 172.004 180.2C172.61 179.751 173.32 179.531 174.136 179.541C174.936 179.551 175.586 179.785 176.084 180.244C176.587 180.698 176.829 181.291 176.809 182.024L175.491 182.016C175.5 181.621 175.376 181.299 175.117 181.05C174.858 180.801 174.514 180.671 174.084 180.661C173.625 180.652 173.23 180.764 172.898 180.998C172.59 181.218 172.412 181.506 172.363 181.863C172.3 182.322 172.581 182.656 173.206 182.866L173.872 183.049C174.78 183.284 175.425 183.589 175.806 183.965C176.186 184.341 176.362 184.807 176.333 185.364C176.304 185.857 176.143 186.286 175.85 186.653C175.557 187.019 175.166 187.3 174.678 187.495C174.189 187.685 173.669 187.773 173.118 187.759C172.278 187.749 171.584 187.505 171.038 187.026C170.491 186.543 170.227 185.923 170.247 185.166L171.572 185.173C171.572 185.618 171.714 185.974 171.997 186.243C172.28 186.511 172.668 186.645 173.162 186.645C173.645 186.655 174.062 186.555 174.414 186.345C174.766 186.13 174.966 185.837 175.015 185.466ZM182.588 185.466C182.661 184.919 182.361 184.534 181.687 184.309L180.31 183.906C179.148 183.506 178.586 182.842 178.625 181.914C178.66 181.216 178.977 180.644 179.578 180.2C180.183 179.751 180.893 179.531 181.709 179.541C182.51 179.551 183.159 179.785 183.657 180.244C184.16 180.698 184.402 181.291 184.382 182.024L183.064 182.016C183.074 181.621 182.949 181.299 182.69 181.05C182.432 180.801 182.087 180.671 181.658 180.661C181.199 180.652 180.803 180.764 180.471 180.998C180.164 181.218 179.985 181.506 179.936 181.863C179.873 182.322 180.154 182.656 180.779 182.866L181.445 183.049C182.353 183.284 182.998 183.589 183.379 183.965C183.76 184.341 183.935 184.807 183.906 185.364C183.877 185.857 183.716 186.286 183.423 186.653C183.13 187.019 182.739 187.3 182.251 187.495C181.763 187.685 181.243 187.773 180.691 187.759C179.851 187.749 179.158 187.505 178.611 187.026C178.064 186.543 177.8 185.923 177.82 185.166L179.145 185.173C179.145 185.618 179.287 185.974 179.57 186.243C179.853 186.511 180.242 186.645 180.735 186.645C181.218 186.655 181.636 186.555 181.987 186.345C182.339 186.13 182.539 185.837 182.588 185.466ZM190.286 186.828C189.665 187.468 188.877 187.778 187.92 187.759C187.163 187.739 186.602 187.468 186.235 186.946C185.874 186.423 185.74 185.71 185.832 184.807L186.682 179.687H188.008L187.151 184.829C187.126 185.044 187.122 185.254 187.136 185.459C187.161 185.81 187.266 186.086 187.451 186.286C187.637 186.487 187.895 186.594 188.227 186.609C189.175 186.638 189.907 186.255 190.425 185.459L191.421 179.687H192.747L191.37 187.612H190.117L190.286 186.828ZM196.782 187.759C195.796 187.739 195.024 187.375 194.468 186.667C193.911 185.959 193.677 185.054 193.765 183.95L193.801 183.635C193.884 182.849 194.116 182.131 194.497 181.482C194.883 180.832 195.352 180.344 195.903 180.017C196.455 179.685 197.051 179.526 197.69 179.541C198.506 179.56 199.145 179.831 199.609 180.354C200.073 180.876 200.327 181.584 200.371 182.478C200.386 182.795 200.376 183.113 200.342 183.43L200.261 184.038H195.083C194.995 184.756 195.112 185.366 195.435 185.869C195.762 186.372 196.247 186.633 196.892 186.653C197.673 186.672 198.396 186.321 199.06 185.598L199.822 186.243C199.49 186.721 199.06 187.097 198.533 187.37C198.01 187.639 197.427 187.768 196.782 187.759ZM197.624 180.647C197.078 180.632 196.599 180.818 196.189 181.203C195.784 181.589 195.461 182.163 195.222 182.925L199.075 182.932L199.104 182.815C199.182 182.2 199.082 181.689 198.804 181.284C198.53 180.874 198.137 180.661 197.624 180.647ZM206.04 185.466C206.113 184.919 205.813 184.534 205.139 184.309L203.762 183.906C202.6 183.506 202.039 182.842 202.078 181.914C202.112 181.216 202.429 180.644 203.03 180.2C203.635 179.751 204.346 179.531 205.161 179.541C205.962 179.551 206.611 179.785 207.109 180.244C207.612 180.698 207.854 181.291 207.834 182.024L206.516 182.016C206.526 181.621 206.401 181.299 206.143 181.05C205.884 180.801 205.539 180.671 205.11 180.661C204.651 180.652 204.255 180.764 203.923 180.998C203.616 181.218 203.437 181.506 203.389 181.863C203.325 182.322 203.606 182.656 204.231 182.866L204.897 183.049C205.806 183.284 206.45 183.589 206.831 183.965C207.212 184.341 207.388 184.807 207.358 185.364C207.329 185.857 207.168 186.286 206.875 186.653C206.582 187.019 206.191 187.3 205.703 187.495C205.215 187.685 204.695 187.773 204.143 187.759C203.303 187.749 202.61 187.505 202.063 187.026C201.516 186.543 201.252 185.923 201.272 185.166L202.598 185.173C202.598 185.618 202.739 185.974 203.022 186.243C203.306 186.511 203.694 186.645 204.187 186.645C204.67 186.655 205.088 186.555 205.439 186.345C205.791 186.13 205.991 185.837 206.04 185.466Z" fill="black"/>
<path d="M71.1826 118.37C71.6562 118.38 72.0835 118.243 72.4643 117.96C72.8452 117.672 73.0942 117.296 73.2114 116.832L74.4638 116.825C74.3906 117.323 74.1904 117.777 73.8632 118.187C73.541 118.597 73.1333 118.917 72.6401 119.147C72.1469 119.376 71.6416 119.483 71.124 119.469C70.4648 119.459 69.9057 119.288 69.4467 118.956C68.9926 118.619 68.6582 118.153 68.4433 117.557C68.2285 116.957 68.1552 116.283 68.2236 115.536L68.2602 115.169C68.353 114.408 68.5752 113.727 68.9267 113.126C69.2783 112.525 69.7373 112.059 70.3037 111.727C70.8701 111.39 71.4951 111.231 72.1787 111.251C73.0088 111.271 73.6728 111.549 74.1709 112.086C74.6689 112.623 74.9179 113.304 74.9179 114.129L73.6801 114.122C73.6704 113.605 73.5263 113.187 73.248 112.87C72.9697 112.547 72.5937 112.376 72.1201 112.357C71.4316 112.342 70.8579 112.599 70.3989 113.126C69.9448 113.653 69.6616 114.391 69.5493 115.338L69.5273 115.528C69.498 115.841 69.4931 116.163 69.5127 116.495C69.5468 117.066 69.708 117.518 69.9961 117.85C70.2841 118.182 70.6797 118.355 71.1826 118.37ZM79.9277 111.251C80.5918 111.261 81.1606 111.441 81.6342 111.793C82.1079 112.145 82.457 112.63 82.6816 113.251C82.9111 113.866 82.9892 114.54 82.916 115.272L82.9013 115.433C82.8086 116.205 82.5791 116.903 82.2129 117.528C81.8466 118.148 81.373 118.631 80.792 118.978C80.2109 119.325 79.5737 119.488 78.8803 119.469C78.2212 119.459 77.6523 119.278 77.1738 118.927C76.7002 118.575 76.3535 118.097 76.1338 117.491C75.914 116.886 75.8359 116.219 75.8994 115.492C75.9726 114.671 76.1948 113.934 76.5659 113.28C76.937 112.626 77.4131 112.12 77.9941 111.764C78.58 111.402 79.2246 111.231 79.9277 111.251ZM77.2324 115.499C77.1982 115.807 77.1982 116.126 77.2324 116.459C77.2812 117.035 77.4521 117.494 77.7451 117.835C78.0429 118.177 78.4384 118.355 78.9316 118.37C79.3711 118.385 79.7763 118.277 80.1474 118.048C80.5185 117.814 80.831 117.462 81.0849 116.993C81.3388 116.524 81.5024 116.004 81.5756 115.433C81.6147 114.984 81.622 114.605 81.5976 114.298C81.539 113.707 81.3608 113.241 81.063 112.899C80.7651 112.557 80.3696 112.376 79.8764 112.357C79.1928 112.342 78.6118 112.611 78.1333 113.163C77.6548 113.714 77.3593 114.437 77.247 115.331L77.2324 115.499ZM84.2856 115.345C84.3833 114.54 84.6054 113.812 84.9521 113.163C85.2988 112.513 85.726 112.027 86.2339 111.705C86.7417 111.383 87.3007 111.229 87.9111 111.244C88.7949 111.263 89.4736 111.585 89.9472 112.21L90.709 108.072H92.0346L90.0864 119.322H88.8779L89.0171 118.473C88.3921 119.156 87.6206 119.488 86.7026 119.469C85.9702 119.449 85.3867 119.164 84.9521 118.612C84.5175 118.055 84.2832 117.311 84.249 116.378C84.2343 116.09 84.2465 115.746 84.2856 115.345ZM85.56 116.107C85.5454 116.805 85.6699 117.347 85.9336 117.733C86.1972 118.119 86.583 118.316 87.0908 118.326C87.8574 118.36 88.5385 117.975 89.1342 117.169L89.7641 113.507C89.4712 112.784 88.9389 112.413 88.1674 112.394C87.645 112.379 87.1836 112.538 86.7832 112.87C86.3877 113.197 86.0849 113.658 85.875 114.254C85.6699 114.845 85.5649 115.462 85.56 116.107ZM93.6167 119.322H92.2983L93.6753 111.397H94.9936L93.6167 119.322ZM94.708 108.504C94.9326 108.495 95.1181 108.563 95.2646 108.71C95.416 108.851 95.4917 109.039 95.4917 109.273C95.4868 109.503 95.4111 109.691 95.2646 109.837C95.123 109.984 94.9375 110.062 94.708 110.072C94.4785 110.082 94.2905 110.016 94.144 109.874C93.9975 109.732 93.9267 109.547 93.9316 109.317C93.9365 109.088 94.0097 108.897 94.1513 108.746C94.2929 108.595 94.4785 108.514 94.708 108.504ZM98.414 111.39L98.2236 112.394C98.9365 111.612 99.747 111.231 100.655 111.251C101.402 111.271 101.954 111.529 102.311 112.027C102.667 112.525 102.799 113.226 102.706 114.129L101.842 119.322H100.516L101.388 114.107C101.417 113.868 101.419 113.646 101.395 113.441C101.312 112.757 100.909 112.408 100.186 112.394C99.3906 112.379 98.6923 112.804 98.0918 113.668L97.1103 119.322H95.7846L97.1616 111.397L98.414 111.39ZM104.273 115.345C104.391 114.481 104.623 113.731 104.969 113.097C105.321 112.457 105.746 111.986 106.244 111.683C106.747 111.376 107.296 111.229 107.892 111.244C108.81 111.263 109.503 111.61 109.972 112.284L110.235 111.397H111.451L110.133 119.154C109.991 120.165 109.581 120.973 108.902 121.578C108.224 122.189 107.386 122.479 106.39 122.45C105.853 122.44 105.338 122.313 104.845 122.069C104.356 121.825 103.971 121.49 103.687 121.065L104.442 120.252C104.92 120.96 105.553 121.324 106.339 121.344C106.969 121.363 107.501 121.188 107.936 120.816C108.375 120.445 108.665 119.918 108.807 119.234L108.954 118.531C108.309 119.176 107.555 119.488 106.69 119.469C106.197 119.454 105.768 119.322 105.401 119.073C105.04 118.819 104.759 118.456 104.559 117.982C104.359 117.503 104.249 116.971 104.229 116.385C104.22 116.097 104.234 115.751 104.273 115.345ZM105.555 116.1C105.54 116.798 105.66 117.34 105.914 117.726C106.173 118.106 106.561 118.307 107.079 118.326C107.87 118.346 108.551 117.958 109.122 117.162L109.745 113.522C109.452 112.799 108.922 112.423 108.155 112.394C107.437 112.374 106.847 112.667 106.383 113.272C105.924 113.878 105.653 114.696 105.57 115.726L105.555 116.1ZM115.956 120.238H114.754L121.082 108.658H122.276L115.956 120.238ZM60.123 137.469C59.1367 137.449 58.3652 137.085 57.8086 136.377C57.2519 135.669 57.0175 134.764 57.1054 133.66L57.1421 133.345C57.2251 132.559 57.457 131.841 57.8379 131.192C58.2236 130.543 58.6923 130.054 59.2441 129.727C59.7959 129.395 60.3916 129.236 61.0312 129.251C61.8466 129.271 62.4863 129.542 62.9502 130.064C63.414 130.586 63.6679 131.294 63.7119 132.188C63.7265 132.505 63.7168 132.823 63.6826 133.14L63.602 133.748H58.4238C58.3359 134.466 58.4531 135.076 58.7754 135.579C59.1025 136.082 59.5883 136.343 60.2329 136.363C61.0141 136.382 61.7368 136.031 62.4008 135.308L63.1626 135.953C62.8305 136.431 62.4008 136.807 61.8735 137.081C61.351 137.349 60.7675 137.479 60.123 137.469ZM60.9653 130.357C60.4184 130.342 59.9399 130.528 59.5298 130.914C59.1245 131.299 58.8022 131.873 58.563 132.635L62.4155 132.642L62.4448 132.525C62.5229 131.91 62.4228 131.399 62.1445 130.994C61.8711 130.584 61.478 130.372 60.9653 130.357ZM67.103 129.39L66.9126 130.394C67.6255 129.612 68.436 129.231 69.3442 129.251C70.0913 129.271 70.643 129.529 70.9995 130.027C71.3559 130.525 71.4878 131.226 71.395 132.129L70.5307 137.322H69.205L70.0766 132.107C70.1059 131.868 70.1084 131.646 70.084 131.441C70.0009 130.757 69.5981 130.408 68.8755 130.394C68.0796 130.379 67.3813 130.804 66.7807 131.668L65.7993 137.322H64.4736L65.8506 129.397L67.103 129.39ZM72.9624 133.345C73.0796 132.481 73.3115 131.731 73.6582 131.097C74.0097 130.457 74.4345 129.986 74.9326 129.683C75.4355 129.376 75.9848 129.229 76.5805 129.244C77.4985 129.263 78.1919 129.61 78.6606 130.284L78.9243 129.397H80.1401L78.8217 137.154C78.6801 138.165 78.27 138.973 77.5913 139.578C76.9126 140.189 76.0752 140.479 75.0791 140.45C74.542 140.44 74.0268 140.313 73.5337 140.069C73.0454 139.825 72.6596 139.49 72.3764 139.065L73.1308 138.252C73.6093 138.96 74.2417 139.324 75.0278 139.344C75.6577 139.363 76.1899 139.188 76.6245 138.816C77.0639 138.445 77.3545 137.918 77.4961 137.234L77.6425 136.531C76.998 137.176 76.2436 137.488 75.3794 137.469C74.8862 137.454 74.4565 137.322 74.0903 137.073C73.729 136.819 73.4482 136.456 73.248 135.982C73.0478 135.503 72.938 134.971 72.9184 134.385C72.9087 134.097 72.9233 133.751 72.9624 133.345ZM74.2441 134.1C74.2295 134.798 74.3491 135.34 74.603 135.726C74.8618 136.106 75.25 136.307 75.7675 136.326C76.5586 136.346 77.2397 135.958 77.811 135.162L78.4336 131.522C78.1406 130.799 77.6108 130.423 76.8442 130.394C76.1264 130.374 75.5356 130.667 75.0717 131.272C74.6128 131.878 74.3418 132.696 74.2588 133.726L74.2441 134.1ZM82.2568 137.322H80.9384L82.3154 129.397H83.6338L82.2568 137.322ZM83.3481 126.504C83.5727 126.495 83.7583 126.563 83.9048 126.71C84.0561 126.851 84.1318 127.039 84.1318 127.273C84.1269 127.503 84.0512 127.691 83.9048 127.837C83.7631 127.984 83.5776 128.062 83.3481 128.072C83.1186 128.082 82.9306 128.016 82.7841 127.874C82.6377 127.732 82.5669 127.547 82.5717 127.317C82.5766 127.088 82.6499 126.897 82.7915 126.746C82.9331 126.595 83.1186 126.514 83.3481 126.504ZM87.0542 129.39L86.8637 130.394C87.5766 129.612 88.3872 129.231 89.2954 129.251C90.0424 129.271 90.5942 129.529 90.9506 130.027C91.3071 130.525 91.4389 131.226 91.3462 132.129L90.4819 137.322H89.1562L90.0278 132.107C90.0571 131.868 90.0595 131.646 90.0351 131.441C89.9521 130.757 89.5493 130.408 88.8266 130.394C88.0307 130.379 87.3325 130.804 86.7319 131.668L85.7505 137.322H84.4248L85.8017 129.397L87.0542 129.39ZM95.9531 137.469C94.9668 137.449 94.1953 137.085 93.6386 136.377C93.082 135.669 92.8476 134.764 92.9355 133.66L92.9721 133.345C93.0551 132.559 93.2871 131.841 93.6679 131.192C94.0537 130.543 94.5224 130.054 95.0742 129.727C95.6259 129.395 96.2216 129.236 96.8613 129.251C97.6767 129.271 98.3164 129.542 98.7802 130.064C99.2441 130.586 99.498 131.294 99.542 132.188C99.5566 132.505 99.5468 132.823 99.5127 133.14L99.4321 133.748H94.2539C94.166 134.466 94.2832 135.076 94.6054 135.579C94.9326 136.082 95.4184 136.343 96.063 136.363C96.8442 136.382 97.5669 136.031 98.2309 135.308L98.9926 135.953C98.6606 136.431 98.2309 136.807 97.7036 137.081C97.1811 137.349 96.5976 137.479 95.9531 137.469ZM96.7954 130.357C96.2485 130.342 95.77 130.528 95.3598 130.914C94.9546 131.299 94.6323 131.873 94.393 132.635L98.2456 132.642L98.2749 132.525C98.353 131.91 98.2529 131.399 97.9746 130.994C97.7011 130.584 97.3081 130.372 96.7954 130.357ZM103.731 137.469C102.745 137.449 101.974 137.085 101.417 136.377C100.86 135.669 100.626 134.764 100.714 133.66L100.75 133.345C100.833 132.559 101.065 131.841 101.446 131.192C101.832 130.543 102.301 130.054 102.853 129.727C103.404 129.395 104 129.236 104.64 129.251C105.455 129.271 106.095 129.542 106.559 130.064C107.022 130.586 107.276 131.294 107.32 132.188C107.335 132.505 107.325 132.823 107.291 133.14L107.21 133.748H102.032C101.944 134.466 102.061 135.076 102.384 135.579C102.711 136.082 103.197 136.343 103.841 136.363C104.623 136.382 105.345 136.031 106.009 135.308L106.771 135.953C106.439 136.431 106.009 136.807 105.482 137.081C104.959 137.349 104.376 137.479 103.731 137.469ZM104.574 130.357C104.027 130.342 103.548 130.528 103.138 130.914C102.733 131.299 102.411 131.873 102.171 132.635L106.024 132.642L106.053 132.525C106.131 131.91 106.031 131.399 105.753 130.994C105.479 130.584 105.086 130.372 104.574 130.357ZM113.011 130.606L112.389 130.54C111.539 130.54 110.87 130.923 110.382 131.69L109.408 137.322H108.082L109.459 129.397L110.741 129.39L110.543 130.313C111.104 129.576 111.766 129.217 112.528 129.236C112.689 129.236 112.899 129.273 113.158 129.346L113.011 130.606ZM114.513 137.322H113.194L114.571 129.397H115.89L114.513 137.322ZM115.604 126.504C115.829 126.495 116.014 126.563 116.161 126.71C116.312 126.851 116.388 127.039 116.388 127.273C116.383 127.503 116.307 127.691 116.161 127.837C116.019 127.984 115.833 128.062 115.604 128.072C115.374 128.082 115.186 128.016 115.04 127.874C114.894 127.732 114.823 127.547 114.828 127.317C114.832 127.088 114.906 126.897 115.047 126.746C115.189 126.595 115.374 126.514 115.604 126.504ZM119.31 129.39L119.12 130.394C119.832 129.612 120.643 129.231 121.551 129.251C122.298 129.271 122.85 129.529 123.207 130.027C123.563 130.525 123.695 131.226 123.602 132.129L122.738 137.322H121.412L122.284 132.107C122.313 131.868 122.315 131.646 122.291 131.441C122.208 130.757 121.805 130.408 121.082 130.394C120.287 130.379 119.588 130.804 118.988 131.668L118.006 137.322H116.681L118.058 129.397L119.31 129.39ZM125.169 133.345C125.287 132.481 125.519 131.731 125.865 131.097C126.217 130.457 126.642 129.986 127.14 129.683C127.643 129.376 128.192 129.229 128.788 129.244C129.706 129.263 130.399 129.61 130.868 130.284L131.131 129.397H132.347L131.029 137.154C130.887 138.165 130.477 138.973 129.798 139.578C129.12 140.189 128.282 140.479 127.286 140.45C126.749 140.44 126.234 140.313 125.741 140.069C125.252 139.825 124.867 139.49 124.583 139.065L125.338 138.252C125.816 138.96 126.449 139.324 127.235 139.344C127.865 139.363 128.397 139.188 128.832 138.816C129.271 138.445 129.561 137.918 129.703 137.234L129.85 136.531C129.205 137.176 128.451 137.488 127.586 137.469C127.093 137.454 126.664 137.322 126.297 137.073C125.936 136.819 125.655 136.456 125.455 135.982C125.255 135.503 125.145 134.971 125.125 134.385C125.116 134.097 125.13 133.751 125.169 133.345ZM126.451 134.1C126.436 134.798 126.556 135.34 126.81 135.726C127.069 136.106 127.457 136.307 127.975 136.326C128.766 136.346 129.447 135.958 130.018 135.162L130.641 131.522C130.348 130.799 129.818 130.423 129.051 130.394C128.333 130.374 127.743 130.667 127.279 131.272C126.82 131.878 126.549 132.696 126.466 133.726L126.451 134.1Z" fill="black"/>
<g clip-path="url(#clip0)">
<path d="M238.74 276.52C229.642 269.314 216.112 270.611 207.761 278.619L204.491 281.751L201.22 278.619C192.886 270.611 179.34 269.314 170.242 276.52C159.816 284.79 159.268 299.634 168.598 308.598L200.722 339.427C202.798 341.417 206.168 341.417 208.243 339.427L240.367 308.598C249.714 299.634 249.166 284.79 238.74 276.52V276.52Z" fill="#F0C3FF"/>
<path d="M196.669 293.475C196.742 292.928 196.442 292.542 195.768 292.317L194.391 291.915C193.229 291.514 192.667 290.85 192.706 289.922C192.74 289.224 193.058 288.653 193.658 288.209C194.264 287.759 194.974 287.54 195.79 287.549C196.591 287.559 197.24 287.793 197.738 288.252C198.241 288.707 198.483 289.3 198.463 290.032L197.145 290.025C197.155 289.629 197.03 289.307 196.771 289.058C196.512 288.809 196.168 288.68 195.738 288.67C195.28 288.66 194.884 288.772 194.552 289.007C194.244 289.227 194.066 289.515 194.017 289.871C193.954 290.33 194.235 290.665 194.86 290.875L195.526 291.058C196.434 291.292 197.079 291.597 197.46 291.973C197.841 292.349 198.016 292.815 197.987 293.372C197.958 293.865 197.797 294.295 197.504 294.661C197.211 295.027 196.82 295.308 196.332 295.503C195.843 295.694 195.323 295.782 194.772 295.767C193.932 295.757 193.238 295.513 192.692 295.035C192.145 294.551 191.881 293.931 191.901 293.174L193.226 293.182C193.226 293.626 193.368 293.982 193.651 294.251C193.934 294.52 194.322 294.654 194.816 294.654C195.299 294.664 195.717 294.563 196.068 294.354C196.42 294.139 196.62 293.846 196.669 293.475ZM203.737 287.549C204.401 287.559 204.969 287.74 205.443 288.091C205.917 288.443 206.266 288.929 206.49 289.549C206.72 290.164 206.798 290.838 206.725 291.57L206.71 291.731C206.617 292.503 206.388 293.201 206.022 293.826C205.655 294.446 205.182 294.93 204.601 295.276C204.02 295.623 203.383 295.787 202.689 295.767C202.03 295.757 201.461 295.577 200.983 295.225C200.509 294.874 200.162 294.395 199.943 293.79C199.723 293.184 199.645 292.518 199.708 291.79C199.781 290.97 200.004 290.232 200.375 289.578C200.746 288.924 201.222 288.418 201.803 288.062C202.389 287.701 203.033 287.53 203.737 287.549ZM201.041 291.797C201.007 292.105 201.007 292.425 201.041 292.757C201.09 293.333 201.261 293.792 201.554 294.134C201.852 294.476 202.247 294.654 202.74 294.668C203.18 294.683 203.585 294.576 203.956 294.346C204.327 294.112 204.64 293.76 204.894 293.292C205.148 292.823 205.311 292.303 205.384 291.731C205.424 291.282 205.431 290.904 205.406 290.596C205.348 290.005 205.17 289.539 204.872 289.197C204.574 288.855 204.178 288.675 203.685 288.655C203.002 288.641 202.421 288.909 201.942 289.461C201.464 290.013 201.168 290.735 201.056 291.629L201.041 291.797ZM208.358 295.621L209.559 288.743H208.336L208.519 287.696H209.735L209.867 286.758C209.994 285.962 210.301 285.34 210.79 284.891C211.302 284.422 211.957 284.192 212.753 284.202C213.002 284.202 213.317 284.244 213.697 284.327L213.536 285.433C213.302 285.384 213.065 285.355 212.826 285.345C212.367 285.345 211.993 285.489 211.705 285.777C211.422 286.06 211.246 286.438 211.178 286.912L211.061 287.696H212.701L212.518 288.743H210.878L209.684 295.621H208.358ZM216.342 285.777L216.005 287.696H217.447L217.264 288.743H215.829L215.001 293.672C214.987 293.799 214.984 293.917 214.994 294.024C215.028 294.405 215.236 294.595 215.616 294.595C215.778 294.595 215.992 294.571 216.261 294.522L216.158 295.628C215.841 295.716 215.519 295.76 215.192 295.76C214.664 295.75 214.269 295.557 214.005 295.181C213.741 294.8 213.639 294.29 213.697 293.65L214.503 288.743H213.104L213.287 287.696H214.686L215.023 285.777H216.342ZM179.545 313.621L180.746 306.743H179.523L179.706 305.696H180.922L181.053 304.758C181.18 303.962 181.488 303.34 181.976 302.891C182.489 302.422 183.143 302.192 183.939 302.202C184.188 302.202 184.503 302.244 184.884 302.327L184.723 303.433C184.488 303.384 184.252 303.355 184.012 303.345C183.553 303.345 183.18 303.489 182.892 303.777C182.609 304.06 182.433 304.438 182.364 304.912L182.247 305.696H183.888L183.705 306.743H182.064L180.87 313.621H179.545ZM187.279 313.767C186.293 313.748 185.521 313.384 184.965 312.676C184.408 311.968 184.174 311.062 184.261 309.959L184.298 309.644C184.381 308.857 184.613 308.14 184.994 307.49C185.38 306.841 185.848 306.353 186.4 306.025C186.952 305.693 187.548 305.535 188.187 305.549C189.003 305.569 189.642 305.84 190.106 306.362C190.57 306.885 190.824 307.593 190.868 308.486C190.883 308.804 190.873 309.121 190.839 309.438L190.758 310.046H185.58C185.492 310.764 185.609 311.375 185.931 311.877C186.259 312.38 186.744 312.642 187.389 312.661C188.17 312.681 188.893 312.329 189.557 311.606L190.319 312.251C189.987 312.73 189.557 313.105 189.03 313.379C188.507 313.647 187.924 313.777 187.279 313.767ZM188.121 306.655C187.574 306.641 187.096 306.826 186.686 307.212C186.28 307.598 185.958 308.171 185.719 308.933L189.571 308.94L189.601 308.823C189.679 308.208 189.579 307.698 189.3 307.292C189.027 306.882 188.634 306.67 188.121 306.655ZM195.057 313.767C194.071 313.748 193.3 313.384 192.743 312.676C192.186 311.968 191.952 311.062 192.04 309.959L192.076 309.644C192.159 308.857 192.391 308.14 192.772 307.49C193.158 306.841 193.627 306.353 194.178 306.025C194.73 305.693 195.326 305.535 195.966 305.549C196.781 305.569 197.421 305.84 197.884 306.362C198.348 306.885 198.602 307.593 198.646 308.486C198.661 308.804 198.651 309.121 198.617 309.438L198.536 310.046H193.358C193.27 310.764 193.387 311.375 193.71 311.877C194.037 312.38 194.523 312.642 195.167 312.661C195.948 312.681 196.671 312.329 197.335 311.606L198.097 312.251C197.765 312.73 197.335 313.105 196.808 313.379C196.285 313.647 195.702 313.777 195.057 313.767ZM195.9 306.655C195.353 306.641 194.874 306.826 194.464 307.212C194.059 307.598 193.737 308.171 193.497 308.933L197.35 308.94L197.379 308.823C197.457 308.208 197.357 307.698 197.079 307.292C196.805 306.882 196.412 306.67 195.9 306.655ZM200.843 313.621H199.525L201.473 302.371H202.799L200.843 313.621ZM204.447 313.621H203.129L204.506 305.696H205.824L204.447 313.621ZM205.538 302.803C205.763 302.793 205.948 302.861 206.095 303.008C206.246 303.149 206.322 303.337 206.322 303.572C206.317 303.801 206.241 303.989 206.095 304.136C205.953 304.282 205.768 304.36 205.538 304.37C205.309 304.38 205.121 304.314 204.974 304.172C204.828 304.031 204.757 303.845 204.762 303.616C204.767 303.386 204.84 303.196 204.982 303.044C205.123 302.893 205.309 302.813 205.538 302.803ZM209.244 305.688L209.054 306.692C209.767 305.911 210.577 305.53 211.486 305.549C212.233 305.569 212.784 305.828 213.141 306.326C213.497 306.824 213.629 307.524 213.536 308.428L212.672 313.621H211.346L212.218 308.406C212.247 308.167 212.25 307.944 212.225 307.739C212.142 307.056 211.739 306.707 211.017 306.692C210.221 306.677 209.523 307.102 208.922 307.966L207.941 313.621H206.615L207.992 305.696L209.244 305.688ZM215.104 309.644C215.221 308.779 215.453 308.03 215.8 307.395C216.151 306.755 216.576 306.284 217.074 305.981C217.577 305.674 218.126 305.527 218.722 305.542C219.64 305.562 220.333 305.908 220.802 306.582L221.066 305.696H222.281L220.963 313.452C220.821 314.463 220.411 315.271 219.733 315.876C219.054 316.487 218.217 316.777 217.22 316.748C216.683 316.738 216.168 316.611 215.675 316.367C215.187 316.123 214.801 315.789 214.518 315.364L215.272 314.551C215.751 315.259 216.383 315.623 217.169 315.642C217.799 315.662 218.331 315.486 218.766 315.115C219.205 314.744 219.496 314.216 219.637 313.533L219.784 312.83C219.139 313.474 218.385 313.787 217.521 313.767C217.028 313.752 216.598 313.621 216.232 313.372C215.87 313.118 215.59 312.754 215.389 312.28C215.189 311.802 215.079 311.27 215.06 310.684C215.05 310.396 215.065 310.049 215.104 309.644ZM216.385 310.398C216.371 311.096 216.49 311.638 216.744 312.024C217.003 312.405 217.391 312.605 217.909 312.625C218.7 312.644 219.381 312.256 219.952 311.46L220.575 307.82C220.282 307.097 219.752 306.721 218.986 306.692C218.268 306.672 217.677 306.965 217.213 307.571C216.754 308.176 216.483 308.994 216.4 310.024L216.385 310.398ZM227.87 311.475C227.943 310.928 227.643 310.542 226.969 310.317L225.592 309.915C224.43 309.514 223.868 308.85 223.907 307.922C223.942 307.224 224.259 306.653 224.86 306.209C225.465 305.759 226.175 305.54 226.991 305.549C227.792 305.559 228.441 305.793 228.939 306.252C229.442 306.707 229.684 307.3 229.664 308.032L228.346 308.025C228.356 307.629 228.231 307.307 227.972 307.058C227.714 306.809 227.369 306.68 226.94 306.67C226.481 306.66 226.085 306.772 225.753 307.007C225.446 307.227 225.267 307.515 225.218 307.871C225.155 308.33 225.436 308.665 226.061 308.875L226.727 309.058C227.635 309.292 228.28 309.597 228.661 309.973C229.042 310.349 229.217 310.815 229.188 311.372C229.159 311.865 228.998 312.295 228.705 312.661C228.412 313.027 228.021 313.308 227.533 313.503C227.045 313.694 226.525 313.782 225.973 313.767C225.133 313.757 224.44 313.513 223.893 313.035C223.346 312.551 223.082 311.931 223.102 311.174L224.427 311.182C224.427 311.626 224.569 311.982 224.852 312.251C225.135 312.52 225.524 312.654 226.017 312.654C226.5 312.664 226.918 312.563 227.269 312.354C227.621 312.139 227.821 311.846 227.87 311.475Z" fill="black"/>
</g>
<path d="M79.4045 306.33C79.3068 307.141 79.0847 307.871 78.738 308.52C78.3913 309.17 77.9714 309.651 77.4782 309.963C76.9851 310.276 76.4382 310.425 75.8376 310.41C74.8806 310.39 74.1701 310.032 73.7062 309.333L73.4352 310.256H72.2121L74.1677 299.006H75.4934L74.695 303.21C75.3298 302.507 76.1013 302.165 77.0095 302.185C77.7712 302.204 78.3644 302.485 78.7893 303.027C79.2141 303.569 79.4387 304.316 79.4631 305.268C79.468 305.581 79.4533 305.884 79.4191 306.177L79.4045 306.33ZM78.1447 305.561C78.1594 304.848 78.0397 304.304 77.7858 303.928C77.5319 303.547 77.1437 303.347 76.6213 303.327C75.7961 303.308 75.0978 303.723 74.5266 304.573L73.9333 308.022C74.2263 308.828 74.7756 309.241 75.5812 309.26C76.0988 309.28 76.5505 309.126 76.9362 308.799C77.3269 308.471 77.6223 308.015 77.8225 307.429C78.0227 306.838 78.1301 306.216 78.1447 305.561ZM84.861 302.185C85.5251 302.195 86.0939 302.375 86.5676 302.727C87.0412 303.078 87.3903 303.564 87.6149 304.184C87.8444 304.8 87.9226 305.473 87.8493 306.206L87.8347 306.367C87.7419 307.138 87.5124 307.837 87.1462 308.462C86.78 309.082 86.3063 309.565 85.7253 309.912C85.1442 310.259 84.507 310.422 83.8137 310.403C83.1545 310.393 82.5856 310.212 82.1071 309.861C81.6335 309.509 81.2868 309.031 81.0671 308.425C80.8474 307.82 80.7692 307.153 80.8327 306.426C80.906 305.605 81.1281 304.868 81.4992 304.214C81.8703 303.559 82.3464 303.054 82.9274 302.698C83.5134 302.336 84.1579 302.165 84.861 302.185ZM82.1657 306.433C82.1315 306.741 82.1315 307.06 82.1657 307.392C82.2145 307.969 82.3854 308.428 82.6784 308.769C82.9763 309.111 83.3718 309.289 83.8649 309.304C84.3044 309.319 84.7097 309.211 85.0808 308.982C85.4519 308.747 85.7644 308.396 86.0183 307.927C86.2722 307.458 86.4357 306.938 86.509 306.367C86.548 305.918 86.5554 305.539 86.531 305.232C86.4724 304.641 86.2941 304.175 85.9963 303.833C85.6984 303.491 85.3029 303.31 84.8098 303.291C84.1262 303.276 83.5451 303.545 83.0666 304.096C82.5881 304.648 82.2927 305.371 82.1804 306.264L82.1657 306.433ZM91.4675 302.324L91.277 303.327C91.9899 302.546 92.8005 302.165 93.7087 302.185C94.4558 302.204 95.0075 302.463 95.364 302.961C95.7204 303.459 95.8522 304.16 95.7595 305.063L94.8952 310.256H93.5695L94.4411 305.041C94.4704 304.802 94.4728 304.58 94.4484 304.375C94.3654 303.691 93.9626 303.342 93.2399 303.327C92.444 303.313 91.7458 303.738 91.1452 304.602L90.1638 310.256H88.8381L90.215 302.331L91.4675 302.324ZM100.366 310.403C99.3801 310.383 98.6086 310.019 98.0519 309.311C97.4953 308.603 97.2609 307.698 97.3488 306.594L97.3854 306.279C97.4685 305.493 97.7004 304.775 98.0812 304.126C98.467 303.476 98.9357 302.988 99.4875 302.661C100.039 302.329 100.635 302.17 101.275 302.185C102.09 302.204 102.73 302.475 103.194 302.998C103.657 303.52 103.911 304.228 103.955 305.122C103.97 305.439 103.96 305.757 103.926 306.074L103.845 306.682H98.6672C98.5793 307.4 98.6965 308.01 99.0187 308.513C99.3459 309.016 99.8317 309.277 100.476 309.297C101.258 309.316 101.98 308.965 102.644 308.242L103.406 308.887C103.074 309.365 102.644 309.741 102.117 310.014C101.594 310.283 101.011 310.412 100.366 310.403ZM101.209 303.291C100.662 303.276 100.183 303.462 99.7731 303.847C99.3679 304.233 99.0456 304.807 98.8063 305.569L102.659 305.576L102.688 305.459C102.766 304.844 102.666 304.333 102.388 303.928C102.114 303.518 101.721 303.305 101.209 303.291ZM109.624 308.11C109.697 307.563 109.397 307.178 108.723 306.953L107.346 306.55C106.184 306.15 105.623 305.486 105.662 304.558C105.696 303.86 106.013 303.288 106.614 302.844C107.219 302.395 107.93 302.175 108.745 302.185C109.546 302.195 110.196 302.429 110.694 302.888C111.196 303.342 111.438 303.935 111.419 304.668L110.1 304.66C110.11 304.265 109.986 303.943 109.727 303.694C109.468 303.445 109.124 303.315 108.694 303.305C108.235 303.296 107.84 303.408 107.508 303.642C107.2 303.862 107.022 304.15 106.973 304.507C106.909 304.966 107.19 305.3 107.815 305.51L108.482 305.693C109.39 305.928 110.034 306.233 110.415 306.609C110.796 306.985 110.972 307.451 110.943 308.008C110.913 308.501 110.752 308.93 110.459 309.297C110.166 309.663 109.776 309.944 109.287 310.139C108.799 310.329 108.279 310.417 107.727 310.403C106.887 310.393 106.194 310.149 105.647 309.67C105.1 309.187 104.837 308.567 104.856 307.81L106.182 307.817C106.182 308.262 106.323 308.618 106.607 308.887C106.89 309.155 107.278 309.289 107.771 309.289C108.255 309.299 108.672 309.199 109.024 308.989C109.375 308.774 109.575 308.481 109.624 308.11Z" fill="white"/>
<path d="M137.124 361.715C137.198 361.168 136.897 360.783 136.224 360.558L134.847 360.155C133.684 359.755 133.123 359.091 133.162 358.163C133.196 357.465 133.514 356.893 134.114 356.449C134.72 356 135.43 355.78 136.245 355.79C137.046 355.8 137.696 356.034 138.194 356.493C138.697 356.947 138.938 357.54 138.919 358.273L137.6 358.265C137.61 357.87 137.486 357.548 137.227 357.299C136.968 357.05 136.624 356.92 136.194 356.91C135.735 356.901 135.34 357.013 135.008 357.247C134.7 357.467 134.522 357.755 134.473 358.112C134.41 358.571 134.69 358.905 135.315 359.115L135.982 359.298C136.89 359.533 137.535 359.838 137.915 360.214C138.296 360.59 138.472 361.056 138.443 361.613C138.413 362.106 138.252 362.535 137.959 362.902C137.666 363.268 137.276 363.549 136.787 363.744C136.299 363.934 135.779 364.022 135.227 364.008C134.388 363.998 133.694 363.754 133.147 363.275C132.6 362.792 132.337 362.172 132.356 361.415L133.682 361.422C133.682 361.867 133.824 362.223 134.107 362.492C134.39 362.76 134.778 362.894 135.271 362.894C135.755 362.904 136.172 362.804 136.524 362.594C136.875 362.379 137.076 362.086 137.124 361.715ZM142.42 355.929L142.229 356.932C142.942 356.151 143.753 355.77 144.661 355.79C145.408 355.809 145.96 356.068 146.316 356.566C146.673 357.064 146.805 357.765 146.712 358.668L145.848 363.861H144.522L145.393 358.646C145.423 358.407 145.425 358.185 145.401 357.98C145.318 357.296 144.915 356.947 144.192 356.932C143.396 356.918 142.698 357.343 142.098 358.207L141.116 363.861H139.79L141.167 355.936L142.42 355.929ZM152.74 363.861C152.705 363.72 152.688 363.58 152.688 363.444L152.71 363.026C151.983 363.7 151.211 364.027 150.396 364.008C149.698 363.998 149.129 363.778 148.689 363.348C148.255 362.914 148.057 362.372 148.096 361.722C148.145 360.883 148.511 360.228 149.195 359.76C149.883 359.286 150.787 359.049 151.905 359.049L153.289 359.056L153.377 358.427C153.426 357.953 153.333 357.579 153.099 357.306C152.869 357.028 152.522 356.884 152.058 356.874C151.604 356.864 151.202 356.976 150.85 357.211C150.503 357.44 150.291 357.745 150.213 358.126L148.88 358.134C148.924 357.67 149.104 357.26 149.422 356.903C149.739 356.542 150.147 356.263 150.645 356.068C151.143 355.868 151.658 355.773 152.19 355.783C153.016 355.802 153.658 356.054 154.117 356.537C154.576 357.015 154.768 357.653 154.695 358.449L154.051 362.374L154.014 362.938C154.004 363.207 154.034 363.473 154.102 363.737L154.087 363.861H152.74ZM150.66 362.836C151.084 362.846 151.485 362.745 151.861 362.535C152.242 362.321 152.569 362.025 152.842 361.649L153.128 360.016L152.124 360.009C151.289 360.009 150.65 360.14 150.205 360.404C149.761 360.668 149.51 361.041 149.451 361.525C149.407 361.896 149.493 362.206 149.707 362.455C149.927 362.699 150.245 362.826 150.66 362.836ZM159.236 362.909C159.71 362.919 160.137 362.782 160.518 362.499C160.899 362.211 161.148 361.835 161.265 361.371L162.517 361.364C162.444 361.862 162.244 362.316 161.917 362.726C161.595 363.136 161.187 363.456 160.694 363.685C160.201 363.915 159.695 364.022 159.178 364.008C158.518 363.998 157.959 363.827 157.5 363.495C157.046 363.158 156.712 362.692 156.497 362.096C156.282 361.495 156.209 360.822 156.277 360.075L156.314 359.708C156.407 358.947 156.629 358.265 156.98 357.665C157.332 357.064 157.791 356.598 158.357 356.266C158.924 355.929 159.549 355.77 160.232 355.79C161.062 355.809 161.726 356.088 162.224 356.625C162.723 357.162 162.972 357.843 162.972 358.668L161.734 358.661C161.724 358.143 161.58 357.726 161.302 357.409C161.023 357.086 160.647 356.915 160.174 356.896C159.485 356.881 158.912 357.138 158.453 357.665C157.998 358.192 157.715 358.93 157.603 359.877L157.581 360.067C157.552 360.38 157.547 360.702 157.566 361.034C157.6 361.605 157.762 362.057 158.05 362.389C158.338 362.721 158.733 362.894 159.236 362.909ZM166.421 360.206L165.381 361.137L164.912 363.861H163.587L165.542 352.611H166.868L165.696 359.335L166.509 358.514L169.322 355.936H171.043L167.403 359.313L169.908 363.861H168.457L166.421 360.206ZM175.943 361.715C176.016 361.168 175.716 360.783 175.042 360.558L173.665 360.155C172.503 359.755 171.941 359.091 171.98 358.163C172.015 357.465 172.332 356.893 172.933 356.449C173.538 356 174.248 355.78 175.064 355.79C175.865 355.8 176.514 356.034 177.012 356.493C177.515 356.947 177.757 357.54 177.737 358.273L176.419 358.265C176.429 357.87 176.304 357.548 176.045 357.299C175.787 357.05 175.442 356.92 175.013 356.91C174.554 356.901 174.158 357.013 173.826 357.247C173.518 357.467 173.34 357.755 173.291 358.112C173.228 358.571 173.509 358.905 174.134 359.115L174.8 359.298C175.708 359.533 176.353 359.838 176.734 360.214C177.115 360.59 177.29 361.056 177.261 361.613C177.232 362.106 177.071 362.535 176.778 362.902C176.485 363.268 176.094 363.549 175.606 363.744C175.118 363.934 174.598 364.022 174.046 364.008C173.206 363.998 172.513 363.754 171.966 363.275C171.419 362.792 171.155 362.172 171.175 361.415L172.5 361.422C172.5 361.867 172.642 362.223 172.925 362.492C173.208 362.76 173.597 362.894 174.09 362.894C174.573 362.904 174.991 362.804 175.342 362.594C175.694 362.379 175.894 362.086 175.943 361.715Z" fill="white"/>
<defs>
<clipPath id="clip0">
<rect width="85" height="79" fill="white" transform="translate(161.991 266.861)"/>
</clipPath>
</defs>
</svg>
