<svg width="90" height="90" viewBox="0 0 90 90" fill="none" xmlns="http://www.w3.org/2000/svg">
<circle cx="45.0446" cy="44.8279" r="44.0546" fill="#F0C3FF" stroke=""/>
<path d="M45.5446 63.6464L77.5517 44.828L45.5446 26.0097L45.5446 63.6464Z" fill="#F0C3FF"/>
<path d="M45.5446 63.6464L77.5517 44.828L45.5446 26.0097L45.5446 63.6464Z" fill="#F0C3FF"/>
<path d="M45.5446 63.6464L77.5517 44.828L45.5446 26.0097L45.5446 63.6464Z" stroke="black"/>
<rect x="36.8917" y="22.0892" width="20.4316" height="48.6668" fill="#F0C3FF"/>
<path d="M36.4185 54.3281C43.084 54.3281 48.2732 58.5616 48.2732 63.5493C48.2732 68.537 43.084 72.7706 36.4185 72.7706C29.753 72.7706 24.5638 68.537 24.5638 63.5493C24.5638 58.5616 29.753 54.3281 36.4185 54.3281Z" stroke="black"/>
<path d="M36.4185 16.8856C43.084 16.8856 48.2732 21.1191 48.2732 26.1068C48.2732 31.0945 43.084 35.3281 36.4185 35.3281C29.753 35.3281 24.5638 31.0945 24.5638 26.1068C24.5638 21.1191 29.753 16.8856 36.4185 16.8856Z" stroke="black"/>
</svg>
