<svg width="90" height="90" viewBox="0 0 90 90" fill="none" xmlns="http://www.w3.org/2000/svg">
<circle cx="45.2776" cy="45.2678" r="44.0546" fill="#E7E7E7" stroke=""/>
<path d="M50.6991 60.208C50.6991 67.4989 39.8562 67.4989 39.8562 60.208" stroke="black"/>
<path d="M35.8764 41.3557C35.8764 48.0212 31.6429 53.2104 26.6551 53.2104C21.6674 53.2104 17.4339 48.0212 17.4339 41.3557C17.4339 34.6902 21.6674 29.5009 26.6551 29.5009C31.6429 29.5009 35.8764 34.6902 35.8764 41.3557Z" fill="#E7E7E7" stroke="black"/>
<path d="M73.2658 41.3557C73.2658 48.0212 69.0323 53.2104 64.0445 53.2104C59.0568 53.2104 54.8233 48.0212 54.8233 41.3557C54.8233 34.6902 59.0568 29.5009 64.0445 29.5009C69.0323 29.5009 73.2658 34.6902 73.2658 41.3557Z" fill="#E7E7E7" stroke="black"/>
</svg>
