<svg width="219" height="219" viewBox="0 0 219 219" fill="none" xmlns="http://www.w3.org/2000/svg">
<circle cx="109.5" cy="109.5" r="109" fill="#F0C4FF" stroke="black"/>
<path d="M91.5134 195.98C91.7363 198.606 95.1924 206.285 107.233 216H112.584L120.277 211.405L123.622 199.262L131.649 190.072L137 177.929V168.083L131.649 160.863V155.284L124.291 149.376L120.277 145.438L116.598 138.874L112.584 133.951H109.24H102.551L98.5372 129.356L91.5134 124.105L77.4662 127.387H70.777L63.7534 124.105L67.0978 120.166L72.1149 114.259V106.71L67.0978 101.459H59.7397L63.7534 93.5824L67.0978 87.3467H78.8039L91.5134 94.8952V87.3467V76.8444L95.1926 67.6549L102.551 60.1063H112.584V48.2912L109.24 34.1787V24.3328L112.584 16.1279H102.551H95.1926V27.6148L91.5134 34.1787L84.8242 27.6148H78.8039V16.1279L84.8242 10.2203L91.5134 3L77.4662 6.93837L67.0978 10.2203L59.7397 16.1279H67.0978L59.7397 27.6148H51.0439V34.1787L44.0203 43.0401V60.1063L38 67.6549V76.8444V87.3467V101.459L44.0203 114.259L51.0439 124.105L59.7397 130.669H72.1149V138.874L67.0978 145.438L59.7397 155.284C58.8478 157.8 57.5992 163.882 59.7397 168.083C62.4154 173.334 63.0843 177.273 67.0978 181.867C70.3086 185.543 76.2397 183.399 78.8039 181.867L84.8242 190.072L91.5134 195.98Z" fill="url(#paint0_radial)" stroke="black"/>
<path d="M191.749 167L176.735 193L183.559 188.667L195.502 175L205.739 159L212.564 144.667L217 123.333V105.333V93.6667L214.27 80.3333L208.128 73L201.303 80.3333V84.6667H196.867L187.995 80.3333L176.735 84.6667H164.45L160.697 95L150.46 96.6667V108.333L145 114.333V125.333L150.46 135.667L164.45 141.333H176.735L191.749 135.667V141.333L196.867 153L191.749 167Z" fill="url(#paint1_radial)" stroke="black"/>
<path d="M180.239 73H175.885L174.881 71.3578V68.7304V65.7745V64.1324V62.4902L176.89 59.5343L177.894 58.549V56.9069V55.5931L176.89 53.6225V52.3088V50.0098L177.894 47.7108L178.564 46.0686L180.239 45.4118V43.7696H179.569H177.894L175.885 42.1274L171.867 41.4706L169.858 40.1569L166.844 38.5147L164.835 37.201L162.491 35.8873L158.472 34.2451L156.128 32.2745L153.45 30.6324L151.44 29.3186L147.422 28.6618H142.734H140.055L138.046 27.348H136.037L134.697 26.3627L132.688 24.7206L129.674 23.7353L128 22.0931V19.7941V17.8235L129.674 16.1814V14.8676L131.683 13.2255H136.037H138.381L141.06 14.8676H142.734V13.5539L141.06 11.5833L138.046 7.97059L133.693 6L138.046 6.98529L141.394 7.97059L150.771 11.9118L157.468 14.8676L163.161 17.8235L169.858 22.0931L174.881 24.7206L180.239 29.3186L184.927 33.2598L190.284 38.5147L194.638 42.1274L197.651 46.0686L201 50.6667H197.651H195.642L194.638 49.0245H193.298L191.289 52.3088V54.6078L190.284 56.9069L188.945 59.5343L187.271 61.1765L184.927 62.4902L183.922 63.4755L183.252 65.1176V67.4167H181.578V68.7304V71.3578L180.239 73Z" fill="url(#paint2_radial)" stroke="black"/>
<defs>
<radialGradient id="paint0_radial" cx="0" cy="0" r="1" gradientUnits="userSpaceOnUse" gradientTransform="translate(87.5 109.5) rotate(90) scale(106.5 49.5)">
<stop stop-color="#59E970"/>
<stop offset="1" stop-color="#8AFF9D" stop-opacity="0.58"/>
</radialGradient>
<radialGradient id="paint1_radial" cx="0" cy="0" r="1" gradientUnits="userSpaceOnUse" gradientTransform="translate(181 133) rotate(90) scale(60 36)">
<stop stop-color="#59E970"/>
<stop offset="1" stop-color="#91FFA2" stop-opacity="0.62"/>
</radialGradient>
<radialGradient id="paint2_radial" cx="0" cy="0" r="1" gradientUnits="userSpaceOnUse" gradientTransform="translate(164.5 39.5) rotate(90) scale(33.5 36.5)">
<stop stop-color="#59E970"/>
<stop offset="1" stop-color="#8FFCA0" stop-opacity="0.56"/>
</radialGradient>
</defs>
</svg>
