<svg width="173" height="217" viewBox="0 0 173 217" fill="none" xmlns="http://www.w3.org/2000/svg">
<mask id="path-1-inside-1" fill="white">
<path fill-rule="evenodd" clip-rule="evenodd" d="M111.576 76.9286C114.489 67.276 118.812 57.2143 124.526 47.2896C137.753 24.314 155.403 7.33164 171.723 0C173.649 17.6698 167.873 41.3796 154.646 64.3552C149.083 74.0186 142.737 82.6219 136.037 89.8927C152.726 103.083 163.343 122.916 163.343 145.096C163.343 184.807 129.306 217 87.3205 217C45.3345 217 11.2982 184.807 11.2982 145.096C11.2982 129.284 16.6938 114.665 25.8386 102.795C19.0353 93.2026 13.0198 81.68 8.46127 68.8402C-0.540197 43.4861 -1.80016 18.7992 3.61562 1.5704C18.8266 11.9314 33.5091 32.1492 42.5106 57.5033C45.5811 66.1519 47.7508 74.7228 49.0621 82.9466C60.2996 76.7446 73.3713 73.1912 87.3205 73.1912C95.8016 73.1912 103.958 74.5048 111.576 76.9286Z"/>
</mask>
<path fill-rule="evenodd" clip-rule="evenodd" d="M111.576 76.9286C114.489 67.276 118.812 57.2143 124.526 47.2896C137.753 24.314 155.403 7.33164 171.723 0C173.649 17.6698 167.873 41.3796 154.646 64.3552C149.083 74.0186 142.737 82.6219 136.037 89.8927C152.726 103.083 163.343 122.916 163.343 145.096C163.343 184.807 129.306 217 87.3205 217C45.3345 217 11.2982 184.807 11.2982 145.096C11.2982 129.284 16.6938 114.665 25.8386 102.795C19.0353 93.2026 13.0198 81.68 8.46127 68.8402C-0.540197 43.4861 -1.80016 18.7992 3.61562 1.5704C18.8266 11.9314 33.5091 32.1492 42.5106 57.5033C45.5811 66.1519 47.7508 74.7228 49.0621 82.9466C60.2996 76.7446 73.3713 73.1912 87.3205 73.1912C95.8016 73.1912 103.958 74.5048 111.576 76.9286Z" fill="url(#paint0_linear)"/>
<path d="M124.526 47.2896L123.659 46.7907L124.526 47.2896ZM111.576 76.9286L111.273 77.8816L112.24 78.1894L112.533 77.2175L111.576 76.9286ZM171.723 0L172.717 -0.108384L172.568 -1.47589L171.313 -0.912179L171.723 0ZM154.646 64.3552L155.512 64.8541L154.646 64.3552ZM136.037 89.8927L135.301 89.2151L134.57 90.0084L135.417 90.6773L136.037 89.8927ZM25.8386 102.795L26.6307 103.405L27.082 102.819L26.6542 102.216L25.8386 102.795ZM8.46127 68.8402L9.40364 68.5056L8.46127 68.8402ZM3.61562 1.5704L4.17858 0.743912L3.06551 -0.0142607L2.66164 1.27052L3.61562 1.5704ZM42.5106 57.5033L43.453 57.1687L42.5106 57.5033ZM49.0621 82.9466L48.0745 83.1041L48.2987 84.5101L49.5453 83.8221L49.0621 82.9466ZM123.659 46.7907C117.909 56.7785 113.554 66.9104 110.618 76.6397L112.533 77.2175C115.423 67.6415 119.715 57.6501 125.392 47.7885L123.659 46.7907ZM171.313 -0.912179C154.747 6.53005 136.957 23.692 123.659 46.7907L125.392 47.7885C138.549 24.936 156.059 8.13323 172.133 0.912179L171.313 -0.912179ZM155.512 64.8541C168.81 41.756 174.673 17.8331 172.717 -0.108384L170.729 0.108384C172.626 17.5065 166.936 41.0032 153.779 63.8563L155.512 64.8541ZM136.772 90.5704C143.525 83.2428 149.914 74.5792 155.512 64.8541L153.779 63.8563C148.251 73.4581 141.949 82.0009 135.301 89.2151L136.772 90.5704ZM135.417 90.6773C151.886 103.693 162.343 123.247 162.343 145.096H164.343C164.343 122.586 153.566 102.472 136.657 89.1082L135.417 90.6773ZM162.343 145.096C162.343 184.203 128.807 216 87.3205 216V218C129.805 218 164.343 185.411 164.343 145.096H162.343ZM87.3205 216C45.8336 216 12.2982 184.203 12.2982 145.096H10.2982C10.2982 185.411 44.8354 218 87.3205 218V216ZM12.2982 145.096C12.2982 129.517 17.6132 115.11 26.6307 103.405L25.0464 102.185C15.7744 114.22 10.2982 129.051 10.2982 145.096H12.2982ZM7.5189 69.1748C12.1064 82.0963 18.1633 93.7018 25.0229 103.373L26.6542 102.216C19.9072 92.7035 13.9332 81.2638 9.40364 68.5056L7.5189 69.1748ZM2.66164 1.27052C-2.83803 18.7662 -1.53102 43.6842 7.5189 69.1748L9.40364 68.5056C0.450625 43.288 -0.762287 18.8321 4.5696 1.87027L2.66164 1.27052ZM43.453 57.1687C34.4024 31.6764 19.6125 11.2567 4.17858 0.743912L3.05266 2.39688C18.0407 12.606 32.6158 32.622 41.5682 57.8379L43.453 57.1687ZM50.0496 82.7892C48.7284 74.5033 46.5433 65.8731 43.453 57.1687L41.5682 57.8379C44.6189 66.4306 46.7732 74.9424 48.0745 83.1041L50.0496 82.7892ZM49.5453 83.8221C60.6367 77.7008 73.5424 74.1912 87.3205 74.1912V72.1912C73.2002 72.1912 59.9625 75.7885 48.5789 82.0711L49.5453 83.8221ZM87.3205 74.1912C95.698 74.1912 103.753 75.4887 111.273 77.8816L111.879 75.9757C104.164 73.5209 95.9053 72.1912 87.3205 72.1912V74.1912Z" fill="black" mask="url(#path-1-inside-1)"/>
<circle cx="117.74" cy="130" r="17" fill="white"/>
<ellipse cx="54.2395" cy="130" rx="17.5" ry="17" fill="white"/>
<circle cx="118.24" cy="130.5" r="15.5" fill="black"/>
<ellipse cx="54.7395" cy="130.5" rx="15" ry="15.5" fill="black"/>
<ellipse cx="113.24" cy="125" rx="5.5" ry="5" fill="white"/>
<circle cx="49.7395" cy="125" r="5" fill="white"/>
<ellipse cx="87.2395" cy="163" rx="5.5" ry="2" fill="black"/>
<path fill-rule="evenodd" clip-rule="evenodd" d="M70.2363 176.331C71.7092 176.527 73.2791 176.586 74.9067 176.484C77.9131 176.294 80.6552 175.583 82.906 174.533C84.8972 173.846 86.6512 172.992 88.0846 172.02C85.5243 174.959 80.6603 177.123 74.9696 177.482C70.7813 177.746 66.9145 176.983 64.0051 175.527C65.9067 175.976 68.0088 176.255 70.2363 176.331Z" fill="black"/>
<path fill-rule="evenodd" clip-rule="evenodd" d="M92.3847 174.422C93.7602 174.984 95.2642 175.437 96.8648 175.749C99.8214 176.326 102.654 176.33 105.097 175.883C107.198 175.721 109.11 175.338 110.743 174.76C107.523 176.957 102.27 177.822 96.6735 176.731C92.5545 175.928 89.006 174.213 86.5586 172.069C88.2852 172.984 90.2487 173.785 92.3847 174.422Z" fill="black"/>
<path d="M150.24 165.5C150.24 171.555 145.111 176.5 138.74 176.5C132.368 176.5 127.24 171.555 127.24 165.5C127.24 159.445 132.368 154.5 138.74 154.5C145.111 154.5 150.24 159.445 150.24 165.5Z" fill="#59E970" stroke="black"/>
<path d="M49.2395 165.5C49.2395 171.555 44.111 176.5 37.7395 176.5C31.368 176.5 26.2395 171.555 26.2395 165.5C26.2395 159.445 31.368 154.5 37.7395 154.5C44.111 154.5 49.2395 159.445 49.2395 165.5Z" fill="#59E970" stroke="black"/>
<mask id="path-14-inside-2" fill="white">
<path fill-rule="evenodd" clip-rule="evenodd" d="M1.19198 41.5298C-0.943425 26.494 -0.176758 12.7183 3.22733 1.88919C13.6387 8.98091 23.8025 20.6905 32.0665 35.5042C24.2155 39.3821 14.8783 41.6309 4.85907 41.6309C3.62587 41.6309 2.40301 41.5968 1.19198 41.5298Z"/>
</mask>
<path fill-rule="evenodd" clip-rule="evenodd" d="M1.19198 41.5298C-0.943425 26.494 -0.176758 12.7183 3.22733 1.88919C13.6387 8.98091 23.8025 20.6905 32.0665 35.5042C24.2155 39.3821 14.8783 41.6309 4.85907 41.6309C3.62587 41.6309 2.40301 41.5968 1.19198 41.5298Z" fill="#59E970"/>
<path d="M1.19198 41.5298L0.201912 41.6704L0.31731 42.483L1.13675 42.5283L1.19198 41.5298ZM3.22733 1.88919L3.79029 1.06271L2.67722 0.304535L2.27335 1.58931L3.22733 1.88919ZM32.0665 35.5042L32.5094 36.4008L33.452 35.9352L32.9398 35.017L32.0665 35.5042ZM2.18204 41.3892C0.0616105 26.4588 0.833198 12.8401 4.18131 2.18907L2.27335 1.58931C-1.18671 12.5965 -1.94846 26.5292 0.201912 41.6704L2.18204 41.3892ZM2.66437 2.71567C12.9153 9.69808 22.9834 21.2748 31.1932 35.9914L32.9398 35.017C24.6216 20.1062 14.3621 8.26373 3.79029 1.06271L2.66437 2.71567ZM31.6236 34.6076C23.9154 38.4151 14.7303 40.6309 4.85907 40.6309V42.6309C15.0262 42.6309 24.5157 40.3492 32.5094 36.4008L31.6236 34.6076ZM4.85907 40.6309C3.64429 40.6309 2.43984 40.5973 1.2472 40.5314L1.13675 42.5283C2.36618 42.5963 3.60746 42.6309 4.85907 42.6309V40.6309Z" fill="black" mask="url(#path-14-inside-2)"/>
<mask id="path-16-inside-3" fill="white">
<path fill-rule="evenodd" clip-rule="evenodd" d="M140.401 24.8162C150.39 13.258 161.326 4.67075 171.723 0.00012207C173.078 12.4285 170.622 27.845 164.443 43.8924C154.097 43.3073 145.16 35.763 140.401 24.8162Z"/>
</mask>
<path fill-rule="evenodd" clip-rule="evenodd" d="M140.401 24.8162C150.39 13.258 161.326 4.67075 171.723 0.00012207C173.078 12.4285 170.622 27.845 164.443 43.8924C154.097 43.3073 145.16 35.763 140.401 24.8162Z" fill="#59E970"/>
<path d="M140.401 24.8162L139.644 24.1623L139.233 24.6382L139.484 25.2149L140.401 24.8162ZM171.723 0.00012207L172.717 -0.108262L172.568 -1.47577L171.313 -0.912057L171.723 0.00012207ZM164.443 43.8924L164.387 44.8908L165.115 44.932L165.376 44.2518L164.443 43.8924ZM141.158 25.4701C151.078 13.9906 161.903 5.50812 172.133 0.912301L171.313 -0.912057C160.75 3.83338 149.701 12.5254 139.644 24.1623L141.158 25.4701ZM170.729 0.108506C172.062 12.3361 169.649 27.5891 163.51 43.5331L165.376 44.2518C171.595 28.101 174.094 12.5209 172.717 -0.108262L170.729 0.108506ZM164.5 42.894C154.635 42.3361 145.973 35.1248 141.318 24.4175L139.484 25.2149C144.347 36.4011 153.56 44.2785 164.387 44.8908L164.5 42.894Z" fill="black" mask="url(#path-16-inside-3)"/>
<defs>
<linearGradient id="paint0_linear" x1="86.2366" y1="0" x2="86.2366" y2="217" gradientUnits="userSpaceOnUse">
<stop stop-color="#F0C4FF"/>
<stop offset="1" stop-color="white"/>
</linearGradient>
</defs>
</svg>
