<svg width="340" height="306" viewBox="0 0 340 306" fill="none" xmlns="http://www.w3.org/2000/svg">
<path d="M264.516 190.376C248.166 254.216 186.738 292.632 121.593 275.947C56.463 259.267 16.6303 183.979 32.9844 120.124C49.3313 56.2968 118.32 15.301 183.478 31.9886C216.018 40.3225 240.366 63.9276 254.54 93.4652C268.715 123.006 272.693 158.446 264.516 190.376Z" fill="#FFCEF4" stroke="#FF00C7"/>
<path d="M311.971 186.229C311.971 188.999 311.12 191.191 309.419 192.805C307.74 194.419 305.864 195.226 303.792 195.226C301.284 195.226 300.03 194.125 300.03 191.922C300.03 190.155 300.695 188.672 302.025 187.473C303.378 186.251 304.904 185.641 306.605 185.641C307.631 185.641 308.612 185.837 309.55 186.229V171.573L291.524 176.448V189.337C291.524 191.867 290.771 193.983 289.267 195.684C287.784 197.385 285.788 198.236 283.28 198.236C282.037 198.236 281.099 197.941 280.466 197.353C279.834 196.785 279.518 196.011 279.518 195.03C279.518 193.372 280.161 191.911 281.448 190.646C282.756 189.359 284.218 188.716 285.832 188.716C287.009 188.716 288.1 188.923 289.103 189.337V164.736L311.971 158.913V186.229ZM291.524 172.293L309.55 167.418V163.591L291.524 168.563V172.293Z" fill="#FF00C7"/>
<path d="M55.0007 136.355L41.7406 43.3569L119.797 73.2166C104.695 81.6223 93.4287 89.2529 83.453 98.8918C73.5149 108.494 64.8768 120.072 55.0007 136.355Z" fill="#FFCEF4" stroke="#FF00C7"/>
<path d="M267.587 140.025L305.523 81.2606L241.869 72.7158C250.19 84.1052 254.838 92.9201 258.294 102.891C261.275 111.493 263.366 120.953 266.172 133.644C266.623 135.684 267.093 137.808 267.587 140.025Z" fill="#FFCEF4" stroke="#FF00C7"/>
<path d="M178 236.5C178 256 207 256 207 236.5" stroke="black"/>
<path d="M177 236.5C177 256 148 256 148 236.5" stroke="black"/>
<path d="M192 227H177.5H163" stroke="black"/>
<line x1="177.5" y1="236.5" x2="177.5" y2="227.5" stroke="black"/>
<path d="M160 202.573L100.5 192.5M254 192.5L200.5 202.573" stroke="black"/>
</svg>
