<svg width="367" height="306" viewBox="0 0 367 306" fill="none" xmlns="http://www.w3.org/2000/svg">
<path d="M264.516 190.376C248.166 254.216 186.738 292.632 121.593 275.947C56.463 259.267 16.6303 183.979 32.9844 120.124C49.3313 56.2968 118.32 15.301 183.478 31.9886C216.018 40.3225 240.366 63.9276 254.54 93.4652C268.715 123.006 272.693 158.446 264.516 190.376Z" fill="#F0C3FF" stroke="#FF00C7"/>
<path d="M338.971 159.4C338.971 162.17 338.12 164.362 336.419 165.976C334.74 167.59 332.864 168.397 330.792 168.397C328.284 168.397 327.03 167.296 327.03 165.093C327.03 163.326 327.695 161.843 329.025 160.644C330.378 159.422 331.904 158.812 333.605 158.812C334.631 158.812 335.612 159.008 336.55 159.4V144.744L318.524 149.619V162.508C318.524 165.038 317.771 167.154 316.267 168.855C314.784 170.556 312.788 171.407 310.28 171.407C309.037 171.407 308.099 171.112 307.466 170.523C306.834 169.956 306.518 169.182 306.518 168.201C306.518 166.543 307.161 165.082 308.448 163.817C309.756 162.53 311.218 161.887 312.832 161.887C314.009 161.887 315.1 162.094 316.103 162.508V137.907L338.971 132.083V159.4ZM318.524 145.464L336.55 140.589V136.762L318.524 141.734V145.464Z" fill="#FF00C7"/>
<path d="M55.0007 136.355L41.7406 43.3569L119.797 73.2166C104.695 81.6223 93.4287 89.2529 83.453 98.8918C73.5149 108.494 64.8768 120.072 55.0007 136.355Z" fill="#F0C3FF" stroke="#FF00C7"/>
<path d="M267.587 140.025L305.523 81.2606L241.869 72.7158C250.19 84.1052 254.838 92.9201 258.294 102.891C261.275 111.493 263.366 120.953 266.172 133.644C266.623 135.684 267.093 137.808 267.587 140.025Z" fill="#F0C3FF" stroke="#FF00C7"/>
<path d="M178 236.5C178 256 207 256 207 236.5" stroke="black"/>
<path d="M177 236.5C177 256 148 256 148 236.5" stroke="black"/>
<path d="M192 227H177.5H163" stroke="black"/>
<line x1="177.5" y1="236.5" x2="177.5" y2="227.5" stroke="black"/>
<path d="M160 202.573L100.5 192.5M254 192.5L200.5 202.573" stroke="black"/>
</svg>
